<?xml version="1.0" encoding="UTF-8"?>
<svg id="Layer_1" data-name="Layer 1" xmlns="http://www.w3.org/2000/svg" version="1.1" viewBox="0 0 31.9 32">
  <defs>
    <style>
      .cls-1 {
        fill: #00b9b4;
        stroke-width: 0px;
      }
    </style>
  </defs>
  <path class="cls-1" d="M6.6,6c1-1.1,2.1-2.3,3.2-3.4.7-.7,2.7-.4,3.3.4.3.4,0,1.6-.4,2.2-1.2,1.6-2.4,3.1-2.9,5.1-.2.7-.3,1.4-.2,2.1,0,1.1,0,2.1.3,3.1.1.8.4,1.5.8,2.2.7,1.2,1.3,2.5,2.3,3.5,1.4,1.4,3.1,2.5,5.1,2.4,2.1-.1,4-.9,5.7-2.2,1.2-.9,2-1.1,2.9.3,1.2,1.8,1,2.3-.8,3.5-1.2.8-2.6,1.3-3.9,1.8-1.6.7-3.4,1-5.1.8-1.8-.2-3.5-.8-5-1.8-1.8-1.3-3.2-2.9-4.3-4.8-.3-.5-.6-1-.9-1.5l-2.2-8.4"/>
  <path class="cls-1" d="M24.1,16.5c-1.2,0-2.2-.8-2.2-1.8,0-1.5.9-2.7,2.2-2.7,1,0,2.3.7,2.2,2.2,0,1.5-.4,2.2-2.2,2.2h0Z"/>
  <path class="cls-1" d="M21,5.5c1.2,0,2.2.6,2.2,2.5,0,.9-1.1,1.7-2.2,1.8-1.1,0-2.3-.8-2.2-2.3,0-1.1,1-2,2.2-2Z"/>
</svg>