<?xml version="1.0" encoding="UTF-8"?>
<svg xmlns="http://www.w3.org/2000/svg" version="1.1" viewBox="0 0 500 500">
  <defs>
    <style>
      .cls-1 {
        fill: #543732;
      }

      .cls-1, .cls-2, .cls-3, .cls-4, .cls-5, .cls-6, .cls-7, .cls-8, .cls-9, .cls-10, .cls-11, .cls-12, .cls-13, .cls-14, .cls-15, .cls-16, .cls-17, .cls-18, .cls-19, .cls-20, .cls-21, .cls-22, .cls-23, .cls-24, .cls-25, .cls-26, .cls-27, .cls-28, .cls-29 {
        stroke-width: 0px;
      }

      .cls-2 {
        fill: #ffae85;
      }

      .cls-3 {
        fill: #ffe6eb;
      }

      .cls-4 {
        fill: #722e19;
      }

      .cls-5 {
        fill: #4f201f;
      }

      .cls-30 {
        isolation: isolate;
      }

      .cls-6 {
        fill: #ffd2d2;
      }

      .cls-7 {
        fill: #f2c0d5;
      }

      .cls-8 {
        fill: #3f1919;
      }

      .cls-9 {
        fill: #e23b5b;
      }

      .cls-10 {
        fill: #c42d51;
      }

      .cls-11 {
        fill: #ef8f6f;
      }

      .cls-12 {
        fill: #fff6ca;
      }

      .cls-13 {
        fill: #85f693;
      }

      .cls-14 {
        fill: #ef5454;
      }

      .cls-15 {
        fill: #bc5642;
        mix-blend-mode: multiply;
        opacity: .5;
      }

      .cls-16 {
        fill: #efc7d0;
      }

      .cls-17 {
        fill: #ffcd9c;
      }

      .cls-18 {
        fill: #e03f5e;
      }

      .cls-19 {
        fill: #e03636;
      }

      .cls-20 {
        fill: #5e2617;
      }

      .cls-21 {
        fill: #602c29;
      }

      .cls-22 {
        fill: #fff9e9;
      }

      .cls-23 {
        fill: #f4536a;
      }

      .cls-24 {
        fill: #512e26;
      }

      .cls-25 {
        fill: #ff8f43;
      }

      .cls-26 {
        fill: #fa5;
      }

      .cls-27 {
        fill: #ff839b;
      }

      .cls-28 {
        fill: #893d22;
      }

      .cls-29 {
        fill: #ffce6c;
      }
    </style>
  </defs>
  <g class="cls-30">
    <g id="Layer_2" data-name="Layer 2">
      <circle class="cls-13" cx="268.5" cy="237.5" r="197.5"/>
    </g>
    <g id="Layer_1" data-name="Layer 1">
      <g>
        <path class="cls-28" d="M269.12,147.75c-8.16-8.52-12.03-17.22-10.74-26.52,1.29-9.29-4.18-13.39-7.38-23.23-3.2-9.84.61-13.12.77-19.13.16-6.01-7.35-21.87,1.33-34.17,8.69-12.3,18.15-3.28,18.15-3.28,0,0,8.29-16.95,30.85-9.56,22.56,7.38,21.46,25.41,20.7,31.16-.77,5.74,5.28,22.69,8.06,27.06,2.78,4.38-1.46,15.03-2.82,21.05-1.36,6.01,8.51,33.89-2.7,40.18-11.21,6.29-39.72,13.67-56.22-3.55Z"/>
        <path class="cls-4" d="M328.05,111.13c1.36-6.01,5.6-16.67,2.82-21.05-2.78-4.37-8.83-21.32-8.06-27.06.69-5.13,1.62-20.09-14.31-28.47.09.43.24.84.28,1.28,3.11,40.48-8.61,30.17-28.13,32.93-10.69,1.51-24.47-3.92-31.68-8.19.32,7.7,2.9,14.73,2.81,18.3-.17,6.01-3.98,9.29-.77,19.13,3.2,9.84,8.67,13.94,7.38,23.23-1.29,9.3,2.58,18,10.74,26.52,16.5,17.22,45.01,9.84,56.22,3.55,11.21-6.29,1.34-34.16,2.7-40.18Z"/>
        <path class="cls-20" d="M324.41,151.81c-11.55-31.41-20.91-63.12-38.38-60.19-14.1,2.36-20.24,27.22-14.61,50.66.84,3.51,1.92,6.87,3.19,10.05,16.25,10.79,39.26,4.99,49.8-.51Z"/>
        <path class="cls-29" d="M269.84,143.72c-4.99,3.89-17.63,37.19-17.17,39.68.46,2.49,2.6,9.89,8.49,8.1,5.88-1.78,26.4-49.06,24.67-53.79-1.73-4.73-12.92,3.63-15.99,6.02Z"/>
        <path class="cls-25" d="M285.83,137.7c-1.73-4.73-12.92,3.63-15.99,6.02-1.78,1.38-4.54,6.52-7.32,12.66.13.02.26.02.39.06,7.44,2.19.16,30.87-8.27,32.23,1.62,3.04,4.19,5.93,7.68,4.87,5.88-1.79,25.24-51.1,23.51-55.84Z"/>
        <path class="cls-14" d="M262.07,176.33c-10.42-1.09-12.28,7.64-13.79,11.3l6.59,6.83c23.6,3.47,17.62-17.05,7.2-18.13Z"/>
        <path class="cls-19" d="M262.07,176.33c-.16-.02-.3-.01-.45-.03-.18,2.13-2.03,4.73-4.94,6.6-2.59,1.66-5.34,2.29-7.34,1.91-.42,1.06-.75,2.05-1.06,2.81l6.59,6.83c23.6,3.47,17.62-17.05,7.2-18.13Z"/>
        <path class="cls-17" d="M253.56,182.47c-5.71,2.61-29.1,39.65-36.59,59.9l1.4.83c17.16-22.48,45.24-51.65,45.43-54.61.2-2.96-4.53-8.74-10.25-6.13Z"/>
        <path class="cls-2" d="M253.64,182.44c2.85,1.23,5.02,3.37,5.05,4.94.05,2.83-25.53,31.98-41.05,55.39l.73.43c17.16-22.48,47.76-51.73,47.96-54.68.2-2.95-6.99-8.61-12.69-6.08Z"/>
        <path class="cls-17" d="M281.98,229.1c21.3,26.4.47,120.73-.49,128.02-.95,7.29,9.11,26.11,8.2,38.26-.92,12.15-9.1,24.9-23.39,74.1h-4.23c18.81-65.82-.51-147.05-3.58-201.29-.25-4.33-4.87-74.25,23.49-39.09Z"/>
        <path class="cls-2" d="M265.94,338.43c.98-.08,1.98-.14,2.97-.14,5.36,0,10.52,1.24,15.34,3.52,5.21-29.51,14.43-92-2.27-112.71-28.36-35.16-23.73,34.76-23.49,39.09,1.15,20.36,4.59,44.52,7.45,70.24Z"/>
        <path class="cls-17" d="M268.7,231.06c-7.83-13.51.33-35.6,37.31-1.02,36.98,34.58,28.74,119.93,29.45,127.21.72,7.28,15.1,26.09,16.96,38.22,1.86,12.13-3.4,24.87-6.43,74.01h-4.23c4.06-71.38-51.15-200.61-73.07-238.42Z"/>
        <path class="cls-2" d="M320.22,341.81c4.98-1.23,10.21-.67,15.48,1.41.5-27.3-.59-85.97-29.69-113.18-36.98-34.58-45.14-12.5-37.31,1.02,11.38,19.63,31.74,63.91,48.11,111.93,1.1-.47,2.24-.88,3.41-1.18Z"/>
        <path class="cls-23" d="M262.36,321.91l26.41,1.94,4.56-37.5,14.08,37.86,27.9-4.06s4.49-59.39-31.07-92.93l-45.01,4.02c-4.85,11.58,1.38,69.24,3.12,90.66Z"/>
        <polygon class="cls-9" points="292.92 285.19 284.88 323.56 289 323.85 294.59 288.23 292.92 285.19"/>
        <polygon class="cls-9" points="288.45 322.85 289.66 314.23 261.79 314.99 262.47 321.18 288.45 322.85"/>
        <path class="cls-9" d="M304.25,227.23l-45.01,4.02c-.21.5-1.71,3.67-1.44,9.61,11.01,4.93,33.36,10.65,48.35,6.15,16.84,32.49,18.57,64.09,18.16,73.51l11-.36s4.49-59.39-31.07-92.93Z"/>
        <polygon class="cls-6" points="289.87 324.81 291.02 319.89 261.37 316.95 262.1 323.13 289.87 324.81"/>
        <polygon class="cls-9" points="333.03 319.59 332.85 309.05 305.27 318.26 307.39 324.11 333.03 319.59"/>
        <polygon class="cls-6" points="336.43 320.78 336.42 315.6 305.28 320.1 307.53 326.05 336.43 320.78"/>
        <path class="cls-29" d="M257.45,162.25s10.63-46.13,35.13-42.72c24.49,3.42,20.42,32.76,14.23,49.42-6.19,16.66-10.64,28.38,7.14,67.58-23.84,10.71-50.84,4.02-56.43-1.35,1.82-31.33,25.05-47.68-.07-72.93Z"/>
        <path class="cls-14" d="M282.09,121.28s-8.07,9.74-6.68,29.3c0,0,20.89-12.05,24.11-29.1-5.66-2.93-14.28-2.84-17.43-.2Z"/>
        <path class="cls-17" d="M283.87,120.36s-3.93,5.89-3.11,17.36c0,0,15.55-7.25,17.09-16.14l-13.97-1.22Z"/>
        <path class="cls-26" d="M268.4,192.73c2.12-2.93,4.39-4.7,6.74-4.7,9.7,0,23.57,36.5,29,51.93,3.29-.86,6.59-1.98,9.82-3.44-17.78-39.19-13.34-50.92-7.14-67.58,4.57-12.28,7.97-31.45-.37-42.04-7.65,10.88-11.88,35.7-16.77,39.19-2.09,1.49-25.16-.69-31.76-3.37,10.73,11.01,12.28,20.35,10.49,30.01Z"/>
        <path class="cls-29" d="M304.48,142.2c3.94,4.95,30.46,27.67,32.98,27.95,2.52.28,17.05,3.63,17.05-2.52s-46.12-42.76-51.15-42.48c-5.03.28-3.11,11.74,1.12,17.05Z"/>
        <path class="cls-26" d="M346.37,157.54c-6.5-2.21-14.37,2.17-16.74,1.98-1.73-.14-18.85-16.88-28.34-24.94,1.05,16.67,34.48,35.37,36.16,35.56,2.52.28,17.05,3.63,17.05-2.52,0-1.63-3.26-5.42-8.14-10.09Z"/>
        <path class="cls-14" d="M343.92,158.17c-10.91,2.17-10.06,11.59-10.44,15.77l8.82,4.85c25-3.86,12.52-22.79,1.62-20.62Z"/>
        <path class="cls-19" d="M343.92,158.17c-.17.03-.3.08-.46.12.49,2.22-.58,5.43-2.94,8.23-2.1,2.49-4.69,4-6.83,4.24-.09,1.21-.12,2.31-.2,3.18l8.82,4.85c25-3.86,12.52-22.79,1.62-20.62Z"/>
        <polygon class="cls-17" points="282.12 109.85 282.95 122.21 297.84 121.59 296.37 97.48 282.12 109.85"/>
        <path class="cls-12" d="M336.62,472h13.41s-3.63-6.43-6.71-6.15c-3.08.28-6.71,6.15-6.71,6.15Z"/>
        <path class="cls-12" d="M246.06,472h22.37s-.85-7.27-3.92-6.99c-3.07.28-18.44,6.99-18.44,6.99Z"/>
        <polygon class="cls-9" points="282.95 284.15 292.71 284.67 304.34 278.59 294.38 288.97 282.95 284.15"/>
        <path class="cls-17" d="M339.02,164.9c-5.56,2.92-26.05,42.09-32.43,62.72l1.45.76c15.91-23.38,41.96-55.97,41.99-58.94.04-2.96-5.45-7.46-11.01-4.55Z"/>
        <path class="cls-2" d="M339.02,164.9c-.47.25-1.06.77-1.73,1.51,3.91.45,7.41,2.42,7.52,4.25.17,2.75-23,33.31-37.65,57.26l.88.46c15.91-23.38,45.23-56.5,45.27-59.47.04-2.96-8.73-6.93-14.29-4.01Z"/>
        <path class="cls-15" d="M278.97,145.27c10.79,1.15,22.85-15.72,32.71-15.69-2.48-1.66-4.59-2.95-6.1-3.69-1.62-1.78-3.62-3.27-6.06-4.39,0,0,0-.01,0-.02-.55-.29-1.13-.53-1.73-.76l-1.42-23.24-14.25,12.37.74,10.9c-.18.11-.34.22-.5.33-5.53,2.56-10.07,7.71-13.68,13.52-.95,6.54,3.92,9.99,10.3,10.67Z"/>
        <path class="cls-17" d="M272.9,118.28c20.32.68,28.13-9.8,30.76-43.48.73-9.27-4.85-20.83-16.95-23.74-12.35-2.97-25.73,1.28-28.63,22.71-.6,4.46,1.18,9.31.77,14.08-1.32,14.98,10.04,27.77,14.06,30.43Z"/>
        <path class="cls-4" d="M293.72,103.07c-1.26-6.71,6.15-18.59,4.05-28.93-2.1-10.34-7.54-24.99,2.1-20.26,28.51,13.98-6.15,49.19-6.15,49.19Z"/>
        <g>
          <path class="cls-28" d="M297.36,74.74c-4.47-3.15-9.68-5.96-18.02-2.32.71-1.46,4.72-4.73,9.09-4.27,6.68.7,8.93,6.58,8.93,6.58Z"/>
          <path class="cls-1" d="M273.51,82.23c-3.37-2.2-7.19-4.22-12.45-2.26,0,0,1.09-3.06,5.7-2.31,4.6.74,6.75,4.58,6.75,4.58Z"/>
          <path class="cls-1" d="M261.64,83.31c-.26-2.6,1.44-4.83,3.8-4.99,2.35-.15,4.46,1.84,4.72,4.43.25,2.6-1.45,4.84-3.8,4.99-2.35.15-4.46-1.83-4.72-4.43Z"/>
          <path class="cls-1" d="M293.92,82.17c-3.42-2.23-7.31-4.28-12.66-2.37,0,0,1.11-3.05,5.8-2.27,4.68.78,6.86,4.64,6.86,4.64Z"/>
          <path class="cls-28" d="M258.04,74.51c5.11-3.89,9.79-4.37,14.62-1.56,0,0-1.71-4.85-7.12-4.42-5.41.43-7.5,5.98-7.5,5.98Z"/>
          <path class="cls-11" d="M281.15,103.06c1.03,2.16-5.66,6.34-9.66,2.37,4.28,1.1,9.66-2.37,9.66-2.37Z"/>
          <path class="cls-11" d="M274.48,93.08l.15.57c-1.76,1.45-3.14,2.9-3,3.83.24,1.68,2.94,1.86,4.56,1.81l.06.17s-5.46.67-5.8-1.75c-.17-1.09,1.79-2.94,4.03-4.64Z"/>
          <path class="cls-1" d="M281.85,83.15c-.26-2.6,1.46-4.82,3.86-4.96,2.38-.14,4.54,1.87,4.8,4.47.26,2.6-1.47,4.82-3.86,4.96-2.39.13-4.54-1.87-4.8-4.46Z"/>
          <path class="cls-11" d="M280.21,108.83c-.13-.4-1.08-.46-2.1-.14-1.02.32-1.74.9-1.61,1.3.14.4,1.08.46,2.1.14,1.02-.32,1.74-.9,1.6-1.3Z"/>
        </g>
        <path class="cls-17" d="M295.74,106.26c6.62,2.18,15.82-5.9,11.38-15.97-2.55-5.8-18.15,13.73-11.38,15.97Z"/>
        <path class="cls-11" d="M298.33,102.82c4.08,1.35,9.76-3.63,7.02-9.85-1.58-3.57-11.19,8.47-7.02,9.85Z"/>
        <path class="cls-17" d="M297.05,103.62c2.7.89,6.45-2.41,4.64-6.52-1.04-2.37-7.41,5.6-4.64,6.52Z"/>
        <path class="cls-28" d="M306.39,53.6c-1.69-6.08-6.04-10.18-9.72-9.16-3.68,1.02-5.3,6.78-3.61,12.86,1.69,6.08,6.04,10.18,9.73,9.15,3.68-1.02,5.3-6.78,3.61-12.86Z"/>
        <path class="cls-17" d="M312.62,234.86c.53,2.15.52,4.61-.26,4.9-.68.25-.68-1.59-1.24-3.03-.5-1.27-.65-1.71-.95-1.57-.19.1.17,1.86.5,3.82.43,2.45.35,4.14-.46,4.41-.76.21-.68-1.44-1.27-3.6-.51-1.9-.64-2.76-1.42-2.53-.37.09-.15,1.42-.18,3.5,0,2.39-.52,3.89-1.17,3.89-.92-.02-.25-1.14-.56-3.82-.41-3.59-.03-4.57-1.45-6.09-1.33-1.42-2.02,5.39-3.37,4.35-1.77-1.37,2.59-13.05,4.99-13.68,3.47-.89,5.14,2.63,6.84,9.44Z"/>
        <path class="cls-17" d="M215.88,248.81c-1.32,1.78-3.22,3.35-3.94,2.93-.63-.37.79-1.54,1.54-2.89.66-1.19.9-1.6.6-1.73-.2-.08-1.32,1.32-2.62,2.83-1.62,1.89-2.97,2.91-3.69,2.47-.65-.45.68-1.44,1.96-3.28,1.13-1.61,1.72-2.25,1.04-2.71-.31-.23-1.19.79-2.8,2.1-1.84,1.52-3.32,2.08-3.74,1.58-.57-.72.72-.92,2.59-2.87,2.5-2.61,3.5-2.94,3.76-5.01.25-1.93-5.44,1.89-5.5.18-.08-2.24,11.7-6.34,13.72-4.89,2.9,2.1,1.26,5.63-2.9,11.3Z"/>
      </g>
      <g>
        <path class="cls-10" d="M145.63,408.52c12.07.76,21.09,6.57,21.09,6.57-17.23,4.73-32.2,2.1-37.52.88,0,0,4.41-8.21,16.43-7.45Z"/>
        <path class="cls-21" d="M198.64,403.44c-25.03-7.97-26.93-21.24-26.17-35.27.76-14.04-24.65-66.37-14.79-89.13,9.86-22.75,35.64-35.65,50.81-25.41,15.17,10.24,12.51,16.68,12.51,16.68,0,0,30.46,1.17,32.99,22.76,4.55,38.68-29.61,74.74-39.44,77.36-17.5,4.67-15.92,32.99-15.92,32.99Z"/>
        <path class="cls-5" d="M251.28,284.89c-9.55,12.82-27.82,21.49-48.8,21.49-19.6,0-36.85-7.58-46.81-19.03-2.67,25.28,17.48,68.3,16.8,80.83-.76,14.03,1.14,27.3,26.17,35.27,0,0-1.57-28.32,15.92-32.99,9.83-2.63,43.99-38.69,39.44-77.36-.37-3.15-1.35-5.86-2.73-8.2Z"/>
        <path class="cls-8" d="M172.47,368.18c-.76,14.03,1.14,27.3,26.17,35.27,0,0-13.21-29.14,4.94-62.6,6.61-12.18,6.5-26.7,7.56-34.97-2.83.32-5.71.51-8.66.51-11.37,0-21.93-2.56-30.75-6.94-5.66,5.25-9.62,11.86-12.27,19.19,5.18,20.57,13.45,41.44,13.01,49.54Z"/>
        <path class="cls-17" d="M148.12,347.9c-1.03-3.83-13.15-37.63-15.19-43.06l1.28-.54s20.38,38.3,19.19,42.08c-1.19,3.77-4.38,4.81-5.27,1.52Z"/>
        <path class="cls-17" d="M139.25,400.6c2.5,21.07,23.41,52.98,23.41,52.98l-1.84.63s-25.65-30.63-27.02-52.02c-.24-3.76,4.45-10.03,5.45-1.58Z"/>
        <path class="cls-2" d="M141.84,425.97c2.03.13,4.22.74,6.45,1.75-4.26-8.99-8.05-18.89-9.03-27.13-1-8.45-5.69-2.18-5.45,1.58.47,7.38,3.83,15.85,8.03,23.79Z"/>
        <path class="cls-17" d="M149.99,393.69c1.85,21.53-1.65,68.78-1.65,68.78l-1.92.35s-1.47-45.84-2.58-65.18c-1.26-12.17,5.51-11.36,6.14-3.95Z"/>
        <path class="cls-2" d="M144.93,421.15c.27-.11.55-.19.84-.21,1.53-.12,3.08,1.08,4.53,3.29.33-11.24.37-22.63-.31-30.54-.63-7.41-7.41-8.22-6.14,3.95.34,6,.72,14.57,1.08,23.51Z"/>
        <path class="cls-23" d="M129.34,416.06s14.83-8.24,37.4-1.02c0,0-18.99-29.23-7.06-44.93,5.93-7.81,7.58-15.46,6.09-19.76-.48-1.4-10.32-9.48-13.98-7.68-3.65,1.8-32.45,26.47-22.45,73.4Z"/>
        <path class="cls-3" d="M157.65,344.03c-2.97.23-7.45,4.94-7.45,4.94l14.64.26-7.19-5.21Z"/>
        <path class="cls-18" d="M155.06,357.88c-8.1,14.95-4.79,43.72-.76,54.56,3.8.4,7.96,1.22,12.42,2.65,0,0-18.99-29.23-7.06-44.94,5.93-7.81,7.58-15.45,6.09-19.76-.17-.49-4.76-3.46-10.69,7.49Z"/>
        <path class="cls-3" d="M163.96,361.75c2.38-5.62,2.33-10.63-.12-11.19-2.45-.56-6.37,3.54-8.74,9.16-2.38,5.62-2.33,10.63.12,11.19,2.45.56,6.36-3.54,8.74-9.16Z"/>
        <path class="cls-2" d="M163.49,361.64c2.13-5.03,2.08-9.51-.11-10.01-2.19-.5-5.69,3.17-7.83,8.2-2.13,5.03-2.08,9.52.11,10.02,2.19.5,5.69-3.17,7.82-8.2Z"/>
        <path class="cls-17" d="M164.14,351.95c3.57,1.67,36.42,15.83,41.86,17.76l-.91.94s-42.37-10.14-44.5-13.47c-2.13-3.34.47-6.67,3.55-5.23Z"/>
        <path class="cls-2" d="M169.96,360.61c.63-1.86,3.24-2.87,7.02-3.05-6.34-2.74-11.54-5-12.84-5.61-3.08-1.44-6.65,2.89-4.52,6.23.59.92,5.21,1.46,10.2,3.21,0-.27.06-.53.14-.78Z"/>
        <path class="cls-7" d="M149.28,463.16h-8.38s4.8-3.6,6.08-3.5c1.28.11,2.29,3.5,2.29,3.5Z"/>
        <path class="cls-7" d="M163.66,451.94l-.8,8.34s-3.16-6.7-2.93-7.96c.23-1.26,3.73-.38,3.73-.38Z"/>
        <polygon class="cls-17" points="152.17 348.29 161.6 338.56 166.62 342.51 163.35 348.64 152.17 348.29"/>
        <path class="cls-3" d="M128.93,414.02c.13.69-.33,2.16-.18,2.87,0,0,15.4-9.02,37.98-1.8,0,0-.49-.76-1.26-2.08-19.78-6.01-33.53-.42-36.54,1.01Z"/>
        <path class="cls-16" d="M153.82,412.39c3.93.38,9.21,1.79,13.87,3.28,0,0-1.45-1.34-2.21-2.66-4.27-1.3-8.23-2.03-11.89-2.41.13.59.21,1.18.24,1.79Z"/>
        <path class="cls-15" d="M166.26,352.9s-.02-.01-.02-.02c-.07-.92-.22-1.76-.48-2.5,0-.02-.02-.04-.04-.06-.1-.23-.42-.61-.89-1.09h0l-.02-.02c-.33-.33-.72-.69-1.18-1.09l2.99-5.61-5.02-3.96-4.81,4.97c-1.54-.74-3.01-1.18-4.15-1.05-.48-1.48-1.16-3.28-1.97-5.28-1.96.89-8.69,23.72,15.58,15.71Z"/>
        <path class="cls-17" d="M161.67,341.99c-8.94-9.9-23.11-31.52,2.08-57.27,25.19-25.75,46.09-17.84,60.22-2.18,14.13,15.66,19.16,37-5.18,60.23-24.35,23.24-48.18,9.12-57.12-.78Z"/>
        <path class="cls-5" d="M220.69,277.61c-12.94-2.67-15.77,18.87-12.16,34.56,4.5,19.56-11.34,24.88-22.41,32.42-3.42,2.33,5.11,8.19,1.85,10.1,0,0,45.3,4.83,52.61-21.72,7.31-26.55-1.03-51.48-19.89-55.37Z"/>
        <path class="cls-17" d="M190.27,356.61c8.6-.49,16.48-4.9,9.92-9.43-6.55-4.53-22.22-2.98-21.8,1.42.41,4.41,5.54,8.37,11.88,8.01Z"/>
        <path class="cls-11" d="M188.89,354.69c5.12-.29,9.8-2.92,5.9-5.61-3.9-2.69-13.21-1.77-12.96.85.25,2.62,3.29,4.98,7.06,4.76Z"/>
        <path class="cls-17" d="M184.26,352.28c3.14.17,6.08-1.15,3.75-3.1-2.33-1.95-8.07-2.01-7.98-.36.09,1.66,1.91,3.34,4.23,3.46Z"/>
        <path class="cls-21" d="M252.04,288.73c-.31-12.77-20.17-14.2-29.4-14.2s-16.48,10.35-16.17,23.12c.31,12.77,8.05,23.12,17.29,23.12s28.59-19.27,28.29-32.04Z"/>
        <g>
          <path class="cls-27" d="M143.58,371.82c.76-2.79-.3-5.26-2.36-5.52-2.07-.26-4.36,1.8-5.12,4.59-.76,2.79.3,5.26,2.37,5.52,2.07.26,4.36-1.8,5.12-4.59Z"/>
          <polygon class="cls-27" points="142.24 365.4 141.52 365.15 142.67 361.82 143.39 362.06 142.24 365.4"/>
          <rect class="cls-27" x="144.29" y="366.14" width="3.56" height=".76" transform="translate(-128.35 83.03) rotate(-22.34)"/>
          <polygon class="cls-27" points="133.65 376.3 133.11 375.75 134.54 374.37 135.07 374.92 133.65 376.3"/>
          <polygon class="cls-27" points="135.08 370.98 134.07 370.93 134.1 370.17 135.11 370.22 135.08 370.98"/>
          <rect class="cls-27" x="136.57" y="378.93" width="3.53" height=".76" transform="translate(-250.84 486.81) rotate(-85.4)"/>
          <rect class="cls-27" x="135.89" y="366.59" width=".76" height="1.16" transform="translate(-255.06 351.52) rotate(-67.35)"/>
          <rect class="cls-27" x="145.85" y="371.13" width=".76" height="3.5" transform="translate(-250.5 427.9) rotate(-76.48)"/>
          <polygon class="cls-27" points="144.42 379.41 142.61 376.43 143.26 376.03 145.07 379.01 144.42 379.41"/>
        </g>
        <g>
          <path class="cls-21" d="M181.96,278.83c4.61,1.22,6.8,5.44,6.83,6.57l2.23-.44c-.06-2.01-2.94-6.68-8.05-8.05l-1.01,1.92Z"/>
          <path class="cls-21" d="M198.98,301.3c3.14,3.32,3.01,8.91,2.55,10.15l1.98.49c.83-2.24.59-8.6-2.87-12.29l-1.65,1.65Z"/>
          <path class="cls-11" d="M169.76,309.07c-.07.08-.12.16-.19.23-1.08,1.02-2.97.58-4.23-.99-.5-.63-.82-1.35-.96-2.04-.86,1.08-.67,3,.51,4.46,1.26,1.57,3.14,2,4.22.98.64-.61.85-1.6.65-2.65Z"/>
          <path class="cls-24" d="M157.99,309.48l10.19,10.83s-6.76,8.42-11.39,2.53c-4.72-6,1.2-13.36,1.2-13.36Z"/>
          <path class="cls-22" d="M166.9,320.07s-1.37,1.69-3.2,2.8l-7.21-6.86c.6-2.63,2.2-4.64,2.2-4.64l8.2,8.71Z"/>
          <path class="cls-11" d="M189.22,320.05c4.78-12.92-1.63-13.7-6.22-12.95,4,.65,7.93,3.49,6.22,12.95Z"/>
          <path class="cls-11" d="M168.05,286.72c11.47-2.38,10.17,4.89,8.23,9.81.68-4.58-.37-9.57-8.23-9.81Z"/>
        </g>
        <path class="cls-17" d="M137.37,301.23c.37-1.09.47-2.47.06-2.78-.35-.27-.42.76-.78,1.44-.32.62-.42.84-.57.69-.09-.09.17-1,.42-2.03.32-1.29.35-2.24-.06-2.55-.4-.27-.43.67-.83,1.76-.35.95-.46,1.42-.87,1.13-.2-.12-.03-.82.05-1.98.09-1.33-.13-2.27-.47-2.4-.5-.17-.18.59-.46,2.02-.37,1.92-.19,2.54-1.02,3.12-.77.53-.86-3.4-1.63-3.09-1.01.43.85,7.78,2.12,8.59,1.82,1.17,2.86-.47,4.05-3.94Z"/>
        <path class="cls-17" d="M205.25,374.72c.67.95,1.72,1.84,2.22,1.7.42-.13-.37-.79-.71-1.49-.31-.62-.43-.83-.22-.87.13-.02.71.73,1.39,1.54.85,1.03,1.6,1.61,2.09,1.46.45-.17-.29-.74-.93-1.71-.57-.85-.88-1.21-.4-1.37.22-.08.67.46,1.57,1.21,1.02.86,1.91,1.23,2.21,1.03.43-.29-.37-.49-1.36-1.57-1.33-1.43-1.94-1.66-1.91-2.66.02-.94,3.25,1.31,3.45.5.25-1.06-6.79-3.9-8.19-3.36-2.02.78-1.31,2.59.8,5.59Z"/>
      </g>
    </g>
  </g>
</svg>