<?xml version="1.0" encoding="UTF-8"?>
<svg id="Layer_1" data-name="Layer 1" xmlns="http://www.w3.org/2000/svg" version="1.1" viewBox="0 0 500 500">
  <defs>
    <style>
      .cls-1 {
        fill: #000;
      }

      .cls-1, .cls-2 {
        stroke-width: 0px;
      }

      .cls-2 {
        fill: #fff;
      }
    </style>
  </defs>
  <path class="cls-1" d="M393.2,272.7c-.5-59.2-36-111.7-90.7-134.4-2.4-1-4.9-1.8-7.3-3-4-2.1-5.7-5.4-4.2-9.8,1.6-4.5,5.1-5.8,9.5-4.8,2.5.6,5,1.6,7.4,2.6,43.8,18.5,74.3,49.9,91.1,94.4,1.9,5.1,4,7.9,10.1,8.8,23,3.4,39.5,23.5,39.6,46.9,0,23.2-15.9,42.9-38.8,46.9-6.1,1.1-9,3.5-11.2,9.4-23.5,64.1-84.3,106.1-152.8,105.7-67.6-.3-128.2-43.3-151.1-107.3-1.7-4.8-4-6.6-9-7.4-24.4-4.1-40.8-24.2-40.3-48.4.6-23.8,18-43.3,42-46.2,5-.6,5.8-3.5,7.1-7,22.7-58.3,64.7-93.7,126.2-105.3,8.3-1.6,16.9-1.7,25.4-2.2,12.5-.7,21.6-9.1,22.1-20.7.4-11-8.3-20.9-19.4-21.9-11.6-1.1-21.2,7.1-23.1,19.4-1.1,7-4.1,10.2-9,9.5-5-.7-7.3-4.9-6.7-11.7,1.9-19.6,19.2-34.4,38.8-33.3,19.8,1.1,35.2,17.4,35.2,37.1,0,20.1-15.5,36.7-35.8,37.1-31.3.5-59.9,9-85.6,27.1-48,33.7-71.2,93.9-58.2,151.3,13.2,58,60.4,102.6,118.7,112,89.3,14.4,170.4-54.9,169.6-144.9ZM407.8,303.9c15.2-1.8,26.8-17.5,25-34-1.6-14.4-14.5-27.5-25-26.4v60.4ZM86.6,243.1c-14.3,1.8-25.3,15.3-25.1,30.9.2,15.3,11.7,28.8,25.1,29.9v-60.8Z"/>
  <path class="cls-1" d="M247.2,373.7c-15.9-.3-30-5.5-42.4-15.2-4.2-3.2-6-7.3-2.5-11.9,3.4-4.5,7.8-4.4,12-.9,19.2,15.6,46,16,66,0,4.2-3.3,8.7-3.7,12,.9,3.4,4.6,1.5,8.7-2.6,11.9-12.5,9.7-26.6,14.9-42.4,15.1Z"/>
  <path class="cls-1" d="M184.2,229.7c11.2.2,21.1,4.1,29.3,12.2,3.8,3.7,5.8,7.9,1.7,12.6-3.3,3.8-7.6,3.4-12.5-.9-12.1-10.6-25.7-10.5-37.7.1-4.8,4.2-9.5,4.8-12.6,1.1-4-4.7-2.3-8.9,1.5-12.7,8.3-8.2,18.3-12.4,30.3-12.5Z"/>
  <path class="cls-1" d="M311.5,229.7c10.8,0,20.8,4.2,29.1,12.5,4.4,4.4,4.9,9.3,1.2,12.7-4.2,3.8-8.2,2.6-12.1-1-12.3-11-25.7-10.9-38,.2-3.9,3.5-7.9,4.8-12.2,1-3.7-3.3-3.2-8.3,1.2-12.7,8.2-8.3,18.2-12.6,30.9-12.7Z"/>
  <path class="cls-2" d="M407.8,303.9v-60.4c10.4-1.2,23.3,12,25,26.4,1.9,16.6-9.8,32.2-25,34Z"/>
  <path class="cls-2" d="M86.6,243.1v60.8c-13.4-1.2-24.9-14.6-25.1-29.9-.2-15.6,10.8-29,25.1-30.9Z"/>
</svg>