<?xml version="1.0" encoding="UTF-8"?>
<svg id="Layer_1" data-name="Layer 1" xmlns="http://www.w3.org/2000/svg" version="1.1" viewBox="0 0 500 500">
  <defs>
    <style>
      .cls-1 {
        fill: #000;
      }

      .cls-1, .cls-2 {
        stroke-width: 0px;
      }

      .cls-2 {
        fill: #fff;
      }
    </style>
  </defs>
  <path class="cls-1" d="M376.98,317.99c-6.21-3.01-11.48-5.57-17.22-8.36-28.91,34.22-65.95,52.4-111.12,52.32-44.9-.08-82.22-18.12-112.8-50.93-2.58,3.56-4.38,6.54-6.67,9.06-2.14,2.36-4.8,4.24-7.24,6.34,9.65,22.21,7.1,34.85-9.71,48.08,2.07,5.1,5.96,10.26,5.8,15.28-.27,8.27-2.08,16.91-5.27,24.55-2.92,7-9.77,11.01-17.91,9.44-8.22-1.59-11.92-8.15-13.28-15.6-2.71-14.82,1.85-27.01,15.57-35.97-6.59-7.81-8.64-16.62-6.94-26.38,1.71-9.82,6.95-17.22,15.14-22.58-9.18-16.67-8.35-31.62,5.45-45.04,1.03-1,1.47-3.55,1-4.99-2.88-8.91-6.11-17.71-9.39-27.03-7,3.19-12.67,1.36-16.82-4.7-6.47-9.46-8.65-19.74-6-32.47,9.31,8.78,18.75,7.03,28.07,3.69,21.55-7.73,40.38-20.31,57.77-34.75,16.67-13.84,32.22-29.04,48.38-43.75,4.84,7.71,10,16.82,16.05,25.29,4.97,6.96,10.53,13.65,16.67,19.59,8.73,8.44,15.21,6.01,17.89-6.02.83-3.73,1.64-7.47,2.69-12.3,12.56,15.07,11.1,38.83,33.54,43.68-3.33,3.16-7.95,5.58-8.98,9.06-1.13,3.83.56,8.79,1.87,12.99,2.38,7.64,8.18,5.56,13.23,3.58,7.75-3.04,9.18-9.76,4.74-22.01,32.4,6.97,63.64,18.76,97.14,16.4,2.52,18.39-7.02,30.52-22.23,28.08-1.66,5.62-3.58,11.21-4.84,16.95-.43,1.97.14,4.85,1.39,6.4,7.72,9.6,11.31,20.05,7.69,32.16,22.89,10.75,28.57,20.88,24.83,44.44,14.28,3.25,22.58,12.63,25.67,26.7,2.05,9.35-1.05,17.79-7.36,21.47-5.86,3.42-14.62,1.91-21.51-4.4-10.6-9.7-14.83-21.45-10.8-33.85-7.41-6.45-15.08-11.7-20.85-18.54-6.23-7.39-6.38-16.87-3.64-25.87ZM311.38,262.91c-.83.33-1.45.4-1.78.74-.73.76-1.49,1.58-1.92,2.53-10.99,24.04-30.95,35.16-56.1,37.21-30.33,2.47-56.83-5.81-76.25-31.01-2.01-2.61-5.14-4.35-7.74-6.5.55,3.63-.05,8.11,1.88,10.72,4.58,6.19,9.65,12.48,15.79,16.98,27.77,20.35,58.38,24.76,90.79,13.27,16.87-5.98,29.35-17.53,37.06-33.9,1.78-3.78,3.19-7.55-1.73-10.04ZM191.31,219.44c-1.76-6.18-7.83-9.28-14.72-7.51-6.84,1.75-9.75,7.62-7.54,15.2,1.97,6.74,9.99,11.14,16.55,9.08,4.41-1.38,7.5-10.47,5.7-16.77Z"/>
  <path class="cls-1" d="M214.24,119.9c-22.28,32.63-51.97,55.84-84.59,75.49-9.54,5.75-20.26,9.93-30.93,13.28-10.04,3.15-15.59-1.17-14.48-11.7,1.45-13.76,3.23-27.96,8-40.81,14.2-38.19,37.44-70.04,71.67-93.01,13.66-9.16,28.54-14.95,45.47-13.9,2.21.14,4.84-.7,6.71-1.93,27.29-18.07,55.28-17.06,83.4-2.67,33.87,17.33,58.04,44.89,77.85,76.53,15.82,25.27,28.23,52.01,30.7,82.34.2,2.4-.03,4.84.17,7.24.47,5.88-2.29,8.71-8.03,8.28-8.29-.62-16.75-.71-24.81-2.51-23.86-5.34-47.5-11.67-71.35-17.05-9.79-2.21-15.15-8.14-18.9-16.82-3.52-8.13-7.33-16.18-11.76-23.83-1.65-2.85-5.43-4.46-8.24-6.64-1.55,2.95-3.47,5.76-4.53,8.87-1.02,3.01-.86,6.42-1.77,9.49-.7,2.4-2.24,4.55-3.4,6.81-2.27-1.25-5.34-1.93-6.69-3.83-10.04-14.22-19.83-28.63-29.49-43.11-2.01-3.01-3.18-6.58-5.03-10.52Z"/>
  <path class="cls-1" d="M87.49,431.92c2.9.88,4.84,1.47,6.54,1.98.25.95.6,1.51.49,1.94-2.31,8.48-4.45,17.01-7.2,25.34-.57,1.74-3.45,2.71-5.26,4.04-.82-2.08-2.7-4.41-2.27-6.18,2.2-8.98,4.99-17.81,7.7-27.12Z"/>
  <path class="cls-1" d="M478.04,416.18c-8.36-3.58-16.66-7.29-25.09-10.7-5.82-2.35-4.76-5.28-.96-9.39,8.56,3.69,17.27,7.11,25.59,11.31,1.82.92,2.23,4.64,3.29,7.07-.94.57-1.89,1.14-2.83,1.7Z"/>
  <path class="cls-1" d="M435.85,411.19c2.81-1.18,4.71-1.98,7.42-3.12,4.51,10.06,8.86,19.74,13.17,29.35-4.31,4.31-7.16,4.26-9.44-1.09-3.45-8.12-7.14-16.13-11.15-25.14Z"/>
  <path class="cls-1" d="M122.3,461.98c-2.5-.81-6.31-.86-7.29-2.55-4.66-8.08-8.55-16.61-12.91-25.38,2.31-1.36,4.09-2.4,6.91-4.06,5.02,10.04,9.85,19.73,14.69,29.43-.47.85-.94,1.71-1.41,2.56Z"/>
  <path class="cls-1" d="M429.99,412.21c-.55,11.04-1.08,21.61-1.6,31.91-6.31,1.51-8.32-.63-7.93-6,.53-7.17.78-14.37.99-21.57.17-5.78,2.94-6.76,8.53-4.34Z"/>
  <path class="cls-1" d="M76.5,423.06c5.52,2.71,6.68,5.33,2.52,9.47-5.12,5.09-9.82,10.61-14.81,15.84-4.11,4.3-4.18,4.23-9.45-1.64,7.11-7.74,14.27-15.54,21.74-23.67Z"/>
  <path class="cls-2" d="M311.38,262.91c4.92,2.49,3.51,6.26,1.73,10.04-7.71,16.37-20.19,27.92-37.06,33.9-32.42,11.49-63.02,7.08-90.79-13.27-6.15-4.5-11.21-10.79-15.79-16.98-1.93-2.61-1.33-7.09-1.88-10.72,2.61,2.15,5.73,3.89,7.74,6.5,19.42,25.21,45.92,33.48,76.25,31.01,25.16-2.05,45.11-13.17,56.1-37.21.43-.94,1.19-1.76,1.92-2.53.33-.35.95-.41,1.78-.74Z"/>
  <path class="cls-2" d="M191.31,219.44c1.8,6.3-1.29,15.39-5.7,16.77-6.56,2.06-14.59-2.35-16.55-9.08-2.21-7.58.69-13.45,7.54-15.2,6.89-1.77,12.96,1.33,14.72,7.51Z"/>
</svg>