<?xml version="1.0" encoding="UTF-8"?>
<svg xmlns="http://www.w3.org/2000/svg" version="1.1" xmlns:xlink="http://www.w3.org/1999/xlink" viewBox="0 0 500 500">
  <defs>
    <style>
      .cls-1 {
        fill: url(#linear-gradient);
      }

      .cls-1, .cls-2, .cls-3, .cls-4, .cls-5, .cls-6, .cls-7, .cls-8, .cls-9, .cls-10 {
        stroke-width: 0px;
      }

      .cls-2, .cls-6, .cls-9 {
        fill: #c1272d;
      }

      .cls-3 {
        opacity: .4;
      }

      .cls-3, .cls-11, .cls-6, .cls-9 {
        isolation: isolate;
      }

      .cls-3, .cls-5 {
        fill: #ee4748;
      }

      .cls-3, .cls-6 {
        mix-blend-mode: screen;
      }

      .cls-4 {
        fill: #f39830;
      }

      .cls-12 {
        opacity: .5;
      }

      .cls-12, .cls-9, .cls-13 {
        mix-blend-mode: multiply;
      }

      .cls-7 {
        fill: #00578f;
      }

      .cls-8 {
        fill: #fdcc2a;
      }

      .cls-10 {
        fill: #fff;
      }
    </style>
    <linearGradient id="linear-gradient" x1="1902.9" y1="407.7" x2="1902.9" y2="41" gradientTransform="translate(-1751 500) scale(1 -1)" gradientUnits="userSpaceOnUse">
      <stop offset="0" stop-color="#97c93c"/>
      <stop offset=".2" stop-color="#447f3c"/>
      <stop offset=".3" stop-color="#447537"/>
      <stop offset=".4" stop-color="#45622e"/>
      <stop offset=".4" stop-color="#5e8132"/>
      <stop offset=".5" stop-color="#87b539"/>
      <stop offset=".6" stop-color="#97c93c"/>
      <stop offset=".7" stop-color="#447f3c"/>
      <stop offset=".8" stop-color="#447537"/>
      <stop offset=".9" stop-color="#45622e"/>
      <stop offset=".9" stop-color="#5e8132"/>
      <stop offset="1" stop-color="#87b539"/>
      <stop offset="1" stop-color="#97c93c"/>
    </linearGradient>
  </defs>
  <g class="cls-11">
    <g id="Layer_1" data-name="Layer 1">
      <circle class="cls-10" cx="250" cy="255.6" r="199.1"/>
      <g>
        <g>
          <path class="cls-8" d="M389,294c-3.6-61.1-11.4-214.9-24.3-239.3-3.7-7.1-8-9.8-11.9-10.1-.7,0-7.1.3-7.7.3-10.5,7.4-15.6,28.8-23,80.8-9.8,68.9-11.8,242.8-12.5,251.7-.3,4.5,8.4,6.5,16.2,6.7,10.1.3,22.9,1.6,23.4-6,.6-7.4-1.4-173.7-.6-202.1.9-28.4,4.7-79.5,6.5-17.8,1.8,61.8,8.9,206.3,8.9,206.3,0,0,.9,15.2.9,22.2s5.3,8.1,17.6,9.1c2.4.1,4.8.4,6.8.4,4.4-12.1,2.4-51.6-.6-102.5v.3Z"/>
          <path class="cls-4" d="M383.1,294c-3.6-61.1-11.4-214.9-24.3-239.3-4.4-8.4-9.4-10.7-14.1-10.1-10.5,7.4-21.3,29-28.7,81.1-9.8,68.9-11.8,242.8-12.5,251.7-.3,4.5,8.4,6.5,16.2,6.7,10.1.3,22.9,1.6,23.4-6,.6-7.4-1.4-173.7-.6-202.1.9-28.4,4.7-79.5,6.5-17.8,1.8,61.8,8.9,206.3,8.9,206.3,0,0,.9,15.2.9,22.2s5.3,8.1,17.6,9.1c2.4.1,4.8.4,6.8.4,4.4-12.1,2.4-51.6-.6-102.5l.3.3Z"/>
          <path class="cls-4" d="M383.1,294c-3.6-61.1-11.4-214.9-24.3-239.3-4.4-8.4-9.4-10.7-14.1-10.1-10.5,7.4-21.3,29-28.7,81.1-9.8,68.9-11.8,242.8-12.5,251.7-.3,4.5,8.4,6.5,16.2,6.7,10.1.3,22.9,1.6,23.4-6,.6-7.4-1.4-173.7-.6-202.1.9-28.4,4.7-79.5,6.5-17.8,1.8,61.8,8.9,206.3,8.9,206.3,0,0,.9,15.2.9,22.2s5.3,8.1,17.6,9.1c2.4.1,4.8.4,6.8.4,4.4-12.1,2.4-51.6-.6-102.5l.3.3Z"/>
          <path class="cls-2" d="M294.5,149.2s50.3.6,57.1.6,11.1,3.6,10.9,9.8c-.1,8.8-7.2,7.8-19.3,8-12.1.1-46.9,0-46.9,0l-2-18.3h.1Z"/>
          <g class="cls-13">
            <path class="cls-2" d="M303.8,152.9v-3.6h-9.2l2,18.3h7.2v-14.6h0Z"/>
          </g>
          <g>
            <path class="cls-2" d="M287.3,81.4s5.4,3.7,27.4,3.3c22-.4,27.3-3.8,30.5-5.7,3.3-1.7,8.9,1.1,11.4,9.1,4.4,14.6,6.1,23.7-11.8,24.1-17.8.4-51.4-.1-51.4-.1l-6.2-30.7h.1Z"/>
            <path class="cls-2" d="M287.3,81.4s5.4,3.7,27.4,3.3c22-.4,27.3-3.8,30.5-5.7,3.3-1.7,8.9,1.1,11.4,9.1,4.4,14.6,6.1,23.7-11.8,24.1-17.8.4-51.4-.1-51.4-.1l-6.2-30.7h.1Z"/>
            <path class="cls-9" d="M301.1,105.1c-1.1-7.2-2.8-14.6-6.1-21.3v-.3c-5.8-1-7.5-2.3-7.5-2.3l6.2,30.7h8.7c-.3-2.4-.6-4.7-1-7.1l-.3.3Z"/>
            <path class="cls-6" d="M304.5,85.9s22.6.7,34.4-2.1c11.8-3.1,16.6,1.8-7.7,5.5-14.3,2.1-37.4-.9-26.7-3.6h0Z"/>
          </g>
          <g>
            <path class="cls-2" d="M297.5,212.3s52.1.1,56.5.1,10.7.7,10.4,9.2c-.1,8.5-11.9,7.4-24.3,7.2-12.4-.1-42.5-.6-42.5-.6v-16h-.1Z"/>
            <path class="cls-9" d="M304.6,215.6v-3.1h-7.1v16h7.2v-13.1h-.1Z"/>
            <path class="cls-6" d="M313.3,213.3h39.2c6.5,0,6.2,3.8-13.1,4.4-19.3.6-42.5-3-26.1-4.4Z"/>
            <path class="cls-6" d="M308.3,152.1h39.2c6.5,0,6.2,3.8-13.1,4.4-19.3.6-42.5-3-26.1-4.4Z"/>
          </g>
          <g>
            <path class="cls-2" d="M297.1,269.7s58.1.3,62.6.3c8.1,0,10.8,3.8,10.8,8.7s-2.8,7.4-12.1,7.4h-60.5l-.9-16.5h0Z"/>
            <path class="cls-9" d="M304.9,269.7h-7.8l.9,16.5h7v-16.3h0Z"/>
            <path class="cls-6" d="M310.6,272.2s32.4-.9,43.3-.6c10.9.3,8.7,3.3-7.1,4.1-15.8.9-58.5-1.1-36.2-3.6Z"/>
          </g>
          <g>
            <path class="cls-2" d="M297.1,336.4s41.3.6,53.8.6,21.2,1.3,21.2,9.2-8.5,8.4-16.6,8.4h-57.2l-1.1-18.2Z"/>
            <path class="cls-9" d="M304.5,336.6h-7.5l1.1,18.2h6.4c-.1-6-.1-12.1,0-18.2Z"/>
            <path class="cls-6" d="M315,339s32.4-.9,43.3-.6c10.9.3,8.7,3.3-7.1,4.1-15.8.9-58.5-1.1-36.2-3.6Z"/>
          </g>
        </g>
        <path class="cls-8" d="M295.8,140.4c-2.7-55.5-15.1-98.6-44.9-98.6s-9.5,1.4-14.2,4.8c3.3-1,6.8-1.4,10.7-.9,17.8,2.7,34.7,42.2,35.9,124.4,1.1,66.9-1.4,182.9-2.3,223.8l1.8,4s14.6,4,15.1-8.9c.4-12.9.4-193.1-2.3-248.7h.1Z"/>
        <g>
          <path class="cls-4" d="M283.3,170.3c-1.3-82.2-18.2-121.7-35.9-124.4-3.8-.6-7.4-.1-10.7.9-10.9,8.1-21.2,27.4-25.7,67.6-6.7,57.2-6.2,115-6.2,115l28.3,61.1c1-41.2,4.7-162.8,11.6-164.6,7-1.8,8,154.7,8,207.1l28.4,61.2c1-40.9,3.4-156.9,2.3-223.8h0Z"/>
          <path class="cls-8" d="M243.3,117.6c-2-1-3.4-.6-5,1.3-2.3,6.8-4.1,19.5-6.2,41.5-2.3,24-5.1,78.1-6.8,113.8l7.7,16.5c1-41.2,4.7-162.8,11.6-164.6.9-.3,1.7,2.1,2.4,6.7,0-2-.9-13.5-3.8-15.1h.1Z"/>
        </g>
        <path class="cls-5" d="M295.4,403.5c-28-16.9-29.3-38.6-29.3-76s-33.4-78.1-59.9-120.9c-22.6-36.2-4-65.6,2.1-73.7,1-4.4,2-8.9,2.4-13.5,0-.4.1-.9.3-1.3.3-2.8.6-5.7,1-8.5.6-6.4,1.6-12.6,2.8-18.9-72,15.3-105.7,54-114.9,74.3-9.4,20.5-3.1,68.5,23.6,96,26.7,27.6,28.8,50.7,30.2,62.2,1.3,11.5-.9,32.8,5.8,55.5s29.3,32,43,40.5c13.8,8.4,8.4,24.9,17.3,26.3,8.9,1.3,63.5.4,79.5-.4,16-.9,19-5.3,19.6-8,2.3-14.1.9-17.8-23.6-33.4v-.3Z"/>
        <path class="cls-3" d="M142.9,165.6c16.5,3.8,35.5,4.4,52.5-.3,1.6-16,9.2-27.8,12.8-32.4,1-4.4,2-8.9,2.4-13.5,0-.4.1-.9.3-1.3.3-2.8.6-5.7,1-8.5.6-6.4,1.6-12.6,2.8-18.9-57.4,12.2-90.5,39.2-106.2,59.9,10.2,7.2,22.3,12.2,34.2,14.9h.1Z"/>
        <g class="cls-12">
          <path class="cls-7" d="M212.6,103.9c.6-4.4,1.3-8.8,2.3-13.2-72,15.3-105.7,54-114.9,74.3-8.5,18.6-4.1,60.1,16.9,88-36.6-101.1,70.4-141.9,95.9-149.1h-.1Z"/>
          <path class="cls-7" d="M295.4,403.5c-28-16.9-29.3-38.6-29.3-76s-33.4-78.1-59.9-120.9c-22.6-36.2-4-65.6,2.1-73.7.7-3,1.3-6.1,1.8-9.1-19.3,20.5-43.9,61.4-11.5,120.1,39.2,63.2,42.9,60.9,49.4,106.8,5.8,40.6,15.1,72.1,64.5,91.9,5-1.7,6.2-4.1,6.5-5.8,2.3-14.1.9-17.8-23.6-33.4h-.1Z"/>
          <path class="cls-1" d="M151.8,310.7c0,.4.1.9.3,1.3v-1.4h-.3Z"/>
        </g>
        <path class="cls-8" d="M194.1,417.1c-12.2-4.3-27.4-12.8-35.8-27.8-3.3-5.7-5.4-12.4-6.1-20-2.4-27.8-2.4-41.5-4.3-57.7-2-16-20.3-39.9-31.4-52.1-.1-.3-.4-.4-.6-.7-9.2-10.2-25.7-29.3-27-63.2-2.7,30.4,12.1,81.7,29.7,106.9,26.3,37.9-6.5,82.4,38.5,122.3,5.3,4.7,11.2,9.2,19.3,12.2,12.1,4.4,30.4,11.2,44,13.2-2-7.7-13.2-28.8-26.3-33.4v.3Z"/>
        <path class="cls-2" d="M322.4,427.5c-1.7-19.6-16-16.9-29.3-29.3-6.4-6-12.2-12.9-16.5-22.3-4.4-10.1-7-22.9-6.2-40.8,1.3-34.7-8.9-56.8-29.8-86.2-1.4-2-2.8-4-4.4-6-21-28.7-51.4-69.7-28-102.1.9-3.7,1.1-9.7,1.3-13.1-5.8,4.4-13.9,13.6-18.6,29.8-6.2,22.2,17.9,61.6,37.4,90.5,5.1,7.7,9.9,14.5,13.8,20.2,18.2,26.7,20.9,49.3,20,79.5-.4,13.2,2.6,24.3,7.2,33.2,5.8,11.5,14.3,19.5,21.6,23.4,12.8,7.1,23,14.1,24.3,21.7,1.3,7.8,1.7,16.2-12.5,16.2s-48.7,1.3-65.9,1.3-16-3.8-18.3-11.5c-2.4-7.7-9.2-17.5-27-24-10.9-4-20.3-9.4-26.4-23.3-3.8-8.7-6.4-20.6-7.4-37.8-1.4-27.3,3-52.1-24.3-80-4.3-4.3-8.2-8.9-11.9-13.8-20-26.1-31.1-59.2-16.3-88.9.1-.3.3-.6.4-.9,15.2-29.4,43.5-46.6,68.2-56.5,17-6.8,32.4-10.2,40.5-11.8.4-2.3.9-4.5,1.4-6.7-6.7.9-25.7,4.1-47,12.8-26,10.5-55.5,29.1-70.7,61.5-1.3,2.7-2.4,5.4-3.6,8.4-2.7,7.4-4.4,15.9-5.3,25,1.3,33.9,17.8,52.8,27,63.2.1.3.4.4.6.7,10.9,12.2,29.4,36.1,31.4,52.1s2,29.8,4.3,57.7c.7,7.7,2.8,14.3,6.1,20,8.4,14.9,23.7,23.6,35.8,27.8,13.1,4.5,18.9,22.2,20.7,29.7,4.7,8.7,46.2,6.2,72.4,4.5,33.4-2.3,36.9-4.4,35.1-23.9v-.7Z"/>
      </g>
    </g>
  </g>
</svg>