<?xml version="1.0" encoding="UTF-8"?>
<svg xmlns="http://www.w3.org/2000/svg" version="1.1" viewBox="0 0 500 500">
  <defs>
    <style>
      .cls-1 {
        fill: #9b9523;
      }

      .cls-1, .cls-2, .cls-3, .cls-4, .cls-5, .cls-6, .cls-7, .cls-8, .cls-9, .cls-10, .cls-11, .cls-12, .cls-13, .cls-14, .cls-15, .cls-16, .cls-17, .cls-18, .cls-19, .cls-20, .cls-21, .cls-22, .cls-23, .cls-24, .cls-25, .cls-26, .cls-27, .cls-28, .cls-29, .cls-30, .cls-31 {
        stroke-width: 0px;
      }

      .cls-2 {
        fill: #ff9945;
      }

      .cls-3 {
        fill: #614bbf;
      }

      .cls-4 {
        fill: #6b479e;
      }

      .cls-5 {
        fill: #f76fc0;
      }

      .cls-32 {
        isolation: isolate;
      }

      .cls-6 {
        fill: #603b3b;
      }

      .cls-7 {
        fill: #f9b741;
      }

      .cls-8 {
        fill: #7ccbd8;
      }

      .cls-9 {
        fill: #d3c840;
      }

      .cls-10 {
        fill: #bcb82f;
      }

      .cls-11 {
        fill: #e84da2;
      }

      .cls-12 {
        fill: #d1d143;
      }

      .cls-13 {
        fill: #9e3c69;
      }

      .cls-14 {
        fill: #ffc466;
      }

      .cls-15 {
        fill: #632a2a;
      }

      .cls-16 {
        fill: #c1b933;
      }

      .cls-17 {
        fill: #ffb93e;
      }

      .cls-18 {
        fill: #f969bf;
      }

      .cls-19 {
        fill: #65b9c1;
      }

      .cls-20 {
        fill: #562c41;
      }

      .cls-21 {
        fill: #a3a02e;
      }

      .cls-22 {
        fill: #9b3e3e;
      }

      .cls-23 {
        fill: #efeb60;
      }

      .cls-24 {
        fill: #ffd45a;
      }

      .cls-25 {
        fill: #c0b9ed;
      }

      .cls-26 {
        fill: #ffd45c;
      }

      .cls-27 {
        fill: #f7574b;
      }

      .cls-28 {
        fill: #75274e;
      }

      .cls-29 {
        fill: #795ecc;
      }

      .cls-30 {
        fill: #ff6464;
      }

      .cls-31 {
        fill: #cec741;
      }
    </style>
  </defs>
  <g id="Layer_1" data-name="Layer 1">
    <g class="cls-32">
      <g id="Layer_2" data-name="Layer 2">
        <circle class="cls-25" cx="252.46" cy="240" r="197.5"/>
      </g>
    </g>
  </g>
  <g id="Layer_2-2" data-name="Layer 2">
    <g>
      <polygon class="cls-4" points="285.44 169.16 287.64 169.16 295.17 240 288.58 240 285.44 169.16"/>
      <rect class="cls-20" x="202.52" y="231.47" width="126.58" height="7.54"/>
      <rect class="cls-6" x="63.06" y="319.44" width="20.57" height="9.18"/>
      <rect class="cls-6" x="137.74" y="319.44" width="20.57" height="9.18"/>
      <rect class="cls-6" x="190.58" y="323.45" width="4.71" height="9.18"/>
      <rect class="cls-6" x="252.46" y="323.45" width="4.72" height="9.18"/>
      <rect class="cls-6" x="286.7" y="323.45" width="4.71" height="9.18"/>
      <rect class="cls-6" x="348.73" y="323.45" width="4.71" height="9.18"/>
      <rect class="cls-6" x="366.63" y="319.68" width="19.63" height="9.18"/>
      <rect class="cls-6" x="431.38" y="319.68" width="18.71" height="9.18"/>
      <polygon class="cls-6" points="352.85 315.75 349.4 315.75 350.42 339.36 351.6 339.36 352.85 315.75"/>
      <polygon class="cls-6" points="291.13 315.75 287.68 315.75 288.7 339.36 289.88 339.36 291.13 315.75"/>
      <polygon class="cls-6" points="256.57 315.75 253.11 315.75 254.14 339.36 255.31 339.36 256.57 315.75"/>
      <polygon class="cls-6" points="194.85 315.75 191.39 315.75 192.41 339.36 193.59 339.36 194.85 315.75"/>
      <polygon class="cls-6" points="451.98 315.75 449.07 315.75 449.93 339.36 450.93 339.36 451.98 315.75"/>
      <polygon class="cls-6" points="433.74 315.75 429.84 315.75 430.99 339.36 432.32 339.36 433.74 315.75"/>
      <polygon class="cls-6" points="388.49 315.75 385.03 315.75 386.05 339.36 387.23 339.36 388.49 315.75"/>
      <polygon class="cls-6" points="368.71 315.75 365.25 315.75 366.27 339.36 367.45 339.36 368.71 315.75"/>
      <polygon class="cls-6" points="159.62 315.75 156.17 315.75 157.19 339.36 158.36 339.36 159.62 315.75"/>
      <polygon class="cls-6" points="139.84 315.75 136.39 315.75 137.41 339.36 138.59 339.36 139.84 315.75"/>
      <polygon class="cls-6" points="85.04 315.75 81.58 315.75 82.6 339.36 83.78 339.36 85.04 315.75"/>
      <polygon class="cls-6" points="65.26 315.75 61.8 315.75 62.83 339.36 64 339.36 65.26 315.75"/>
      <path class="cls-26" d="M452.93,262.46h-8.24v62.96c4.22,0,7.68-.33,9.42-.33,34.63,0,32.04-62.63-1.18-62.63Z"/>
      <path class="cls-7" d="M468.72,268.6c-3.37,2.56-8.46,4.19-14.15,4.19-3.65,0-7.04-.67-9.9-1.83v54.46c4.22,0,7.68-.33,9.42-.33,27.93,0,31.64-40.71,14.62-56.49Z"/>
      <rect class="cls-20" x="205.58" y="168.67" width="120.85" height="4.92"/>
      <polygon class="cls-4" points="325.8 164.57 327.99 164.57 334.74 240 328.14 240 325.8 164.57"/>
      <rect class="cls-29" x="205.19" y="160.96" width="40.04" height="11.15"/>
      <polygon class="cls-29" points="245.94 169.16 243.74 169.16 241.46 240 248.06 240 245.94 169.16"/>
      <polygon class="cls-29" points="207.55 169.16 205.35 169.16 199.69 240 206.29 240 207.55 169.16"/>
      <path class="cls-5" d="M445.03,262.21c-.79,0-1.57.09-2.33.24h-58.33v62.96h60.32c.11,0,.22,0,.34,0,10.47,0,18.97-14.15,18.97-31.6s-8.49-31.6-18.97-31.6Z"/>
      <path class="cls-11" d="M457.62,270.19c-7.4,2.45-20.77,4.08-36.03,4.08-16.12,0-30.12-1.82-37.22-4.5v55.65h60.32c.11,0,.22,0,.34,0,10.47,0,18.97-14.15,18.97-31.6,0-9.4-2.47-17.84-6.38-23.63Z"/>
      <path class="cls-29" d="M403.46,293.82c0-17.45-8.49-31.6-18.96-31.6-.79,0-1.57.09-2.33.24h-62.57v62.96h67.14v-.22c9.42-1.85,16.73-15.19,16.73-31.38Z"/>
      <path class="cls-3" d="M397.09,270.2c-4.72,2.41-14.23,3.33-24.98,2.04-12.69-1.52-23.03-5.61-25.59-9.78h-26.92v62.96h67.14v-.22c9.42-1.85,16.73-15.19,16.73-31.38,0-9.39-2.46-17.83-6.37-23.62Z"/>
      <path class="cls-29" d="M389.68,321.28c0-1.17-9.53-2.12-21.28-2.12s-21.29.95-21.29,2.12,9.53,2.12,21.29,2.12,21.28-.95,21.28-2.12Z"/>
      <path class="cls-18" d="M446.8,320.97c0-1.34-10.4-2.43-23.23-2.43s-23.22,1.09-23.22,2.43,10.4,2.44,23.22,2.44,23.23-1.09,23.23-2.44Z"/>
      <polygon class="cls-30" points="340.69 234.75 250.34 237.86 253.09 330.34 361.13 330.34 340.69 234.75"/>
      <polygon class="cls-27" points="260.5 243.48 342.03 241.02 340.69 234.75 244.45 234.75 253.09 330.34 262.91 330.34 260.5 243.48"/>
      <polygon class="cls-26" points="248.69 234.75 194.04 234.75 188.15 330.35 260.94 330.34 248.69 234.75"/>
      <polygon class="cls-2" points="238.74 264.27 191.92 269.04 202.75 324.44 227.72 330.34 260.94 330.34 253.75 274.25 238.74 264.27"/>
      <path class="cls-8" d="M231.61,262.21c-.79,0-1.56.09-2.33.24h-49.14v62.96h51.47c10.47,0,18.96-14.15,18.96-31.6s-8.49-31.6-18.96-31.6Z"/>
      <path class="cls-19" d="M243.2,268.81c-5.83,5.03-19.6,8.57-35.66,8.57-10.71,0-20.41-1.57-27.4-4.11v52.15h51.47c10.47,0,18.96-14.15,18.96-31.6,0-10.18-2.89-19.22-7.37-25Z"/>
      <rect class="cls-4" x="205.27" y="163.75" width="84.49" height="5.41"/>
      <rect class="cls-4" x="243.59" y="160.96" width="84.49" height="11.15"/>
      <polygon class="cls-12" points="329.41 160.21 324.51 160.21 268.35 89.06 264.2 89.06 208.05 160.21 203.15 160.21 199.38 166.54 333.18 166.54 329.41 160.21"/>
      <polygon class="cls-10" points="333.18 166.54 329.41 160.21 324.51 160.21 268.35 89.06 266.78 89.06 243.79 159.12 246.8 159.12 245.36 166.54 333.18 166.54"/>
      <polygon class="cls-1" points="247.07 158.91 266.83 89.06 266.71 89.06 242.53 159.12 245.55 159.12 244.1 166.54 249.05 166.54 250.09 158.91 247.07 158.91"/>
      <path class="cls-12" d="M198.04,293.82c0-17.45-8.49-31.6-18.96-31.6-.79,0-1.56.09-2.33.24h-56.92v62.96h59.36c10.42-.11,18.84-14.22,18.84-31.6Z"/>
      <path class="cls-16" d="M191.53,270c-6.67,5.3-22.3,9.02-40.53,9.02-12.18,0-23.21-1.67-31.17-4.35v50.75h59.36c10.42-.11,18.84-14.22,18.84-31.6,0-9.51-2.52-18.03-6.51-23.82Z"/>
      <path class="cls-26" d="M138.91,293.82c0-17.45-8.49-31.6-18.96-31.6-.79,0-1.57.09-2.33.24h-62.57v62.96h67.14v-.22c9.42-1.85,16.73-15.19,16.73-31.38Z"/>
      <path class="cls-17" d="M95.57,280.99c-16.56,0-31.26-2.21-40.52-5.61v50.05h67.14v-.22c9.42-1.85,16.73-15.19,16.73-31.38,0-6.79-1.29-13.07-3.47-18.22-9.29,3.28-23.69,5.39-39.87,5.39Z"/>
      <path class="cls-24" d="M127.13,321.12c0-1.7-13.82-3.07-30.86-3.07s-30.86,1.38-30.86,3.07,13.82,3.08,30.86,3.08,30.86-1.38,30.86-3.08Z"/>
      <path class="cls-9" d="M184.93,321.12c0-1.33-10.87-2.42-24.26-2.42s-24.26,1.08-24.26,2.42,10.86,2.42,24.26,2.42,24.26-1.08,24.26-2.42Z"/>
      <path class="cls-8" d="M236.33,321.28c0-1.17-9.53-2.12-21.29-2.12s-21.28.95-21.28,2.12,9.53,2.12,21.28,2.12,21.29-.95,21.29-2.12Z"/>
      <path class="cls-28" d="M74.29,293.33c0-17.73-8.49-32.1-18.96-32.1s-18.96,14.37-18.96,32.1,8.49,32.09,18.96,32.09,18.96-14.37,18.96-32.09Z"/>
      <path class="cls-13" d="M43.01,297.26c-2.34-3.42-4.16-6.99-5.46-10.53-.32,2.28-.49,4.66-.49,7.11,0,16.99,8.14,30.77,18.18,30.77,5.73,0,10.83-4.49,14.16-11.49-8.12,1.3-18.81-4.79-26.39-15.86Z"/>
      <polygon class="cls-6" points="450.64 328.91 457.16 316.57 456.07 316.57 445.15 325.75 450.64 328.91"/>
      <polygon class="cls-6" points="387.47 328.91 394 316.57 392.9 316.57 381.99 325.75 387.47 328.91"/>
      <polygon class="cls-6" points="158.74 328.91 165.26 316.57 164.16 316.57 153.25 325.75 158.74 328.91"/>
      <polygon class="cls-6" points="83.83 328.91 90.35 316.57 89.25 316.57 78.34 325.75 83.83 328.91"/>
      <path class="cls-6" d="M124.28,262.46c8.25,2.68,14.51,15.7,14.51,31.36s-6.52,29.21-15.02,31.51h.92v-.23c8.67-1.84,15.39-15.14,15.39-31.28s-6.93-29.85-15.79-31.36Z"/>
      <path class="cls-6" d="M183.44,262.46c8.2,2.68,14.19,15.7,13.87,31.36-.33,15.99-7.12,29.21-15.67,31.51h.92v-.23c8.71-1.84,15.7-15.14,16.03-31.28.33-16.39-6.33-29.85-15.16-31.36Z"/>
      <path class="cls-6" d="M234.6,262.94c8.4,2.48,14.69,15.53,14.52,31.28-.17,15.88-6.85,28.87-15.34,31.11h.91v-.22c8.66-1.79,15.56-14.87,15.74-30.91.18-16.49-6.8-29.99-15.83-31.26Z"/>
      <path class="cls-6" d="M387.95,262.7c8.25,2.68,14.51,15.69,14.51,31.36s-6.52,29.21-15.02,31.5h.92v-.23c8.66-1.84,15.39-15.13,15.39-31.28s-6.94-29.86-15.8-31.36Z"/>
      <path class="cls-6" d="M449.32,262.7c8.21,2.68,14.28,15.69,14.04,31.36-.24,15.99-6.96,29.21-15.49,31.5h.91v-.23c8.7-1.84,15.62-15.13,15.86-31.28.25-16.39-6.48-29.86-15.32-31.36Z"/>
      <path class="cls-14" d="M470.35,314.48c-.62-1.14-4.02-.34-7.59,1.79-3.57,2.14-5.96,4.78-5.34,5.93.62,1.14,4.02.34,7.59-1.8,3.57-2.13,5.96-4.78,5.34-5.92Z"/>
      <polygon class="cls-12" points="240.37 159.33 289.52 159.33 241.46 156.7 240.37 159.33"/>
      <polygon class="cls-31" points="268.48 90.95 310.09 158.42 321.09 158.42 268.48 90.95"/>
      <polygon class="cls-23" points="210.53 159.65 220.42 159.65 263.92 91.61 210.53 159.65"/>
      <path class="cls-15" d="M333.17,283.61c-1.08-17.09-13.69-30.61-28.18-30.2-14.48.41-25.35,14.59-24.27,31.68,1.08,17.09,13.7,30.61,28.18,30.2,14.48-.4,25.35-14.59,24.27-31.68Z"/>
      <path class="cls-22" d="M335.06,283.59c-1.12-17.61-14.19-31.54-29.19-31.12-5.18.15-9.91,1.99-13.84,5.05,3.14-1.81,6.69-2.88,10.5-2.98,14.18-.39,26.52,12.58,27.58,28.96,1.06,16.38-9.58,29.99-23.75,30.38-4.87.13-9.51-1.31-13.56-3.91,4.88,4.09,10.83,6.45,17.13,6.28,15-.42,26.26-15.04,25.14-32.65Z"/>
      <polygon class="cls-12" points="23.29 337.56 544.6 337.56 348.61 355.26 241.77 356.58 92.37 345.43 23.29 337.56"/>
      <path class="cls-21" d="M267.48,341.16c99.56,0,186.21.89,230.93-3.61H36.55c44.72,4.49,131.37,3.61,230.93,3.61Z"/>
    </g>
  </g>
</svg>