<?xml version="1.0" encoding="UTF-8"?>
<svg id="Layer_1" data-name="Layer 1" xmlns="http://www.w3.org/2000/svg" version="1.1" viewBox="0 0 500 500">
  <defs>
    <style>
      .cls-1 {
        fill: #000;
      }

      .cls-1, .cls-2 {
        stroke-width: 0px;
      }

      .cls-2 {
        fill: #fff;
      }
    </style>
  </defs>
  <path class="cls-1" d="M400.28,233.37c1.43,2.58,2.3,4.13,3.47,6.25,1.4-1.16,2.49-2.12,3.65-3,8.05-6.14,14.08-4.72,18.49,4.35,5.71,11.72,3.3,32.7-6.09,41.85-3.71,3.62-9.96,4.63-17.25,7.78-24.85,87.71-82.94,140.27-179.71,136.77-74.69-2.7-122.51-46.17-146.12-116.67-13.58,2.22-20.01-1.11-24.39-14.89-2.19-6.88-3.21-14.58-2.72-21.77.98-14.48,8.3-18.74,22.25-13.79,3.08-13.3,6.14-26.57,9.53-41.21,14.04,11.86,29.78,15.4,46.15,17.43,6.35.79,10.88-.3,15.11-5.85,7.85-10.28,11.31-9.64,17.88,1.7,1.55,2.67,3,5.42,4.76,7.94,7.55,10.86,16.56,11.31,23.24-.1,6.04-10.32,10.09-21.8,15.03-32.76,1.21-2.69,2.51-5.33,5.95-7.93.81,3.38,1.07,7.03,2.57,10.06,2.46,4.99,5.22,12.99,8.76,13.5,4.7.68,12.01-3.32,15.13-7.57,10.2-13.86,19.04-28.72,28.32-43.25,1.61-2.53,2.82-5.31,4.25-8.03,13.24,11.91,25.55,23.85,38.79,34.66,18.24,14.91,38.15,27.32,60.48,35.37,10.7,3.86,21.49,5.89,32.47-.83ZM329.08,323.68c-.98-2.85-1.72-4.99-2.45-7.13-2.12,1.17-5.17,1.79-6.21,3.58-14.82,25.52-38.08,38.47-66.15,42.56-36.55,5.32-68.25-2.67-88.23-37.52-1-1.74-4.2-2.21-6.38-3.27-.39,2.53-1.85,5.53-.98,7.52,5.56,12.76,14.48,22.85,26.14,30.46,37.09,24.19,95.28,17.57,127.53-14.91,6.22-6.26,11.02-13.93,16.73-21.29ZM322.72,271.56c1.98-8.7-1.81-15.47-9.5-16.96-7.78-1.51-14.93,2.47-16.72,9.3-1.8,6.89,2.95,18.28,8.07,19.32,7.92,1.62,16.36-3.8,18.15-11.67ZM181.81,273.49c2.4-8.33-.54-15.23-7.47-17.49-7.61-2.48-16.16,1.43-18.18,8.31-2.56,8.7,2.1,17.14,10.74,19.47,8.2,2.21,12.08-.47,14.92-10.3Z"/>
  <path class="cls-1" d="M268.2,149.6c-8.45,15.53-16.42,30.75-24.97,45.65-3.36,5.85-7.7,11.21-12.17,16.29-2.03,2.3-5.46,3.37-8.25,5-1.39-2.61-3.13-5.11-4.08-7.87-1.1-3.19-1.03-6.82-2.34-9.88-1.58-3.71-4.08-7.04-6.18-10.53-3.03,2.82-6.94,5.13-8.91,8.56-3.51,6.11-5.84,12.9-8.69,19.4-2.6,5.93-4.8,12.1-7.97,17.71-5.36,9.5-9.45,9.46-15.15.42-2.31-3.66-4.23-7.57-6.72-11.09-5.95-8.44-13.54-10.07-19.92-2.12-7.74,9.64-16.34,9.32-26.28,6.61-5.95-1.62-12.05-2.96-17.69-5.36-11.46-4.87-17.67-13.49-18.69-26.34-1.9-23.87,4.61-45.41,17.65-64.9,27.78-41.51,65.69-68.17,115.68-75.79,16.94-2.58,33.22.04,47.92,9.82,2.09,1.39,5.2,2.15,7.7,1.89,36.44-3.8,64.99,11.65,88.68,37.32,29.3,31.74,41.9,69.99,40.83,112.92-.26,10.38-4.85,15.1-15.3,13.43-8.99-1.44-18.11-4.29-26.24-8.37-35.16-17.64-66.28-40.46-88.93-72.76Z"/>
  <path class="cls-2" d="M329.08,323.68c-5.71,7.35-10.51,15.02-16.73,21.29-32.25,32.48-90.45,39.1-127.53,14.91-11.66-7.61-20.58-17.69-26.14-30.46-.87-1.99.6-4.99.98-7.52,2.18,1.06,5.38,1.53,6.38,3.27,19.98,34.85,51.67,42.84,88.23,37.52,28.07-4.09,51.33-17.03,66.15-42.56,1.04-1.79,4.1-2.41,6.21-3.58.74,2.14,1.47,4.28,2.45,7.13Z"/>
  <path class="cls-2" d="M322.72,271.56c-1.79,7.86-10.23,13.29-18.15,11.67-5.12-1.05-9.87-12.43-8.07-19.32,1.79-6.84,8.94-10.81,16.72-9.3,7.69,1.49,11.48,8.26,9.5,16.96Z"/>
  <path class="cls-2" d="M181.81,273.49c-2.83,9.83-6.72,12.51-14.92,10.3-8.64-2.33-13.3-10.77-10.74-19.47,2.03-6.89,10.58-10.8,18.18-8.31,6.93,2.26,9.88,9.16,7.47,17.49Z"/>
</svg>