<?xml version="1.0" encoding="UTF-8"?>
<svg xmlns="http://www.w3.org/2000/svg" version="1.1" viewBox="0 0 500 500">
  <defs>
    <style>
      .cls-1 {
        fill: #ffad4a;
      }

      .cls-1, .cls-2, .cls-3, .cls-4, .cls-5, .cls-6, .cls-7, .cls-8, .cls-9, .cls-10, .cls-11, .cls-12, .cls-13, .cls-14, .cls-15, .cls-16, .cls-17, .cls-18 {
        stroke-width: 0px;
      }

      .cls-2 {
        fill: #baa031;
      }

      .cls-3 {
        fill: #5795aa;
      }

      .cls-4 {
        fill: #ffae85;
      }

      .cls-5 {
        fill: #d85b4a;
        mix-blend-mode: multiply;
        opacity: .5;
      }

      .cls-6 {
        fill: #493434;
      }

      .cls-19 {
        isolation: isolate;
      }

      .cls-7 {
        fill: #5e4a4a;
      }

      .cls-8 {
        fill: #aa8181;
      }

      .cls-9 {
        fill: #ef8f6f;
      }

      .cls-10 {
        fill: #fff6ca;
      }

      .cls-11 {
        fill: #542c23;
      }

      .cls-12 {
        fill: #ffcd9c;
      }

      .cls-13 {
        fill: #bc3f2e;
      }

      .cls-14 {
        fill: #a83024;
      }

      .cls-15 {
        fill: #fff9e9;
      }

      .cls-16 {
        fill: #f4536a;
      }

      .cls-17 {
        fill: #78c7dd;
      }

      .cls-18 {
        fill: #ffce6c;
      }
    </style>
  </defs>
  <g class="cls-19">
    <g id="Layer_2" data-name="Layer 2">
      <circle class="cls-16" cx="268.5" cy="237.5" r="197.5"/>
    </g>
    <g id="Layer_1" data-name="Layer 1">
      <g>
        <path class="cls-12" d="M233.06,258.65l-15.03-4.64-74.03,55.93.47,2.38s70.19-38.76,88.59-53.67Z"/>
        <path class="cls-4" d="M197.67,281.75c14.77-8.85,28.6-17.6,35.39-23.1l-15.03-4.64-28.47,21.51c3.38,1.77,6.11,3.87,8.1,6.22Z"/>
        <path class="cls-18" d="M236.56,232.77l-35.24,30.08,10.75,27.86s26.18-27.68,28.83-36.89c2.64-9.19,3.98-25.55-4.34-21.05Z"/>
        <path class="cls-1" d="M241.64,233.26c.46,4.73.07,10.05-1.05,13.88-2.38,8.19-24.98,28.85-31.84,35l3.31,8.57s29.01-25.86,31.65-35.06c1.98-6.84,1.65-18.65-2.08-22.4Z"/>
        <path class="cls-12" d="M282.6,386.74l18.18,89.42,3.49-.13s-10.16-95.37-8.41-111.45c.76-6.83-15.84,9.62-13.26,22.16Z"/>
        <path class="cls-4" d="M301.91,452.88c-2.88-29.31-7.25-77.31-6.05-88.31.76-6.83-15.84,9.62-13.26,22.16l13.89,68.33c1.62-1.38,3.47-2.18,5.42-2.18Z"/>
        <path class="cls-12" d="M245.41,381.69l-4.37,94.46-3.64-.02s-4.94-100.42-9.38-117.25c-1.89-7.15,18.04,9.56,17.4,22.81Z"/>
        <path class="cls-4" d="M239.08,458.18c.96,0,1.88.45,2.74,1.2l3.59-77.69c.64-13.24-19.29-29.95-17.4-22.81,3.3,12.49,6.88,71.04,8.49,100.39.81-.67,1.67-1.1,2.58-1.1Z"/>
        <path class="cls-7" d="M228.19,443.51l25.14-.47s1.52-73.42,8.02-72.02c6.51,1.39,20.98,69.67,20.98,69.67l24.49,1.39s-4.67-114.97-9.46-133.76l-73.05,5.32s-.9,90.37,3.87,129.87Z"/>
        <path class="cls-6" d="M300.11,332.58h-75.93v9.76c23.91,5.89,47.63,6.05,75.93,0v-9.76Z"/>
        <polygon class="cls-6" points="258.47 344.86 255.21 344.86 257.17 358.65 258.47 359.07 258.47 344.86"/>
        <g>
          <path class="cls-6" d="M285.15,317.96c4.44,17.37,16.83,109.06,17.45,123.88l6.23,1.57s-6.66-116.3-11.46-135.09l-73.05,5.32s0,.5-.01,1.36l60.84,2.95Z"/>
          <path class="cls-6" d="M255.74,366.73c-5.98-1.27-5.89,65.24-6.49,76.38l5.45.57s.15-74.06,6.66-72.65c.78.15,1.66,1.29,2.61,3.1-1.56-4.82-6.96-7.12-8.24-7.4Z"/>
        </g>
        <path class="cls-6" d="M248.97,363.11s12.75,5.29,23.94-2.51c0,0-6.74,9.88-13.51,9.6-6.76-.29-10.44-7.08-10.44-7.08Z"/>
        <path class="cls-18" d="M233.51,236.48c5.42-13.79,51.51-14.48,58.78,1.87,4.97,11.2.79,62.6,10.03,101.25-24.69,3.12-59.64,7.52-79.34-2.46-1.94-34.53,3.43-82.55,10.53-100.65Z"/>
        <path class="cls-1" d="M286.25,282.63c-1.2,27.38-4.05,46.43-8.15,59.68,8.54-.75,16.84-1.79,24.22-2.72-5.69-37.38-5.05-90.04-10.03-101.25-1.33-2.99-3.97-5.41-7.41-7.29,1.77,12.8,2.33,29.54,1.37,51.58Z"/>
        <path class="cls-2" d="M247.67,227.9s11.17,13.14,32.72,1.48c0,0-18.69-8.05-32.72-1.48Z"/>
        <path class="cls-12" d="M273.43,205.61h-20.3v22.58c7.41,3.33,11.98,3.72,20.3,0v-22.58Z"/>
        <path class="cls-12" d="M298.16,249.93l.78,16.73,73.39,56.87,1.95-1.26s-57-58.54-76.12-72.34Z"/>
        <path class="cls-4" d="M337.28,285.29c-14.99-14.59-30.71-29.3-39.12-35.36l.78,16.73,28.91,22.4c2.86-1.6,6.02-2.86,9.43-3.76Z"/>
        <path class="cls-18" d="M288.27,233.2l30.19,35.82-12.49,22.85s-26.03-27.45-27.59-36.93c-1.56-9.48,2.09-27.32,9.9-21.74Z"/>
        <path class="cls-1" d="M288.27,233.2c-1.26-.9-2.4-1.13-3.43-.96,1.89,1.69,3.76,3.61,5.55,5.76,9.63,11.61,17.71,28.27,12.26,33.45-2.98,2.85-9.42,1.65-16.22-1.91,8.17,11.5,19.54,24.43,19.54,24.43l14.05-26.21-31.75-34.57Z"/>
        <path class="cls-10" d="M245.32,480.48h-18.73s11.61-9.8,13.67-9.43c2.06.39,5.06,9.43,5.06,9.43Z"/>
        <path class="cls-10" d="M310.06,480.48h-14.06s5.04-8.19,6.59-7.8c1.54.37,7.47,7.8,7.47,7.8Z"/>
        <polygon class="cls-2" points="307.27 296.48 322.37 267.49 317.68 261.08 300.5 291.47 307.27 296.48"/>
        <polygon class="cls-2" points="197.66 262.82 212.01 292.58 217.01 290.8 204.92 258.66 197.66 262.82"/>
        <polygon class="cls-8" points="282.02 443.96 279.42 435.32 310.13 435.32 310.39 444.8 282.02 443.96"/>
        <polygon class="cls-8" points="227.37 444.51 224.77 435.87 255.48 435.87 255.74 445.35 227.37 444.51"/>
        <polygon class="cls-2" points="231.97 270.53 248.41 270.33 238.58 277.43 231.97 270.53"/>
        <path class="cls-5" d="M252.61,256.62c12.7.98,23.16-12.34,36.95-22.13-.05-.06-.1-.11-.15-.17-.01-.01-.03-.03-.05-.04-.19-.19-.4-.36-.6-.54l-.49-.53c-.19-.14-.38-.23-.57-.34-.09-.07-.18-.13-.28-.19-.1-.07-.21-.14-.31-.22-.7-.48-1.43-.95-2.22-1.38t-.02-.01c-2.88-1.57-6.34-2.74-10.08-3.56-.44-.12-.88-.25-1.36-.37v-21.51h-20.3v20.47c-1.31.29-2.6.7-3.86,1.18-6.42,1.29-11.77,3.64-14.43,6.98l-1.45,1.24c-.74,12.22,8.81,20.34,19.2,21.14Z"/>
        <path class="cls-13" d="M346.18,151.38s10.93-3.9,11.46-32.34c.52-28.43-19.27-31.23-19.27-31.23,0,0,5.73-17.28-11.97-39.03-17.69-21.75-32.26-2.79-32.26-2.79,0,0,0-17.85-27.59-25.64-27.59-7.81-27.59,17.28-27.59,17.28,0,0-13.52-15.05-33.82-6.14-20.3,8.92-12.5,40.15-12.5,40.15,0,0-9.89.56-16.66,12.82-6.76,12.27-13.53,40.15,13.53,61.89l85.36,57.99c25.52,29.55,65.6,5.58,78.09-18.41,12.49-23.97-6.77-34.57-6.77-34.57Z"/>
        <path class="cls-14" d="M346.18,151.38s10.93-3.9,11.46-32.34c.52-28.43-19.27-31.23-19.27-31.23,0,0,5.73-17.28-11.97-39.03-17.69-21.75-32.26-2.79-32.26-2.79,0,0-.05-6.21-5.71-12.9,10.52,53.33-69.51,57.09-85.52,109.78-.14.47,7.51,17.44,7.04,17.37l64.92,44.1c25.52,29.55,65.6,5.58,78.09-18.41,12.49-23.97-6.77-34.57-6.77-34.57Z"/>
        <path class="cls-12" d="M187.31,135.36c-4.36,26.26-4.58,77.98,64.15,82.62,58.7,3.96,73.3-31.63,77.29-66.46,3.89-34.02-2.84-65.1-54.02-76.1-58.96-12.67-83.15,34.13-87.43,59.94Z"/>
        <path class="cls-14" d="M297.18,189.63c-14.9-29.88,8.23-82.98-32.99-117.43,0,0,92.92,1.67,75.44,81.79-4.77,21.88-42.45,35.63-42.45,35.63Z"/>
        <path class="cls-12" d="M302.01,177.17c9.89-12.58,30.72-9.87,31.22,4.07.51,13.95-27.29,21.05-34.8,18.78-7.51-2.28-1.65-16.18,3.58-22.84Z"/>
        <path class="cls-9" d="M305.6,179.93c6.3-8,19.56-6.27,19.88,2.6.32,8.87-17.38,13.4-22.15,11.95-4.79-1.45-1.06-10.3,2.26-14.55Z"/>
        <path class="cls-12" d="M302.57,185.37c4.32-5.48,13.39-4.31,13.6,1.77.23,6.08-11.89,9.17-15.17,8.19-3.27-.99-.71-7.05,1.57-9.95Z"/>
        <g>
          <path class="cls-9" d="M199.19,127.72c1.54-12.88,8.74-21.44,16.04-19.11,7.33,2.31,12.04,14.63,10.49,27.52-1.52,12.86-9.06,12.56-16.39,10.23-7.31-2.33-11.69-5.78-10.15-18.64Z"/>
          <path class="cls-9" d="M245.66,133.64c1.33-14.4,9.2-24.04,17.58-21.54,8.38,2.51,14.11,16.19,12.79,30.6-1.32,14.38-9.1,14.82-17.48,12.33-8.4-2.51-14.21-7-12.9-21.39Z"/>
          <path class="cls-15" d="M199.02,129.17c1.4-11.8,8.48-19.45,15.8-17.13,7.32,2.32,12.14,13.75,10.73,25.53-1.41,11.79-7.57,11.77-15.14,11.44-8.63-.38-12.81-8.06-11.4-19.83Z"/>
          <path class="cls-15" d="M245.97,135.38c1.21-13.16,8.99-21.81,17.38-19.3,8.37,2.48,14.19,15.2,12.98,28.36-1.2,13.18-8.07,13.42-16.77,12.96-8.64-.45-14.79-8.83-13.59-22.02Z"/>
          <path class="cls-9" d="M233.16,168.35c3.87-.38,6.38-2.87,6.3-5.74.49.6.9,1.3,1.08,2.02.86,3.34-1.97,6.36-6.3,6.78-4.32.42-8.5-1.89-9.37-5.23-.09-.35,0-.67.01-1.01,1.7,2.16,4.91,3.5,8.28,3.17Z"/>
          <path class="cls-3" d="M201.43,135.57c.12-4.52,2.71-7.69,5.84-7.06,3.1.62,5.54,4.82,5.42,9.35-.1,4.53-2.71,7.72-5.84,7.08-3.11-.64-5.53-4.83-5.42-9.38Z"/>
          <path class="cls-3" d="M248.75,141.15c.53-4.95,3.81-8.06,7.32-6.95,3.5,1.1,5.91,6.01,5.38,10.96-.55,4.95-3.8,8.07-7.31,6.97-3.52-1.1-5.93-6.02-5.4-10.97Z"/>
          <path class="cls-17" d="M252.75,142.42c.21-1.84,1.43-2.99,2.72-2.58,1.29.41,2.19,2.23,2,4.07-.21,1.83-1.42,2.99-2.71,2.58-1.3-.4-2.21-2.22-2.01-4.07Z"/>
          <path class="cls-17" d="M204.98,136.3c.05-1.68,1-2.84,2.17-2.61,1.14.23,2.03,1.76,1.99,3.45-.03,1.68-.99,2.86-2.14,2.62-1.18-.24-2.06-1.8-2.02-3.46Z"/>
          <path class="cls-13" d="M250.45,106.37c13.14-2.49,27.01,7.93,29.41,11.48l4.39-4.47c-4.34-6.31-20.77-17.2-35.38-14.44l1.58,7.43Z"/>
          <path class="cls-13" d="M197.14,105.53c8.45-9.11,20.93-7.2,23.54-5.36l1.85-6.23c-4.8-3.31-19.14-4.25-28.51,5.87l3.12,5.72Z"/>
          <path class="cls-11" d="M240.38,189.71c0-5.85-2.8-10.59-6.25-10.59s-6.25,4.74-6.25,10.59,2.79,10.59,6.25,10.59,6.25-4.74,6.25-10.59Z"/>
        </g>
        <path class="cls-12" d="M365.6,328.57c1.66,2.5,4.11,4.73,5.06,4.17.84-.5-.99-2.15-1.92-4.04-.83-1.68-1.14-2.24-.74-2.41.26-.11,1.68,1.87,3.34,3.98,2.07,2.67,3.8,4.13,4.76,3.52.86-.6-.85-2.02-2.47-4.6-1.43-2.26-2.17-3.17-1.28-3.77.4-.32,1.53,1.12,3.61,2.98,2.36,2.15,4.28,2.97,4.84,2.28.78-.97-.91-1.29-3.3-4.05-3.19-3.68-4.49-4.15-4.77-7.04-.26-2.69,7.07,2.75,7.2.41.16-3.11-15.12-9.11-17.81-7.17-3.86,2.85-1.81,7.78,3.46,15.73Z"/>
        <path class="cls-12" d="M147.92,320.36c-1.81,2.22-4.22,4.07-4.9,3.38-.59-.6,1.2-1.97,2.3-3.68.98-1.53,1.33-2.04,1.03-2.26-.19-.16-1.72,1.59-3.45,3.43-2.18,2.34-3.85,3.53-4.53,2.8-.6-.71,1.06-1.86,2.84-4.16,1.59-2.01,2.36-2.81,1.73-3.53-.27-.36-1.45.88-3.48,2.43-2.33,1.76-4.05,2.31-4.39,1.57-.46-1.07.98-1.15,3.42-3.52,3.28-3.17,4.44-3.46,5.18-6.25.7-2.58-6.28,1.73-5.96-.59.42-3.07,14.01-6.84,15.86-4.57,2.65,3.31.1,7.87-5.66,14.93Z"/>
      </g>
    </g>
  </g>
</svg>