<?xml version="1.0" encoding="UTF-8"?>
<svg xmlns="http://www.w3.org/2000/svg" version="1.1" xmlns:xlink="http://www.w3.org/1999/xlink" viewBox="0 0 500 500">
  <defs>
    <style>
      .cls-1 {
        fill: #ccc;
      }

      .cls-1, .cls-2, .cls-3, .cls-4, .cls-5, .cls-6, .cls-7, .cls-8, .cls-9, .cls-10, .cls-11, .cls-12, .cls-13, .cls-14, .cls-15, .cls-16, .cls-17, .cls-18, .cls-19, .cls-20, .cls-21, .cls-22, .cls-23, .cls-24, .cls-25 {
        stroke-width: 0px;
      }

      .cls-2 {
        fill: url(#linear-gradient-3);
      }

      .cls-2, .cls-4, .cls-5, .cls-26, .cls-6, .cls-7, .cls-10, .cls-12, .cls-18, .cls-19 {
        isolation: isolate;
      }

      .cls-2, .cls-4, .cls-5, .cls-6, .cls-10, .cls-27, .cls-12, .cls-19, .cls-28, .cls-29 {
        mix-blend-mode: multiply;
      }

      .cls-3 {
        fill: #0071bc;
      }

      .cls-4 {
        fill: url(#linear-gradient-8);
      }

      .cls-5 {
        fill: url(#linear-gradient-4);
      }

      .cls-6 {
        fill: url(#linear-gradient-6);
      }

      .cls-7, .cls-30, .cls-18 {
        mix-blend-mode: screen;
      }

      .cls-7, .cls-24 {
        fill: #ffd0b4;
      }

      .cls-8 {
        fill: none;
      }

      .cls-9 {
        fill: #b4844a;
      }

      .cls-10 {
        fill: url(#linear-gradient-5);
      }

      .cls-27 {
        opacity: .3;
      }

      .cls-31 {
        clip-path: url(#clippath-1);
      }

      .cls-11 {
        fill: #f6f6f4;
      }

      .cls-12 {
        fill: url(#linear-gradient-7);
      }

      .cls-13 {
        fill: red;
      }

      .cls-14 {
        fill: #8d0c20;
      }

      .cls-15 {
        fill: url(#linear-gradient-2);
      }

      .cls-16 {
        fill: #5e2e1c;
      }

      .cls-17 {
        fill: #6b63ac;
      }

      .cls-32 {
        clip-path: url(#clippath);
      }

      .cls-18 {
        fill: #9c533d;
      }

      .cls-19 {
        fill: url(#linear-gradient);
      }

      .cls-20 {
        fill: #65c8d0;
      }

      .cls-28 {
        opacity: .6;
      }

      .cls-21 {
        fill: #fff;
      }

      .cls-22 {
        fill: #310609;
      }

      .cls-23 {
        fill: #1b1464;
      }

      .cls-25 {
        fill: #cc9647;
      }
    </style>
    <linearGradient id="linear-gradient" x1="78.8" y1="158.1" x2="90.6" y2="113.8" gradientTransform="translate(112 500) scale(1 -1)" gradientUnits="userSpaceOnUse">
      <stop offset="0" stop-color="#fff"/>
      <stop offset="1" stop-color="#e6a79f"/>
    </linearGradient>
    <linearGradient id="linear-gradient-2" x1="-59.1" y1="188.2" x2="258.9" y2="229.8" gradientTransform="translate(112 500) scale(1 -1)" gradientUnits="userSpaceOnUse">
      <stop offset="0" stop-color="#fff"/>
      <stop offset="1" stop-color="#e6a79f"/>
    </linearGradient>
    <linearGradient id="linear-gradient-3" x1="-75.8" y1="219.3" x2="150.7" y2="217.2" gradientTransform="translate(112 500) scale(1 -1)" gradientUnits="userSpaceOnUse">
      <stop offset="0" stop-color="#fff"/>
      <stop offset="1" stop-color="#e6a79f"/>
    </linearGradient>
    <linearGradient id="linear-gradient-4" x1="103.1" y1="208.7" x2="177" y2="208.7" gradientTransform="translate(112 500) scale(1 -1)" gradientUnits="userSpaceOnUse">
      <stop offset="0" stop-color="#fff"/>
      <stop offset="1" stop-color="#e6a79f"/>
    </linearGradient>
    <linearGradient id="linear-gradient-5" x1="562.2" y1="167.7" x2="594.1" y2="167.7" gradientTransform="translate(755.2 500) rotate(-180)" gradientUnits="userSpaceOnUse">
      <stop offset="0" stop-color="#fff"/>
      <stop offset="1" stop-color="#e6a79f"/>
    </linearGradient>
    <linearGradient id="linear-gradient-6" x1="291" y1="183.7" x2="239.9" y2="152.7" gradientTransform="translate(112 500) scale(1 -1)" gradientUnits="userSpaceOnUse">
      <stop offset="0" stop-color="#fff"/>
      <stop offset="1" stop-color="#e6a79f"/>
    </linearGradient>
    <linearGradient id="linear-gradient-7" x1="269.8" y1="41.7" x2="275" y2="88.3" gradientTransform="translate(370.5 468) rotate(-163.9)" gradientUnits="userSpaceOnUse">
      <stop offset="0" stop-color="#fff"/>
      <stop offset="1" stop-color="#f48680"/>
    </linearGradient>
    <linearGradient id="linear-gradient-8" x1="21.3" y1="130.6" x2="26.3" y2="178" gradientTransform="translate(233 501.5) rotate(.5) scale(1 -1)" gradientUnits="userSpaceOnUse">
      <stop offset="0" stop-color="#fff"/>
      <stop offset="1" stop-color="#f48680"/>
    </linearGradient>
    <clipPath id="clippath">
      <path class="cls-8" d="M222.8,337.6s28.8-11.8,51.5,0c4.5-31.6-14.7-46.8-32.7-47-17.8-.2-36.8,17.8-19,47h.2Z"/>
    </clipPath>
    <clipPath id="clippath-1">
      <path class="cls-8" d="M117.5,309.2c5.8,7,16.5,8.3,25.2,6.8,12.4-2.3,18.6-15.7,13-27.1-10.3-20.7-49.4-8.9-41.2,14.9.8,2.1,1.7,3.9,3.1,5.4Z"/>
    </clipPath>
  </defs>
  <g class="cls-26">
    <g id="Layer_1" data-name="Layer 1">
      <circle class="cls-21" cx="250" cy="250" r="199.1"/>
      <g>
        <g>
          <path class="cls-13" d="M135.9,317.1c-7,0-14.1-1.9-18.8-7.5h0c-1.4-1.7-2.5-3.5-3.1-5.6-4.3-12.2,3.9-20.7,12.2-24,10.5-4.3,24.6-2.7,30.2,8.7,2.9,5.6,2.9,12.2,0,17.6-2.7,5.4-7.5,9.1-13.5,10.3-2.1.4-4.5.6-7,.6h0ZM118.1,308.8c6,7.2,17,7.9,24.6,6.6,5.6-1,10.1-4.5,12.6-9.5,2.5-5.2,2.5-11.2,0-16.6-5.4-10.8-18.8-12.4-28.6-8.1-7.7,3.3-15.5,11-11.4,22.6.8,1.9,1.7,3.9,2.9,5.4h0v-.4Z"/>
          <g>
            <path class="cls-24" d="M174.4,182.4s-62.5,18.6-66.4,67c-2.7,31.6,4.3,47.4-4.8,59.8-14.7,19.9-17.4,46.5,18,73,18.4,13.9,95.2,47.4,197.6-7.2,0,0,3.7,2.5,3.9,2.7,3.7,1.9,7.5,3.1,11.6,3.5,14.5,1.5,29.2-5.4,38.9-16.1,7.4-8.3,7.7-21.7,2.9-31.6-3.5-7.2-10.1-12.6-18.2-13.4-8.1-1-16.3,2.1-23.4,5.8,0,0,27.3-62.1-12-112.1-39.1-50.1-125.6-40.3-148.1-31.6h0Z"/>
            <path class="cls-16" d="M206.8,405.6c-43,0-73.6-13.7-85.9-23-17.4-13.2-43-40.1-18-73.7,5.4-7.4,5-15.9,4.5-28.6-.4-8.1-.8-18.4.2-30.8,3.7-48,65.2-67,66.8-67.4,19-7.4,51.7-7.7,67.9-6.2,25.2,2.3,59.4,10.8,80.7,38.1,35.6,45.5,16.5,101.4,12.6,111.3,8.3-4.1,15.7-5.8,22.3-5,7.9.8,14.9,6,18.8,13.7,4.5,9.3,4.8,23.2-3.1,32.1-10.5,11.6-25.6,17.8-39.3,16.3-4.3-.4-8.3-1.7-11.8-3.7,0,0-.6-.4-1.4-.8s-1.9-1.4-2.3-1.5c-42.2,22.5-80.5,30-112.1,30l.2-.8ZM224.4,176c-22.8,0-41.8,3.9-49.7,7h0c-.6,0-62.3,19-66,66.4-1.2,12.4-.6,22.5-.2,30.6.6,12.6,1,21.9-4.8,29.4-24.4,32.7.8,59.2,17.8,72,21.1,15.9,97.7,45.7,196.9-7.2q.4-.2,3.3,1.7c.6.4,1,.8,1.2.8,3.5,1.7,7.4,3.1,11.4,3.5,13.5,1.5,28.3-4.6,38.3-15.9,7.5-8.5,7.2-21.9,2.9-30.8-3.7-7.4-10.3-12.2-17.8-13.2-6.8-.8-14.3,1.2-23,5.6h-.8s-.2-.4,0-.8c.2-.6,26.5-62.3-11.8-111.5-21.1-26.9-55.2-35.2-79.9-37.6-6-.6-12-.8-17.6-.8v.6ZM174.4,182.4h0Z"/>
          </g>
          <path class="cls-19" d="M158.8,346s2.5,2.5,2.5,5.6c25.2,10.6,40.8,8.7,58.3.6-3.5-3.5-2.5-7-2.5-7,0,0,5.4,10.6,18,13.7-2.5,1.5-10.6-1.7-12.6-3.3,0,0-4.6,18.2-29.2,20.5-26.5,2.7-34.1-20.9-34.1-20.9,0,0-.4,2.1-3.9,2.1,3.1-3.5,5.4-8.1,3.5-11.4h0Z"/>
          <g class="cls-29">
            <path class="cls-15" d="M376.1,333.8c-3.5-7.2-10.1-12.6-18.2-13.4-8.1-1-16.3,2.1-23.4,5.8,0,0,27.3-62.1-12-112.1-39.1-50.1-125.6-40.3-148.1-31.6,0,0-57.5,17-65.6,61.2,7.7-14.3,22.1-31.6,48-43.6,19,19,43.4,13.7,51.9,5.8,8.5,9.1,37.4,3.3,43.4-5.8,5.2,18.4,11.8,26.9,30.2,28.8,10.5,17.6,17,30.8,29.4,34.1-5.2,11.8-11.2,17.6-2.7,25-7.2,10.5-11.2,30.8-.6,43.4,9.1,12.4-26.1,72.8-127,64.8-50.1-3.9-74.3-25-86.1-45.1,3.7,10.3,11.6,20.7,25.7,31.4,18.4,13.9,95.2,47.4,197.6-7.2,0,0,3.7,2.5,3.9,2.7,3.7,1.9,7.5,3.1,11.6,3.5,14.5,1.5,29.2-5.4,38.9-16.1,7.4-8.3,7.7-21.7,2.9-31.6l.2-.2Z"/>
          </g>
          <path class="cls-2" d="M121.6,315.6s25.9,2.3,35.2,12.8c15.3-30.4,16.5-79.7-7.5-91-24-11.2-54.4,18.8-27.7,78v.2Z"/>
          <path class="cls-5" d="M222.8,337.6s-26.7-80.1,19.4-91.4c46.1-11,60.8,44.3,32.3,91.4-14.3-16.6-51.5,0-51.5,0h-.2Z"/>
          <g>
            <path class="cls-16" d="M164.8,321.2c4.3-2.5,9.3-2.1,13.9-1,5,1.4,9.9,3.5,13,7.7q0,.2-.2,0c-3.5-4.3-9.5-6-14.7-6.8-4.8-.8-10.6.2-13.5,4.6-2.7,4.3-.8,9.7,2.9,12.6,4.3,3.5,10.3,3.9,15.3,4.6.6,0,1.9,1.7.8,1.7-8.7-.4-19.7-3.3-22.1-13.2-1-4.3.8-8.3,4.5-10.6l.2.2Z"/>
            <path class="cls-10" d="M161.7,326.6c-2.3,6,2.9,13.5,11.4,16.6,8.5,3.1,17.2.8,19.5-5.2s-2.9-13.5-11.4-16.6c-8.5-3.1-17.2-.8-19.5,5.2Z"/>
            <ellipse class="cls-21" cx="172.5" cy="326.8" rx="6.2" ry="3.3"/>
          </g>
          <path class="cls-14" d="M159.5,352.9s26.3,16.8,62.5.2c-8.1,18.2-50.5,29.6-62.5-.2Z"/>
          <path class="cls-21" d="M189,369.4c11.4-.4,22.5-6.2,29.4-10.6,1.5-1.7,2.9-3.7,3.7-5.6-21.1,9.7-38.9,7.9-49.9,4.8.2,3.9,2.5,11.8,16.8,11.2v.2Z"/>
          <g>
            <path class="cls-16" d="M217.8,347.7c1.9,2.5,4.1,4.8,6.6,6.8,1.2,1,2.5,1.7,3.9,2.5,1.4.8,2.9,1.4,4.3,2.1-3.3-.4-6.4-1.7-8.9-3.7-1.4-1-2.5-2.1-3.5-3.5s-1.9-2.7-2.3-4.3h0Z"/>
            <path class="cls-16" d="M155.9,355.5c1.2-1,2.1-1.7,2.5-2.9.4-.6.4-1.2.6-1.7v-1.9c.4.6.8,1.2,1,1.9,0,.8,0,1.5-.4,2.3s-1,1.4-1.5,1.7-1.4.6-2.1.8v-.2Z"/>
          </g>
          <g>
            <path class="cls-1" d="M222.8,337.6s28.1-12.6,51.5,0c4.5-31.6-14.7-46.8-32.7-47-17.8-.2-36.8,17.8-19,47h.2Z"/>
            <path class="cls-16" d="M222.8,338.2c-.2,0-.4,0-.6-.2-7.9-13.2-9.5-25.6-4.1-35,4.6-7.9,13.7-13.2,23.4-13,9.5,0,18.6,4.5,24.8,11.6,5.2,6.2,11,17.4,8.3,36.2,0,0,0,.4-.4.4h-.6c-22.8-12.2-50.7,0-51.1,0h-.2.4ZM241.4,291.2c-9.1,0-17.8,4.8-22.1,12.4-5.2,9.1-3.9,20.9,3.7,33.5,3.9-1.5,29.2-11.2,50.9,0,2.3-17.6-3.1-28.5-8.1-34.3-6-7-14.7-11.2-24-11.2h-.4v-.4Z"/>
          </g>
          <path class="cls-21" d="M225.5,336.5s25.4-9.1,45.5-.4c3.9-27.9-13.2-40.8-28.8-41.2-15.7-.2-32.5,15.7-16.6,41.6Z"/>
          <path class="cls-22" d="M216.4,307.3s10.5-19,30.6-15.3c20.1,3.7,26.7,23.6,27.9,29.4,0,0,3.1-26.9-23.8-34.3-24.4-6.6-34.8,13.5-34.6,20.1Z"/>
          <g>
            <path class="cls-1" d="M117.5,309.2c5.8,7,16.5,8.3,25.2,6.8,12.4-2.3,18.6-15.7,13-27.1-10.3-20.7-49.4-8.9-41.2,14.9.8,2.1,1.7,3.9,3.1,5.4Z"/>
            <path class="cls-16" d="M135.9,317.1c-7,0-14.1-1.9-18.8-7.5h0c-1.4-1.7-2.5-3.5-3.1-5.6-4.3-12.2,3.9-20.7,12.2-24,10.5-4.3,24.6-2.7,30.2,8.7,2.9,5.6,2.9,12.2,0,17.6-2.7,5.4-7.5,9.1-13.5,10.3-2.1.4-4.5.6-7,.6h0ZM118.1,308.8c6,7.2,17,7.9,24.6,6.6,5.6-1,10.1-4.5,12.6-9.5,2.5-5.2,2.5-11.2,0-16.6-5.4-10.8-18.8-12.4-28.6-8.1-7.7,3.3-15.5,11-11.4,22.6.8,1.9,1.7,3.9,2.9,5.4h0v-.4Z"/>
          </g>
          <path class="cls-21" d="M119.5,310c5.2,6.2,14.7,7.5,22.6,6,11-2.1,16.6-14.1,11.6-24.2-9.1-18.4-44.1-7.9-37,13.2.6,1.9,1.5,3.5,2.7,4.8v.2Z"/>
          <path class="cls-22" d="M113.9,301.1s-2.7-17,16.5-22.1c12.4-2.5,24.8,2.5,27.3,14.9.4-11.6-10.8-22.5-28.6-18.2-17.8,4.3-18.2,20.5-14.9,25.4h-.2Z"/>
          <g>
            <path class="cls-25" d="M114.4,255s5.6-15.1,31.2-16.6c11.2-.4,10.3-11.6,0-10.1-10.5,1.5-25.7,7.4-31,26.7h-.2Z"/>
            <path class="cls-9" d="M114.4,255.6h0c-.4,0-.4-.4-.4-.8,5.4-20.3,22.1-25.7,31.4-27.1,3.7-.6,6.6.4,7.9,2.3,1,1.4,1.2,3.3.4,4.8-1.2,2.5-4.1,3.9-8.1,4.1-24.8,1.5-30.4,16.1-30.6,16.3,0,.2-.4.4-.6.4ZM147.3,228.7h-1.7c-8.3,1.2-22.3,5.6-28.8,21.3.8-1.2,1.9-2.3,3.3-3.5,4.3-3.7,12.2-8.1,25.4-9.1,3.5,0,6.2-1.4,7.2-3.3s.4-2.5-.4-3.5c-1-1.4-2.7-2.1-5-2.1l.2.2Z"/>
          </g>
          <path class="cls-9" d="M150.4,228.7c-.6,1.4-1.5,2.5-2.7,3.3-3.1,2.3-6.8,3.1-10.5,4.3-4.3,1.4-8.3,3.1-12.2,5.6-3.9,2.3-7,5.4-9.3,9.1-.6,1.4-1,2.7-1.4,4.1,0,0,5.6-15.1,31.2-16.6,9.1-.4,10.1-7.5,4.8-9.7h0Z"/>
          <g>
            <path class="cls-25" d="M289.8,276.1s-1.9-15.1-23-23.8c-21.3-8.7-32.9-.2-35-10.1-1.9-9.1,9.3-10.3,24.8-3.7,15.3,6.6,35.8,22.1,33.3,37.6Z"/>
            <path class="cls-9" d="M289.8,276.7h0c-.4,0-.6-.2-.6-.6,0,0-2.1-14.9-22.6-23.4-10.1-4.1-17.8-4.5-23.6-4.5-6.4-.2-10.6-.4-11.8-6-.6-2.9,0-5.2,1.9-6.8,3.9-3.3,12.8-2.3,23.6,2.3,14.9,6.4,36.2,21.9,33.7,38.3,0,.4-.4.6-.6.6h0ZM239.9,234.9c-2.7,0-4.8.6-6,1.7-1.5,1.2-1.9,3.1-1.4,5.6,1,4.6,4.3,4.8,10.6,5,5.8,0,13.7.4,24,4.6,14.9,6.2,20.3,15.3,22.3,20.5-.6-7.2-5.6-13.5-10.1-17.8-6-6-14.7-11.6-23.2-15.3-6.4-2.7-12-4.1-16.3-4.1v-.4Z"/>
          </g>
          <path class="cls-9" d="M286.1,267c-3.7-6.6-9.5-11.6-15.9-15.7-3.7-2.3-7.7-4.5-11.8-6-4.1-1.5-7.9-2.1-12.2-2.3-4.1-.2-8.5-.4-12.2-1.9-1-.4-1.7-1-2.3-1.5v2.7c2.1,9.9,13.7,1.4,35,10.1,10.5,4.3,16.3,10.3,19.4,15.1v-.4h0Z"/>
          <g>
            <path class="cls-16" d="M366.7,333.2c-3.5-4.3-10.6-3.1-15.1-1.7-5.6,1.5-11.2,5.2-13,11-.4,1.4-.6,2.9,0,4.3s1.5,2.3,2.5,3.3,1.5,1.5.4,2.3-1.4.2-1.9.4c-1.7.2-3.5.6-5,1.2-2.9,1-6,2.3-7.2,5.4-1,2.7,0,5.4,2.3,6.8.4.2,1.4-.4,1-1-2.1-1.7-3.1-4.1-1.5-6.8,1.4-2.3,4.1-3.3,6.8-3.9-.6,1.4.4,3.3,1.4,4.3,1.4,1.5,3.7,2.1,5.6,2.3,4.3.4,8.7-1.2,12.2-3.7.2,0,0-.4-.2-.2-3.1,1.9-7.2,2.9-10.6,2.7-1.7,0-3.5-.6-5-1.7-1.2-1-2.1-2.5-1.7-4.1h0c1.7-.4,4.6,0,5.8-1.7s-.6-3.3-1.7-4.6c-4.6-5.2,2.9-11.4,7.2-13.4,4.1-1.9,10.8-3.7,15.1-1.2,4.3,2.5,3.7,9.3,2.3,13.4,0,.4.6.4.6,0,1.7-4.1,3.3-9.7.2-13.5l-.2.2Z"/>
            <path class="cls-6" d="M338,368.2s-10.3.8-10.6-7.2c-.4-7.9,11.8-8.9,13.9-8.9s0-3.1-2.9-5.6c-2.7-2.5,4.1-13.4,15.1-14.7,11-1.2,16.3,2.7,13,14.7-3.3,12-15.3,19.7-28.5,21.5v.2Z"/>
          </g>
          <path class="cls-12" d="M154.3,337.5c-.6-6-4.8-10.6-9.7-14.1-7.9-5.6-18.4-6.4-27.7-4.1-4.5,1.2-8.7,3.1-12.6,5.6-1.9,1.4-3.9,2.9-5.2,4.8-2.1,2.7-3.3,6-2.5,9.5.8,3.5,3.1,6.4,5.8,8.7,3.3,2.9,7.2,5.2,11.2,7,4.5,1.9,8.9,3.3,13.7,4.3h4.3c6.2,0,12.6-1,17.2-5.6,4.3-4.3,6-10.6,5.4-16.5v.4ZM113.9,328.2c-.8.8-1.7,1.4-2.7,1.7-.8.4-1.7.6-2.7.6s-3.1-.6-3.3-2.1c0-.8.2-1.4.8-1.9,0,0,.2-.2.4-.4.4-.4.8-.6,1.2-1,.2,0,.4,0,.6-.2h.2c.8-.2,1.4-.4,2.1-.6.8,0,1.7,0,2.5.4.6.4,1.2,1,1.2,1.7s-.4,1.5-1,2.1l.8-.4ZM120.1,323.5v.4h0s-.2,0-.4.2h-.6v-.4h0v-.2h0s0-.2.2-.4h1.4s.4,0,.4.4v.4s0,.2-.2.4h0l-.8-.8Z"/>
          <path class="cls-4" d="M230.2,363.8c3.1,5.8,8.9,8.7,15.1,10.3,1,.4,2.1.6,3.3.8h1c4.8.6,9.7.6,14.5,0,4.5-.6,8.9-1.5,12.8-3.5,3.3-1.5,6.4-3.7,8.1-6.8s1.5-6.6.2-9.9c-1-2.3-2.3-4.3-3.7-6.2-2.9-3.7-6.6-6.8-10.5-9.1-8.3-5-18.6-7.2-28.1-3.9-5.6,1.9-11,5.2-13.4,10.8-2.3,5.6-2.3,12.2.6,17.4h0ZM271,346.6c.2-.8,1-1.2,1.7-1.4,1,0,1.7,0,2.5.4.8.2,1.4.8,1.9,1.2h0l.2.2s.4.2.6.4c.4.4.8.8,1,1.2,0,0,.2.4.4.6.4.8.4,1.5,0,2.1-.6,1.4-2.5,1.5-3.7,1.2-1-.2-1.7-.8-2.5-1.4-.8-.6-1.5-1.5-2.1-2.3-.4-.8-.6-1.5-.4-2.3l.4.2ZM266.8,342.5v-.8s.4-.2.6-.2h.4s.4,0,.4.2h.2v.4h0v.2h0v.2h-.8s0-.2-.2-.4h0v-.4h0l-.6.8Z"/>
          <g class="cls-32">
            <g>
              <path class="cls-3" d="M260.4,319.3c1.4,11.4-7,21.5-18.4,22.5-11.4,1-21.7-7.5-23-19-1.4-11.4,7-21.5,18.4-22.5,11.4-1,21.7,7.5,23,19Z"/>
              <path class="cls-20" d="M258.4,319.3c1.2,10.5-6.4,19.5-16.8,20.3-10.5.8-19.7-7-20.9-17.2-1.2-10.5,6.4-19.5,16.8-20.3s19.7,7,20.9,17.2Z"/>
              <path class="cls-23" d="M252.6,318.7c.8,7.5-4.6,14.1-12,14.7-7.5.6-14.1-5-15.1-12.4-.8-7.5,4.6-14.1,12-14.7,7.5-.6,14.1,5,15.1,12.4Z"/>
              <path class="cls-11" d="M254.2,313.3c.2,2.5-1.5,4.6-4.1,4.8-2.5.2-4.6-1.5-5-4.1-.4-2.5,1.5-4.6,4.1-4.8s4.6,1.5,5,4.1Z"/>
              <path class="cls-18" d="M237.4,333.2c-.4-.2-.6-.6-1-.8-1.7-1.4-3.5-2.7-5.2-4.3-1.2-1.2-2.9-4.3-4.8-3.3-4.1,1.9,1.2,8.1,2.9,9.7,2.1,1.9,5.4,3.7,7.9,1.7.6-.4,1-1,1-1.5s-.4-1.2-.8-1.5h0Z"/>
              <g>
                <path class="cls-18" d="M225.4,322.5h0v-.2h-.8v.2h.6l.2-.2v-.2h0v-.2.6Z"/>
                <path class="cls-17" d="M223.8,322.4h0Z"/>
              </g>
            </g>
          </g>
          <g class="cls-31">
            <g>
              <path class="cls-3" d="M157,303.4c1.2,10.5-6.4,19.7-17,20.7-10.5.8-19.9-7-21.1-17.4-1.2-10.5,6.4-19.7,17-20.7,10.5-.8,19.9,7,21.1,17.4Z"/>
              <path class="cls-20" d="M155.3,303.4c1,9.5-5.8,18-15.5,18.8-9.5.8-18.2-6.4-19.2-15.9s5.8-18,15.5-18.8c9.5-.8,18.2,6.4,19.2,15.9Z"/>
              <path class="cls-23" d="M149.7,303c.8,7-4.3,13-11,13.5-7,.6-13-4.6-13.7-11.4-.8-7,4.3-13,11-13.5,7-.6,13,4.6,13.7,11.4Z"/>
              <path class="cls-11" d="M151.4,297.8c.2,2.3-1.4,4.3-3.7,4.5-2.3,0-4.3-1.5-4.6-3.7s1.4-4.3,3.7-4.5c2.3,0,4.3,1.5,4.6,3.7Z"/>
              <path class="cls-18" d="M135.7,316.2c-.2-.2-.6-.4-1-.6-1.7-1.2-3.3-2.5-4.6-3.9-1.2-1-2.7-4.1-4.5-3.1-3.7,1.7,1,7.4,2.7,8.9,1.9,1.7,5,3.5,7.4,1.5.4-.4.8-1,.8-1.5s-.4-1-.8-1.4Z"/>
              <g>
                <path class="cls-18" d="M124.7,306.5h0v-.2h-.4v.2h.4l.2-.2v-.2h0v-.2l-.2.6Z"/>
                <path class="cls-17" d="M123.3,306.3h0Z"/>
              </g>
            </g>
          </g>
          <g>
            <path class="cls-25" d="M431.1,259.4c-1.4-1-2.9-1.9-4.6-2.3,7-2.9,14.7-9.7,12.8-17.8-.8-3.3-3.7-7.7-7.4-8.5h-1.9v-1.7c-.4-1.9-1-3.7-1.9-5.4-.6-1-1.2-2.3-1.9-3.3,2.7-3.1,5.6-7,4.8-11.4-.4-2.3-1.7-4.3-3.1-6-1.4-1.7-2.9-3.5-4.8-4.6-1.9-1.2-4.5-1.2-6.6,0v-1.7c-.2-2.9-1.4-5.6-3.1-7.9-3.5-4.6-9.7-6-15.1-4.3-.4,0-1,.4-1.4.6,1.4-1.7,2.5-3.9,3.3-6,2.7-7.2,1.4-17.4-5-22.3-2.1-1.5-4.5-2.3-6.8-1.9,2.7-3.9,3.7-8.9,3.1-13.5-.8-5.6-3.7-10.6-8.5-13.5-4.5-2.7-9.9-3.3-14.7-1.5-3.3,1.2-6.4,3.3-8.5,6.2-.8-4.1-2.7-7.7-5.6-10.6-3.5-3.3-7.9-4.6-12.8-3.3-2.7.8-5,2.1-7.2,3.9,0-.6.4-1,.4-1.5,1-3.9,0-7.5-2.1-10.8-2.3-3.5-6-6.6-9.9-8.3-4.5-1.9-9.5-.6-13.7,1.4-4.1,1.7-8.1,4.5-11,7.9-2.1-4.3-5.6-7.7-10.1-9.5-4.3-1.7-9.1-1.5-13.2.4,1.9-2.5,3.7-5.4,4.5-8.5,1.4-5,0-9.9-3.5-13.5-2.9-3.5-7.9-7.5-13-7.4-4.8,0-9.7,3.5-12.8,7-1.7,1.9-3.1,4.1-4.1,6.4-.8-3.5-2.3-7-4.8-9.5-2.5-2.7-6-4.6-9.7-5-4.3-.6-8.3.8-12,2.7-2.5,1.4-4.8,3.3-6.6,5.6.4-4.6-1-9.1-4.3-12.6-7.5-7.9-20.9-6.2-28.1,1.5-2.3,2.7-4.5,6.2-4.5,9.9-.8-.4-1.7-.6-2.5-.6-1.7,0-3.7.6-5.4,1-1.9.6-3.7,1.2-5.4,2.1-2.9,1.5-5.4,4.1-7.2,7-.8,1.4-1.5,2.9-1.9,4.6-5.8-8.1-17-9.5-25.7-5-7.9,4.1-13.9,13-14.1,21.9-.6-.2-1.4-.4-1.9-.4-1.4,0-2.9.4-4.1,1-.6.4-1.4.8-1.9,1.4-1.4-4.1-2.3-8.9,0-12.8h0c.6-1.2,1.4-2.5,2.3-3.5,1.7-2.1,3.7-3.9,5.6-5.6.8-.6,1.5-1.2,2.3-1.7-1.4.4-2.7,1-4.1,1.7h-.4c-4.8,2.7-8.9,7.2-11.2,12.4-1.4,3.1-2.1,6.6-1.9,9.9-7.9,2.1-15.1,9.1-16.3,17.2-1,5.4,1.4,10.6,5,14.3-2.7.6-5.2,1.7-7.4,3.3-5,3.5-8.9,8.9-11,14.5-4.1,10.5-2.1,24.6,7.9,30.6-1.5.8-3.1,1.7-4.6,2.9-7.2,2.9-12.4,10.3-12.8,17.8-.2,4.8,1.7,9.5,4.6,13.4,1.7,2.3,4.1,4.5,6.8,5.8.2,8.5,6.8,15.1,14.5,17.8,2.3.8,5.2,1.5,7.9,1.5-2.3,1.7-4.8,3.1-7.9,2.5-2.3-.4-4.5-1.5-6.4-3.1-1.7-1.4-3.5-3.1-3.5-5.4s-1.2.2-1.4.8c-.4,2.3.6,4.6,2.1,6.4,1.4,2.1,2.9,3.9,5,5.2,2.9,1.9,6.6,2.7,9.9,2.1.8,0,1.5-.4,2.3-.6-1.7,4.1-2.1,8.9-.6,12.8,1.2,2.9,3.3,5.4,5.8,7.2s6,3.3,9.1,2.5c.2,0,1.4-1,.8-1.2h-.6c1-4.6.6-9.9.4-14.5,0-4.6-.2-9.3,0-13.9.4-8.5,3.1-16.6,7-24.2,6.6-12.8,17-23.4,29.2-30.6,5.4-3.1,11-5.4,16.8-7.4,2.9,2.9,6.6,5.4,10.1,7.2,6.8,3.5,14.5,5.2,22.1,5,3.9,0,7.5-.8,11.2-2.1,2.3-.8,4.8-1.9,7.4-1.9s4.8,1.2,7.4,1.2c10.1.4,17.8-7.7,27.3-9.3,2.7-.4,5.4-.4,7.9.8,1.9.8,3.7,2.3,5.4,3.7,1.4,1.2,2.9,2.3,4.5,3.3-.8,1.5-1.2,3.3-1.2,5,.2,4.6,3.3,10.1,7,13,3.9,3.1,9.9,4.8,14.7,4.5,1,0,1.9-.2,2.9-.6,1.2,2.7,3.3,5,5.6,7,1.9,1.7,4.1,3.3,6,5,1.5,1.5,3.1,3.3,4.5,5.2,4.8,6.8,8.9,15.5,17.6,17.2h0c.4,3.1,1.7,6,3.7,8.5,1.4,1.9,3.1,3.9,5.2,5.4-1.5.4-3.1,1-4.5,1.5-3.3,1.4-6.2,3.5-7.5,6.8-2.7,7,1.9,13.5,8.5,16.1.6.2,1.4.4,2.1.6h-.2c-1.4.6-2.7,1.2-4.1,1.9-2.7,1.7-5.2,4.1-7.2,6.8-1.9,2.5-3.5,6-1.7,9.1.6,1,1.4,1.5,2.1,2.1-2.1,1.7-3.7,4.5-4.1,7.4-.6,4.6,2.3,9.1,6.6,10.6,4.8,1.7,10.3,0,14.3-2.7,1.9-1.2,3.7-2.5,5.4-3.9,5.8-2.7,13.2-3.1,19.4-2.1,4.3.6,8.1,2.3,11,5.4s4.5,7.4,6,11.2c1.7,4.3,3.3,9.1,2.7,13.7-.4,3.3-3.7,8.3,1.2,9.9,7.5,2.3,17-.2,20.1-8.1,2.1-5.4-.4-11.2-4.5-15.5,1.2-.4,2.5-.8,3.7-1.2,1.7-.6,3.5-1.2,5-1.9,3.3-1.5,6.2-4.1,7.7-7.4,1.2-2.5,1.4-5.6.4-8.1,1.5-1.2,2.7-2.9,3.7-4.5,1.9-4.3,1.4-9.5-1.4-13.2,2.3-1.4,4.5-2.9,6.2-4.5,2.7-2.5,5.8-5.8,5.4-9.9-.2-2.7-1.4-5.4-2.7-7.9,2.7-1,5.2-2.5,7.2-4.6,2.1-2.3,3.9-5.2,3.9-8.5s-1.5-5.8-4.3-7.7l.2.6ZM97.8,253.8c0-.2-.6-.2-1,0-.6.6-1.2,1.2-1.7,1.9-1.5.8-3.5,1.2-5.2,1.2s-2.7-.2-3.9-.6c4.1-.4,7.5-2.9,10.5-6,.4,0,.8-.2,1-.4.8-.4,1.5-1,2.3-1.5-.2,1.9-.6,3.9-1.9,5.6v-.2Z"/>
            <path class="cls-9" d="M386.2,363.8c-1.9,0-3.9-.4-5.8-1-4.1-1.4-3.1-4.8-2.3-7.7.2-1,.6-1.9.6-2.7.6-4.6-1.2-9.1-2.7-13.5-1.5-3.9-3.1-7.9-5.8-11-2.5-2.7-6.2-4.6-10.6-5.2-7-1.2-13.7-.4-19,2.1-1.9,1.5-3.7,2.7-5.2,3.7-3.1,1.9-9.3,4.8-14.9,2.7-4.6-1.7-7.5-6.6-7-11.2.4-2.7,1.7-5.2,3.7-7.2-.6-.4-1.2-1.2-1.7-1.9-1.5-2.7-1-6,1.7-9.7,1.9-2.7,4.5-5,7.4-6.8.8-.6,1.7-1,2.7-1.5h-.6c-3.9-1.5-7.2-4.5-8.7-7.9-1.4-2.9-1.4-6,0-8.9,1.2-3.1,3.9-5.4,7.9-7.2,1-.4,2.1-1,3.5-1.4-1.9-1.5-3.3-3.5-4.5-4.8-2.1-3.1-3.3-5.8-3.7-8.5-7.2-1.7-11.2-7.9-15.1-13.7-.8-1.2-1.5-2.5-2.3-3.7-1.5-2.1-2.9-3.7-4.3-5-1.2-1-2.3-2.1-3.5-2.9-.8-.6-1.5-1.4-2.5-1.9-2.7-2.3-4.5-4.5-5.6-6.8-1,.2-1.7.4-2.5.4-5,.6-11.2-1.4-15.1-4.5s-6.8-8.7-7.2-13.4c0-1.5.2-3.3,1-4.8-1.5-1-2.9-2.1-4.1-2.9-1.7-1.4-3.5-2.7-5.4-3.5-2.1-1-4.8-1.2-7.5-.8-4.1.6-7.9,2.7-11.6,4.5-5,2.5-10.1,5-15.9,4.8-1.2,0-2.5-.4-3.7-.6-1.4-.4-2.5-.6-3.7-.6h0c-1.9,0-3.7.8-5.6,1.4-.6.2-1.2.4-1.5.6-3.7,1.4-7.5,1.9-11.4,2.1-7.7.4-15.5-1.4-22.3-5-3.7-1.9-7.2-4.5-9.9-7-6,1.7-11.4,4.3-16.5,7.2-12.2,7.2-22.6,18-29,30.4-4.5,8.3-6.8,16.5-7,24v17c0,3.7.2,7.5-.4,11.2h0c.4,0,.6.4.6.8,0,.8-1,1.4-1.4,1.4-4.1.8-8.1-1.5-9.7-2.7-2.7-1.9-4.8-4.5-6-7.5-1.5-3.7-1.4-8.1,0-12.2-.4,0-.8,0-1.2.2-3.5.6-7.2-.2-10.5-2.1-2.1-1.4-3.9-3.1-5.2-5.4-1.9-2.1-2.7-4.5-2.3-6.8,0-.6,1-1.5,1.7-1.5s.8.4.8,1c0,2.1,1.9,3.9,3.3,5,1.9,1.5,4.1,2.5,6,2.9,2.1.4,4.1,0,6.2-1.5-2.3-.2-4.6-1-6.4-1.5-8.7-3.1-14.5-10.1-14.9-18-3.1-1.4-5.4-3.9-6.8-5.8-3.3-4.5-5-9.3-4.8-13.7.4-7.7,5.8-15.3,13.2-18.4,1.2-1,2.3-1.7,3.7-2.3-9.9-6.8-11.2-20.7-7.4-30.8,2.3-6.2,6.4-11.4,11.4-14.9,1.5-1,3.9-2.3,6.6-3.1-3.7-3.9-5.4-9.1-4.5-14.1,1.4-7.9,8.1-15.1,16.3-17.6,0-3.3.6-6.6,1.9-9.7,2.3-5.2,6.4-9.7,11.4-12.6h.2c1.2-.8,2.5-1.4,4.1-1.9.2,0,.6,0,.8.4,0,.2,0,.6-.2.8-.8.6-1.5,1.2-2.3,1.7-2.1,1.7-4.1,3.5-5.6,5.6-1,1.2-1.7,2.3-2.1,3.3h0c-1.7,2.9-1.7,6.6-.2,11.4.4-.4.8-.6,1.4-1,1.4-.8,2.9-1.2,4.5-1.2h1.4c.4-8.5,6.4-17.4,14.3-21.7,9.1-4.8,19.9-2.9,25.7,4.3.4-1.2,1-2.5,1.5-3.7,1.7-3.1,4.3-5.6,7.4-7.2,1.5-.8,3.5-1.5,5.6-2.1h.6c1.5-.6,3.3-1,5-1h0c.6,0,1.4,0,1.9.4.4-3.1,1.9-6.6,4.6-9.5,3.9-4.3,9.7-6.8,15.5-7,5.2,0,9.9,1.7,13.4,5.2,2.9,3.1,4.5,7,4.6,11.2,1.4-1.5,3.3-3.1,5.6-4.3,4.3-2.3,8.5-3.3,12.4-2.9,3.7.4,7.2,2.3,9.9,5.2,2.1,2.1,3.7,5,4.6,8.3,1-1.7,2.1-3.5,3.5-5,3.9-4.5,8.9-7.2,13.4-7.2,6.2-.2,11.8,5.8,13.4,7.5,3.5,4.3,4.8,9.3,3.5,14.1-.6,2.3-1.7,4.6-3.3,7,3.9-1.2,8.1-1.2,11.8.4,4.1,1.5,7.5,4.8,10.1,8.9,2.9-3.1,6.6-5.6,10.6-7.5,5.6-2.5,10.3-2.9,14.1-1.4,4.1,1.7,7.7,4.8,10.1,8.5,2.1,3.5,2.9,7.4,2.1,11,1.9-1.4,3.9-2.3,6-2.9,4.8-1.4,9.5,0,13.4,3.5,2.7,2.5,4.6,6,5.6,9.7,2.1-2.3,5-4.3,8.1-5.4,5-1.7,10.6-1.2,15.3,1.7,4.8,2.9,7.9,8.1,8.7,14.1.6,4.6-.4,9.3-2.5,13,2.1,0,4.3.8,6,2.1,6.8,5,7.9,15.7,5.2,22.8-.6,1.5-1.4,3.1-2.3,4.5,5.6-1.7,11.6,0,15.1,4.6,1.7,2.3,2.9,5,3.1,8.1v1c1.9-.8,4.3-.6,6.2.6,2.1,1.2,3.7,3.1,5,4.8,1.4,1.7,2.7,3.9,3.1,6.4.8,4.6-2.1,8.7-4.6,11.6.8,1,1.4,2.1,1.7,2.9,1,2.1,1.5,3.9,1.9,5.6v1.2h1.5c3.9.8,7,5,7.7,8.9,1.9,7.7-4.5,14.5-11.6,17.8,1.2.4,2.1,1.2,3.3,1.9h0c3.1,2.3,4.5,5,4.5,8.1s-1.5,6.2-4.1,8.9c-1.7,1.9-4.1,3.5-6.8,4.5,1.4,2.5,2.3,5.2,2.5,7.5.4,4.3-2.5,7.5-5.6,10.5-1.7,1.7-3.9,3.1-5.8,4.3,2.5,3.9,2.9,9.1,1,13.2-.8,1.7-1.9,3.1-3.5,4.5.8,2.5.6,5.4-.6,8.1-1.7,4.1-5.4,6.4-7.9,7.5-1.5.8-3.1,1.4-5.2,1.9h0c-.8.4-1.7.6-2.5.8,4.5,5,5.8,10.6,3.9,15.5-2.5,6.4-8.9,9.3-15.1,9.3l1,.4ZM353.3,320.8c2.1,0,4.3,0,6.4.6,4.8.8,8.7,2.7,11.4,5.6,2.9,3.3,4.6,7.5,6,11.4,1.7,4.5,3.3,9.3,2.7,13.9,0,1-.4,1.9-.8,2.9-1,3.3-1.4,5.4,1.4,6.4,7.2,2.3,16.3,0,19.4-7.7,1.9-4.6.2-10.1-4.3-14.9,0,0-.2-.4,0-.6,0-.2.2-.4.4-.4,1.2-.4,2.3-.6,3.5-1h0c1.9-.8,3.7-1.4,5-1.9,2.5-1.2,5.8-3.3,7.4-7,1.2-2.5,1.4-5.2.4-7.7v-.6c1.5-1.2,2.7-2.7,3.5-4.3,1.9-3.9,1.4-8.9-1.4-12.6v-.4s0-.4.4-.4c2.1-1.2,4.3-2.7,6.2-4.5,2.9-2.7,5.6-5.6,5.2-9.5-.2-2.5-1.2-5-2.7-7.7v-.6s0-.4.4-.4c2.7-1,5-2.5,7-4.5,2.3-2.5,3.7-5.4,3.7-8.1s-1.2-5-3.9-7.2c-1.5-1.2-2.9-1.9-4.5-2.1-.2,0-.4-.2-.4-.6s0-.6.4-.6c6-2.5,14.3-9.1,12.4-17.2-.8-2.9-3.3-7.4-6.8-7.9h-2.3s-.2-.2-.2-.4v-1.5c-.2-1.5-.8-3.3-1.7-5.2-.4-1-1.2-2.1-1.9-3.1-.2-.2,0-.6,0-.8,2.5-2.9,5.4-6.6,4.6-11-.4-2.3-1.7-4.3-2.9-5.8-1.4-1.7-2.7-3.3-4.6-4.5-1.7-1-4.1-1.2-6,0h-.6s-.2-.4-.2-.6v-1.7c-.2-2.9-1.4-5.4-2.9-7.5-3.3-4.3-9.1-5.8-14.3-4.1-.4,0-.6.2-1,.4h-.4c-.2.2-.6,0-.8,0v-.8c1.4-1.9,2.5-3.9,3.3-5.8,2.5-6.8,1.4-16.8-4.8-21.5-1.9-1.4-4.3-2.1-6.4-1.7-.2,0-.4,0-.6-.2v-.6c2.5-3.7,3.7-8.5,3.1-13.2-.8-5.6-3.7-10.5-8.3-13.2-4.3-2.5-9.7-3.1-14.1-1.5-3.3,1.2-6.2,3.3-8.3,6,0,0-.4.2-.6.2s-.4-.2-.4-.4c-.8-4.1-2.5-7.5-5.4-10.3-3.5-3.3-7.7-4.5-12.2-3.1-2.3.6-4.8,1.9-7,3.9h-.8c-.2,0-.4-.4-.2-.8,0-.4.4-1,.4-1.5.8-3.5,0-7.2-1.9-10.5-2.1-3.5-5.8-6.4-9.5-7.9-3.5-1.5-7.9-1-13.2,1.4-4.3,1.9-8.1,4.6-10.8,7.7,0,0-.4.2-.6.2s-.4,0-.4-.4c-2.3-4.3-5.8-7.5-9.7-9.3-4.1-1.5-8.7-1.5-12.8.4h-.8v-.8c2.3-2.9,3.7-5.6,4.3-8.3,1.2-4.5,0-9.1-3.3-13.2-2.9-3.5-7.7-7.2-12.2-7.2s-.2,0-.4,0c-4.1,0-8.7,2.7-12.4,6.8-1.7,1.9-3.1,4.1-4.1,6.2,0,.2-.4.4-.6.4s-.4-.2-.6-.4c-.8-3.7-2.5-6.8-4.8-9.3-2.5-2.7-6-4.5-9.3-4.8-3.7-.4-7.7.4-11.6,2.7-2.7,1.5-4.8,3.3-6.4,5.4,0,.2-.4.4-.8.2-.2,0-.4-.4-.4-.6.4-4.6-1-8.9-4.1-12-3.1-3.3-7.5-5-12.4-4.8-5.6,0-11,2.5-14.7,6.6-2.7,2.9-4.3,6.4-4.3,9.5s0,.4-.2.6h-.6c-.8-.4-1.5-.6-2.3-.6h0c-1.5,0-3.1.4-4.6.8h-.6c-2.1.8-3.9,1.4-5.4,2.1-2.9,1.5-5.2,3.9-7,6.8-.8,1.5-1.5,2.9-1.7,4.5,0,.2-.2.4-.4.4s-.4,0-.6-.2c-5.2-7.4-16.1-9.5-25-4.8-7.9,4.1-13.7,13-13.7,21.3s0,.4-.2.6h-.6c-.6,0-1.2-.4-1.7-.4-1.4,0-2.5.2-3.9,1-.6.4-1.2.8-1.7,1.4h-.6c-.2,0-.4,0-.4-.4-1.9-5.6-1.9-9.9,0-13.2h0c.6-1.2,1.4-2.3,2.3-3.7,1.2-1.5,2.7-2.9,4.1-4.3-4.6,2.7-8.5,7-10.6,12-1.4,3.1-1.9,6.4-1.9,9.7s0,.6-.4.6c-7.9,2.1-14.7,9.1-15.9,16.6-.8,5,1,10.1,4.8,13.9,0,0,.2.4,0,.6,0,.2-.2.4-.4.4-2.3.6-4.8,1.5-7.2,3.3-4.6,3.3-8.5,8.3-10.8,14.3-5,12.8,0,25.4,7.7,30,0,0,.4.4.2.6,0,.2,0,.4-.4.6-1.5.8-3.1,1.7-4.5,2.7h0c-6.8,2.7-12,10.1-12.4,17.2-.2,4.3,1.4,8.7,4.5,13,1.4,1.7,3.5,4.3,6.6,5.6.2,0,.4.4.4.6,0,7.5,5.8,14.3,14.1,17.2,1.9.6,4.8,1.5,7.5,1.5s0,0,0,0c.2,0,.4,0,.6.4v.6c-1.7,1.5-4.6,3.3-8.5,2.7-2.1-.4-4.5-1.5-6.6-3.1-1.5-1.2-3.3-2.9-3.7-5.2,0,0,0,.2-.2.2-.4,2.5.8,4.6,1.9,5.8,1.4,2.3,3.1,3.9,4.8,5,2.9,1.9,6.4,2.5,9.5,2.1.6,0,1.4-.2,2.1-.6h.6s.2.4,0,.6c-1.7,3.9-1.9,8.5-.6,12.4,1.2,2.7,3.1,5.2,5.6,7,2.9,2.1,6.2,2.9,8.7,2.5h0c-.4,0-.4-.4-.4-.8.8-3.7.6-7.5.4-11.4v-17c.2-7.7,2.7-15.9,7.2-24.4,6.6-12.6,17-23.6,29.4-30.8,5.2-3.1,10.8-5.4,17-7.4h.6c2.7,2.7,6.2,5,9.9,7.2,6.8,3.5,14.1,5.2,21.7,4.8,3.9,0,7.5-.8,11-2.1.6,0,1-.4,1.5-.6,1.9-.8,3.9-1.5,6-1.4,1.4,0,2.7.4,4.1.6,1.2.2,2.3.6,3.5.6,5.6.2,10.3-2.1,15.3-4.6,3.9-1.9,7.7-3.9,12-4.6,3.1-.6,5.8-.2,8.3.8,2.1,1,3.9,2.3,5.6,3.7,1.4,1.2,2.9,2.3,4.5,3.3.2,0,.4.6.2.8-.8,1.5-1.2,3.1-1,4.8.2,4.5,3.1,9.7,6.6,12.6,3.7,2.9,9.7,4.6,14.3,4.3.8,0,1.7-.2,2.7-.6.2,0,.6,0,.8.4,1,2.3,2.9,4.5,5.4,6.8.8.8,1.5,1.4,2.3,1.9,1.2,1,2.5,1.9,3.5,3.1,1.5,1.4,2.9,3.1,4.5,5.2.8,1.2,1.5,2.3,2.5,3.7,3.9,5.8,7.7,11.8,14.9,13.4.2,0,.4.2.4.6h-.6.6c.2,2.5,1.4,5.2,3.5,8.1,1.2,1.5,2.9,3.7,5,5.2,0,0,.2.4.2.6s-.2.4-.4.4c-1.5.4-3.1,1-4.5,1.5-3.9,1.5-6.2,3.7-7.4,6.6-1,2.7-1,5.4,0,7.9,1.4,3.1,4.5,5.8,7.9,7.4.6.2,1.2.4,1.9.6.2,0,.4.2.4.6s0,.6-.4.6v-.4h-.4c-1.4.8-2.7,1.5-3.9,2.1-2.7,1.7-5.2,3.9-7,6.6-2.5,3.3-3.1,6.2-1.7,8.3.6,1,1.4,1.5,1.9,1.9,0,0,.2.2.2.4,0,0,0,.4-.2.6-2.1,1.7-3.5,4.3-3.9,7-.6,4.3,2.1,8.5,6.2,10.1,5.2,1.9,10.8-.8,13.7-2.7,1.5-1,3.3-2.1,5.2-3.7,3.9-1.7,8.5-2.7,13.4-2.7l1.2-.6ZM90.1,257.5c-1.4,0-2.7-.2-4.1-.6-.2,0-.4-.4-.4-.6s.2-.6.6-.6c4.3-.4,7.7-3.5,10.1-5.8h.2c.4,0,.8-.2,1-.4.8-.4,1.5-1,2.3-1.5,0,0,.4-.2.6,0,.2,0,.4.4.4.6-.2,1.9-.6,4.1-2.1,5.8,0,0-.2.2-.4.2h-.4c-.6.6-1.2,1.2-1.7,1.7h-.2c-1.5.8-3.5,1.2-5.4,1.2h-.4ZM89.1,256.2c2.1,0,4.1,0,5.8-1,.6-.8,1.2-1.4,1.7-1.7.4-.4.8-.4,1.2-.4h0c.8-1,1.2-2.1,1.4-3.5-.4.2-.8.6-1.2.8-.4,0-.6.2-1,.4-1.7,1.9-4.5,4.3-7.7,5.4h-.2Z"/>
          </g>
          <g class="cls-27">
            <path class="cls-25" d="M431.1,259.4c-1.4-1-2.9-1.9-4.6-2.3,7-2.9,14.7-9.7,12.8-17.8-.8-3.3-3.7-7.7-7.4-8.5h-1.9v-1.7c-.4-1.9-1-3.7-1.9-5.4-.6-1-1.2-2.3-1.9-3.3,2.7-3.1,5.6-7,4.8-11.4-.4-2.3-1.7-4.3-3.1-6-1.4-1.7-2.9-3.5-4.8-4.6-1.9-1.2-4.5-1.2-6.6,0v-1.7c-.2-2.9-1.4-5.6-3.1-7.9-2.5-3.3-6.6-5-10.6-5-1.2,1.2-2.3,1.9-3.7,2.7,1,.4,1.7,1,2.5,1.7,1.4,1.5,1.5,3.5.8,5.4,0,0,0,.4-.2.4,2.5.8,4.8,1.9,6.6,3.7,2.7,2.7,4.5,7,3.7,10.6-.6,2.9-2.9,5.2-5.6,6.2-1,.4-2.1.6-3.1.8-2.3,2.5-5.6,4.3-8.7,5.2-1.7.6-4.1,1-6.4,1.2.2,2.3,0,4.8-.8,7-1.5,3.7-5.2,6.6-9.3,7.4-6,1.2-7.2-5.2-8.3-10.5-7,3.7-16.3,3.5-22.3-1.7-1.9-1.5-2.7-3.3-2.9-5-4.5,0-8.7-1.9-11.6-6-2.1-2.9-2.5-6.6-1.4-9.9-2.5-1.9-4.5-4.3-5.8-7-1.4-2.9-2.1-6.2-1-9.3.4-1.4,1.2-2.5,1.9-3.7-1.7.4-3.7.8-5.4.8-4.5,0-8.7-1-12.6-3.1-1.7.8-3.7,1.5-5.6,1.7-4.3.6-9.3-.4-12.2-3.9s-2.5-8.5,0-12.2c.6-1,1.4-1.7,2.1-2.5-2.9.4-6.2-.4-8.7-1.9-3.7-2.1-5.6-5.8-5.2-9.9-2.9,2.1-6.6,3.1-10.3,2.3-3.9-.8-6.8-3.5-8.1-7-1.4,1.7-2.9,3.3-5,4.5-.6.2-1,.4-1.5.8.8,1.7,1.4,3.5,1.4,5.2.4,4.6-2.7,8.9-7,10.6-6.2,2.7-19-.4-17.8-8.1-2.1,1.4-4.6,1.7-7.2,1.2-4.8-1-9.7-5-12.6-9.9-1.5,2.5-4.5,4.3-7.4,4.3-5.6,0-11.6-3.9-14.7-8.7-.2.8-.6,1.5-1.2,2.1-2.9,3.9-9.3,6.2-14.3,5-.4,1.2-1,2.1-1.5,3.1-2.9,3.5-7.5,5.8-12,6.2-4.8.4-10.1-2.3-13-6.2-4.6-6.2-3.3-14.7-.4-21.9-3.3,2.3-7.7,3.1-11.8,2.5.4.4.6.8.8,1.2,2.3,4.8-2.1,10.6-6,13.2-4.3,2.7-9.5,3.3-14.3,2.5-4.6-.6-9.3-2.5-12.4-6.2-.6-.8-1.2-1.7-1.5-2.5-2.7.6-5.6.6-8.5,0-2.1-.4-4.3-1.4-6.2-2.5-2.5.6-5,1.7-7,3.1-5,3.5-8.9,8.9-11,14.5-4.1,10.5-2.1,24.6,7.9,30.6-1.5.8-3.1,1.7-4.6,2.9-7.2,2.9-12.4,10.3-12.8,17.8-.2,4.8,1.7,9.5,4.6,13.4,1.7,2.3,4.1,4.5,6.8,5.8.2,8.5,6.8,15.1,14.5,17.8,2.3.8,5.2,1.5,7.9,1.5-2.3,1.7-4.8,3.1-7.9,2.5-2.3-.4-4.5-1.5-6.4-3.1-1.7-1.4-3.5-3.1-3.5-5.4s-1.2.2-1.4.8c-.4,2.3.6,4.6,2.1,6.4,1.4,2.1,2.9,3.9,5,5.2,2.9,1.9,6.6,2.7,9.9,2.1.8,0,1.5-.4,2.3-.6-1.7,4.1-2.1,8.9-.6,12.8,1.2,2.9,3.3,5.4,5.8,7.2s6,3.3,9.1,2.5c.2,0,1.4-1,.8-1.2h-.6c1-4.6.6-9.9.4-14.5,0-4.6-.2-9.3,0-13.9.4-8.5,3.1-16.6,7-24.2,6.6-12.8,17-23.4,29.2-30.6,5.4-3.1,11-5.4,16.8-7.4,2.9,2.9,6.6,5.4,10.1,7.2,6.8,3.5,14.5,5.2,22.1,5,3.9,0,7.5-.8,11.2-2.1,2.3-.8,4.8-1.9,7.4-1.9s4.8,1.2,7.4,1.2c10.1.4,17.8-7.7,27.3-9.3,2.7-.4,5.4-.4,7.9.8,1.9.8,3.7,2.3,5.4,3.7,1.4,1.2,2.9,2.3,4.5,3.3-.8,1.5-1.2,3.3-1.2,5,.2,4.6,3.3,10.1,7,13,3.9,3.1,9.9,4.8,14.7,4.5,1,0,1.9-.2,2.9-.6,1.2,2.7,3.3,5,5.6,7,1.9,1.7,4.1,3.3,6,5,1.5,1.5,3.1,3.3,4.5,5.2,4.8,6.8,8.9,15.5,17.6,17.2h0c.4,3.1,1.7,6,3.7,8.5,1.4,1.9,3.1,3.9,5.2,5.4-1.5.4-3.1,1-4.5,1.5-3.3,1.4-6.2,3.5-7.5,6.8-2.7,7,1.9,13.5,8.5,16.1.6.2,1.4.4,2.1.6h-.2c-1.4.6-2.7,1.2-4.1,1.9-2.7,1.7-5.2,4.1-7.2,6.8-1.9,2.5-3.5,6-1.7,9.1.6,1,1.4,1.5,2.1,2.1-2.1,1.7-3.7,4.5-4.1,7.4-.6,4.6,2.3,9.1,6.6,10.6,4.8,1.7,10.3,0,14.3-2.7,1.9-1.2,3.7-2.5,5.4-3.9,5.8-2.7,13.2-3.1,19.4-2.1,4.3.6,8.1,2.3,11,5.4s4.5,7.4,6,11.2c1.7,4.3,3.3,9.1,2.7,13.7-.4,3.3-3.7,8.3,1.2,9.9,7.5,2.3,17-.2,20.1-8.1,2.1-5.4-.4-11.2-4.5-15.5,1.2-.4,2.5-.8,3.7-1.2,1.7-.6,3.5-1.2,5-1.9,3.3-1.5,6.2-4.1,7.7-7.4,1.2-2.5,1.4-5.6.4-8.1,1.5-1.2,2.7-2.9,3.7-4.5,1.9-4.3,1.4-9.5-1.4-13.2,2.3-1.4,4.5-2.9,6.2-4.5,2.7-2.5,5.8-5.8,5.4-9.9-.2-2.7-1.4-5.4-2.7-7.9,2.7-1,5.2-2.5,7.2-4.6,2.1-2.3,3.9-5.2,3.9-8.5s-1.5-5.8-4.3-7.7l-.2.4ZM97.8,253.8c0-.2-.6-.2-1,0-.6.6-1.2,1.2-1.7,1.9-1.5.8-3.5,1.2-5.2,1.2s-2.7-.2-3.9-.6c4.1-.4,7.5-2.9,10.5-6,.4,0,.8-.2,1-.4.8-.4,1.5-1,2.3-1.5-.2,1.9-.6,3.9-1.9,5.6v-.2Z"/>
          </g>
          <g class="cls-27">
            <path class="cls-25" d="M431.1,259.4c-1.4-1-2.9-1.9-4.6-2.3,7-2.9,14.7-9.7,12.8-17.8-.8-3.3-3.7-7.7-7.4-8.5h-1.9v-1.7c-.4-1.9-1-3.7-1.9-5.4-.6-1-1.2-2.3-1.9-3.3,2.7-3.1,5.6-7,4.8-11.4-.4-2.3-1.7-4.3-3.1-6-1.4-1.7-2.9-3.5-4.8-4.6-1.9-1.2-4.5-1.2-6.6,0v-1.7c-.2-2.9-1.4-5.6-3.1-7.9-2.5-3.3-6.6-5-10.6-5-1.2,1.2-2.3,1.9-3.7,2.7,1,.4,1.7,1,2.5,1.7,1.4,1.5,1.5,3.5.8,5.4,0,0,0,.4-.2.4,2.5.8,4.8,1.9,6.6,3.7h0c3.9,2.5,7.5,5.8,9.7,9.9,3.5,6.4,2.3,15.1-3.7,18.6,6.2,2.7,9.9,10.5,8.1,17-1.9,6.8-8.1,9.1-14.1,10.8,2.1,1,4.1,2.1,5.8,3.9,3.5,3.7,4.8,8.9,3.3,13.9-1.4,4.6-5,7.9-9.5,9.9,5,3.5,7.5,9.1,7,15.3-.6,6-3.3,11.6-7.4,16.1-3.1,3.3-7.7,7-12.6,6-5.6-1.2-6-8.3-4.3-12.6,1.4-3.3,3.9-6.8,7-9.1-1.9,0-3.9,0-5.8-.6-3.5-.8-7.2-2.3-9.5-5.2-2.5-3.1-2.7-7.2-1.7-10.8,1-3.5,2.9-6.4,5-9.3-.4,0-.8.4-1.2.4-6.2,2.1-15.9,1-18.8-6-1.5-3.7,0-7,1.9-10.1,1.2-1.7,2.7-3.5,3.7-5.4-1.9,2.3-4.5,4.1-7.4,5.2-4.5,1.7-9.3,1.4-13.7,0-3.9-1.2-7.5-3.1-10.1-6.2-4.1-5.2-3.3-12.4-1.4-18.6-2.1,1.5-4.6,2.5-7.4,2.7-6.6.8-13.4-3.1-15.3-9.5-1.7-5.4,0-11.4,2.3-16.6-5.8,4.5-14.1,7.2-20.5,2.9-2.7-1.9-4.5-5-4.1-8.3.4-2.5,1.5-4.8,3.1-7-2.7.4-5.6.6-8.3.4-4.6-.2-9.5-1.4-12.6-5-1.9-2.1-2.9-4.8-3.3-7.7-1.9,2.5-5.4,4.1-8.5,4.1-6-.2-9.7-4.8-11.6-9.9-1,1.7-2.5,3.3-4.1,4.5-4.8,3.5-11.4,4.8-17.2,4.3-3.9-.4-7.9-2.3-8.9-6-1.7,2.7-4.3,5-7.2,6.8-6.2,3.9-15.1,6.4-22.5,4.1-2.9-1-5.4-2.7-6.2-5.6-1-3.1,0-6.4,1.4-9.3-2.3,1.4-4.5,2.5-6.8,3.7-6.6,3.3-13.9,6.6-21.5,6.8-2.9,0-6.2-.4-8.5-2.3-.8-.6-1.4-1.2-1.9-1.7,0,.4-.2.6-.4,1-4.1,8.1-20.5,11.8-26.1,4.3-1,3.7-3.5,7-6.4,9.5-4.3,3.7-9.7,6.4-15.3,6.6-5.6.2-10.8-3.1-13.7-7.7-5.4-8.7,0-19,6-26.5-2.1,1.2-4.5,2.1-7,2.7-3.3.8-6.6.6-9.7-1.2-3.1-1.7-5.2-5.2-6-8.7-.4-1.4-.4-2.7,0-4.3-.8,1.5-1.5,2.9-2.1,4.5-4.1,10.5-2.1,24.6,7.9,30.6-1.5.8-3.1,1.7-4.6,2.9-7.2,2.9-12.4,10.3-12.8,17.8-.2,4.8,1.7,9.5,4.6,13.4,1.7,2.3,4.1,4.5,6.8,5.8.2,8.5,6.8,15.1,14.5,17.8,2.3.8,5.2,1.5,7.9,1.5-2.3,1.7-4.8,3.1-7.9,2.5-2.3-.4-4.5-1.5-6.4-3.1-1.7-1.4-3.5-3.1-3.5-5.4s-1.2.2-1.4.8c-.4,2.3.6,4.6,2.1,6.4,1.4,2.1,2.9,3.9,5,5.2,2.9,1.9,6.6,2.7,9.9,2.1.8,0,1.5-.4,2.3-.6-1.7,4.1-2.1,8.9-.6,12.8,1.2,2.9,3.3,5.4,5.8,7.2s6,3.3,9.1,2.5c.2,0,1.4-1,.8-1.2h-.6c1-4.6.6-9.9.4-14.5,0-4.6-.2-9.3,0-13.9.4-8.5,3.1-16.6,7-24.2,6.6-12.8,17-23.4,29.2-30.6,5.4-3.1,11-5.4,16.8-7.4,2.9,2.9,6.6,5.4,10.1,7.2,6.8,3.5,14.5,5.2,22.1,5,3.9,0,7.5-.8,11.2-2.1,2.3-.8,4.8-1.9,7.4-1.9s4.8,1.2,7.4,1.2c10.1.4,17.8-7.7,27.3-9.3,2.7-.4,5.4-.4,7.9.8,1.9.8,3.7,2.3,5.4,3.7,1.4,1.2,2.9,2.3,4.5,3.3-.8,1.5-1.2,3.3-1.2,5,.2,4.6,3.3,10.1,7,13,3.9,3.1,9.9,4.8,14.7,4.5,1,0,1.9-.2,2.9-.6,1.2,2.7,3.3,5,5.6,7,1.9,1.7,4.1,3.3,6,5,1.5,1.5,3.1,3.3,4.5,5.2,4.8,6.8,8.9,15.5,17.6,17.2h0c.4,3.1,1.7,6,3.7,8.5,1.4,1.9,3.1,3.9,5.2,5.4-1.5.4-3.1,1-4.5,1.5-3.3,1.4-6.2,3.5-7.5,6.8-2.7,7,1.9,13.5,8.5,16.1.6.2,1.4.4,2.1.6h-.2c-1.4.6-2.7,1.2-4.1,1.9-2.7,1.7-5.2,4.1-7.2,6.8-1.9,2.5-3.5,6-1.7,9.1.6,1,1.4,1.5,2.1,2.1-2.1,1.7-3.7,4.5-4.1,7.4-.6,4.6,2.3,9.1,6.6,10.6,4.8,1.7,10.3,0,14.3-2.7,1.9-1.2,3.7-2.5,5.4-3.9,5.8-2.7,13.2-3.1,19.4-2.1,4.3.6,8.1,2.3,11,5.4s4.5,7.4,6,11.2c1.7,4.3,3.3,9.1,2.7,13.7-.4,3.3-3.7,8.3,1.2,9.9,7.5,2.3,17-.2,20.1-8.1,2.1-5.4-.4-11.2-4.5-15.5,1.2-.4,2.5-.8,3.7-1.2,1.7-.6,3.5-1.2,5-1.9,3.3-1.5,6.2-4.1,7.7-7.4,1.2-2.5,1.4-5.6.4-8.1,1.5-1.2,2.7-2.9,3.7-4.5,1.9-4.3,1.4-9.5-1.4-13.2,2.3-1.4,4.5-2.9,6.2-4.5,2.7-2.5,5.8-5.8,5.4-9.9-.2-2.7-1.4-5.4-2.7-7.9,2.7-1,5.2-2.5,7.2-4.6,2.1-2.3,3.9-5.2,3.9-8.5s-1.5-5.8-4.3-7.7l-.2-.2ZM97.8,253.8c0-.2-.6-.2-1,0-.6.6-1.2,1.2-1.7,1.9-1.5.8-3.5,1.2-5.2,1.2s-2.7-.2-3.9-.6c4.1-.4,7.5-2.9,10.5-6,.4,0,.8-.2,1-.4.8-.4,1.5-1,2.3-1.5-.2,1.9-.6,3.9-1.9,5.6v-.2Z"/>
          </g>
          <g class="cls-28">
            <path class="cls-9" d="M400.1,146.2c-1.5-3.9-4.5-7.5-8.5-9.1-3.7-1.4-8.1-.6-10.8,2.1-.4.4-.2,1.2.4.6,2.7-2.1,6.4-2.1,9.3-.6,3.1,1.5,5.6,4.6,7,7.7,2.7,6.2,1.9,14.7-5.8,16.6-.8,0-2.1,2.3-1,2.1,4.1-.6,7.4-3.5,9.1-7,2.1-3.9,1.9-8.7.2-12.8l.2.2Z"/>
            <path class="cls-9" d="M437.9,199.3c-2.3-3.9-7.2-6-11.6-5-4.6,1-8.7,4.8-9.3,9.5,0,.8,1.2,0,1.4-.6,1-3.5,3.7-6.4,7.4-6.8,3.7-.4,7.4,1.4,9.5,4.5,2.1,3.1,2.5,7.5.6,11-1.9,3.3-5.6,5-9.1,6.4-4.6,1.7-9.5,2.3-14.1,1-.6-.2-2.3,1.4-1.5,1.9,4.5,2.7,10.1,1.7,14.7,0,4.6-1.7,9.3-4.3,12-8.5,2.5-3.9,2.9-9.3.4-13.2l-.2-.2Z"/>
            <path class="cls-9" d="M429.9,296.2c-2.5-3.9-6.6-6.6-11.2-6.6s-1.5,1.4-.8,1.5c9.5.4,13.9,12.4,13.2,20.5-.4,4.5-2.5,8.3-6.2,10.6-4.3,2.5-9.3,2.9-14.1,2.3-.8,0-2.7,1.9-1.5,2.1,8.1,1.9,17-.8,21.7-7.9,4.5-6.8,3.3-15.9-1-22.5v-.2Z"/>
            <path class="cls-9" d="M401.3,339.6c-3.5-1.9-7.4-2.7-11.2-2.7s-1.5,1.4-.8,1.4c7.2.6,14.7,4.3,16.5,11.8.6,2.9.2,6.6-2.3,8.5-2.3,1.9-5.6,2.1-8.3,1.2-.8-.2-2.5,1.5-1.7,1.9,5,3.5,12-1,14.1-5.8,2.7-6.2-.8-13-6.2-16.3h0Z"/>
            <path class="cls-9" d="M110.8,218.4c-5.8-1-12-3.7-15.3-8.7-2.9-4.5-3.3-11.6,1-15.3.2-.2.8-.8.6-1.2-.2-.4-.8,0-1,0-4.8,4.1-6.2,11.2-3.5,16.8,3.1,6.6,10.3,9.7,17,10.1.6,0,1.7-1.5,1-1.7h.2Z"/>
            <path class="cls-9" d="M93.7,232.2c-3.5,3.7-8.7,5.4-13.5,4.6-4.6-.8-8.9-3.5-11.8-7.2-3.3-4.1-4.8-9.9-3.5-14.9,1.4-5.2,6.2-8.9,11.4-8.7h.4c-2.1,3.7-3.1,7.9-1.9,12.2,2.1,7.9,11,11.6,17.8,7.2.8-.6,1.2-2.3,0-1.5-6,3.3-13.4-.6-15.3-6.8-2.3-6.8,1.2-13.5,7.2-17,.6-.4,1.2-1.9,0-1.4-2.7,1.5-5,3.7-7,6.2,0,0,0-.2-.4-.2-4.3-.4-8.3,1.7-11,5-3.1,3.7-4.3,8.5-3.5,13.4,1.4,9.1,9.5,16.6,19,16.5,5.2,0,10.1-2.5,13.5-6.6,1-1.2-.4-1.5-1.2-.8h-.2Z"/>
            <path class="cls-9" d="M329.7,183.4c-3.5-2.5-7.9-3.3-12-2.7-3.9.6-7.7,2.3-10.1,5.4-2.3,2.9-3.1,7.2-1.4,10.5.4.6,1.5-.4,1.2-1-1.5-3.1-1-7,1.5-9.5,2.3-2.5,6-3.5,9.3-3.5,7,0,13.9,4.5,13.5,12.2,0,1.2,1.5-.2,1.7-.8,1.2-4.1-.8-8.3-4.1-10.6h.2Z"/>
            <path class="cls-9" d="M360.1,217.6c-3.3-.4-6.2,1.2-9.1,2.1-3.3,1.2-6.4,1-9.3-.6-5.6-3.1-9.9-10.8-6.4-17,3.7-6.6,13-5.8,17.2-.4.4.6,1.9-.8,1.4-1.4-3.3-4.8-10.1-6.4-15.1-3.5-5.2,2.9-8.1,8.9-6.8,14.5,1.4,6,7,11.4,13.4,11.6,3.3,0,6.2-1.5,9.3-2.5,3.3-1,6.6,0,9.1,2.3,2.7,2.5,4.1,6.8,1.9,10.1-1.7,2.7-5.2,4.5-8.1,6-.4.2-1.2.8-1.2,1.4s.2.8.8.6c4.8-2.1,10.5-5.2,11.8-10.6,1.7-6-3.1-12.2-9.1-12.8l.2.2Z"/>
            <path class="cls-9" d="M399,229.1c-.6-.4-1.5,1-1.2,1.2,6,3.9,9.5,11.6,8.1,18.6-1.4,7.4-7.4,12.6-14.5,13.7-.4,0-.8.6-1.2,1-1.7-2.1-4.1-3.9-6.4-5.4-.4-.4-1.4.8-1,1,4.3,3.3,8.3,7.2,9.3,12.8,1,4.8-.6,10.5-4.6,13.5-3.7,2.7-8.9,3.3-13.2,1.2-4.3-2.1-7-6.4-7.5-11,0-1-2.1.8-2.1,1.4,0,4.3,2.1,8.1,5.4,10.6,3.5,2.5,7.5,3.3,11.8,2.1,8.7-2.1,14.3-11,12.2-19.5-.6-2.3-1.7-4.5-3.1-6.2,7.7-1,14.5-7.2,16.5-14.5,2.3-7.9-1.7-16.6-8.7-20.9l.2.6Z"/>
            <path class="cls-9" d="M408.8,269.5c-2.7-2.1-7-2.7-9.7-.6-.2.2-.8,1.4,0,1,1.5-.4,2.9-.8,4.5-.4,1.4.4,2.7,1,3.7,1.9,2.3,2.1,3.5,5.6,3.5,8.9s-.8,5.4-2.3,7.7-3.9,3.5-6.6,4.3c-.6,0-1.9,1.7-.8,1.7,3.5.2,6.6-2.3,8.5-4.8,2.1-2.7,3.3-6.2,3.5-9.7,0-3.7-1.2-7.7-4.3-10.3v.2Z"/>
            <path class="cls-9" d="M384.1,301.5c-1-2.5-2.9-4.3-5.4-5-5.2-1.5-12,.4-15.5,4.6-1.7,1.9-2.7,4.6-1.9,7.2.8,2.7,3.5,4.6,6,5.4,2.9,1,6.2.8,8.9-.6,2.5-1.4,4.1-4.1,3.5-7-1-5.4-8.1-7-12.2-3.9-.6.4-.6,1.4.2.8,2.9-1.9,7.4-.6,9.1,2.3,1,1.5,1.4,4.5-.4,5.6-1.9,1.4-5,1.2-7.2.6-3.7-1-8.1-5.2-5.4-9.3,2.3-3.5,7.5-4.6,11.4-3.9,2.3.4,4.5,1.5,5.8,3.7,1,1.5,1.4,4.1.4,5.8-.8,1.2.4,1.5,1.2.6,1.7-1.9,2.3-4.5,1.5-7h0Z"/>
            <path class="cls-9" d="M400.1,297c-.2-.4-1.2.6-1,1,1.9,3.7,2.1,8.1.2,11.8-1.7,3.3-5.4,5.2-9.1,5.6,3.9-2.1,6.6-6.4,7.2-10.5,1-6.2-3.7-12.4-9.7-13.7-.6,0-1.5,1.2-1,1.4,5,1.7,8.7,6.8,8.5,12.2,0,5.4-4.3,9.1-9.3,10.3-.8,0-2.3,2.3-1,2.3s2.7-.6,3.9-1.2c-.4.6-.8,1.2,0,1.2,4.6,0,9.1-2.9,11.6-7s2.3-9.3-.4-13.4Z"/>
            <path class="cls-9" d="M314.6,211.4c-.4,0-1,.8-1.2,1.2-.6,2.3-1.9,4.6-4.3,5.8-2.3,1.4-5.2,1.5-7.7,1-2.7-.8-5-2.5-6.2-5.2-1-2.1-1-5.2,1.2-6.8,2.3-1.5,5.8,0,6.6,2.5,0,.6,1.4-.4,1.4-1-.6-3.1-3.9-4.6-6.6-3.7-3.1,1-5.2,4.5-5.2,7.7s2.5,6.6,5.8,7.9c3.3,1.5,7,1.4,10.3-.2,3.5-1.7,6.2-5.2,6.8-9.1,0-.6-.6-.4-.8-.4v.2Z"/>
            <path class="cls-9" d="M322.5,214.3c-.4.2-.8.8-1,1.2-.8,5.2-2.7,11-7.7,13.5-4.5,2.1-10.1.8-12.4-3.9-.2-.4-1,.4-.8.6.6,2.7,2.7,4.6,5.2,5.6,2.7,1,5.8.4,8.1-1,6-3.1,8.7-9.7,9.3-16.1,0-.6-.6-.4-.8-.2v.2Z"/>
          </g>
          <path class="cls-16" d="M123.9,268.7c3.5-1.9,7.2-3.1,11-3.9,3.9-.6,7.9-.4,11.8.8,3.7,1.4,7.2,3.9,9.3,7.2l1,1.2c.2.4.4,1,.8,1.4l1.4,2.7c.8,1.7,1.2,3.7,1.7,5.6-.8-1.7-1.4-3.7-2.3-5.4-1-1.5-1.7-3.5-3.1-4.8-2.3-3.1-5.4-5.4-9.1-6.6-3.5-1.4-7.4-1.4-11.2-1s-7.5,1.4-11.2,2.9h0Z"/>
          <path class="cls-16" d="M217.6,292c2.3-6.4,7.4-12,13.7-14.7,3.1-1.4,6.6-2.1,10.1-2.3,3.5,0,7,0,10.3.8,6.8,1.5,13.2,5.2,17.6,10.5,4.5,5.2,7.4,11.8,8.7,18.4-1.7-6.6-4.8-12.8-9.3-17.8-4.5-5-10.6-8.5-17.2-9.9-6.6-1.4-13.5-1.4-19.9,1.2-6.2,2.5-11.4,7.5-14.1,13.9h.2Z"/>
          <path class="cls-16" d="M188,372.1h-.8c-7.7,0-21.7-2.7-28.3-18.8v-.8h.8c.2,0,26.5,16.5,61.9,0h.6s.2.4,0,.6c-4.6,10.5-19.7,18.6-34.6,18.6l.4.4ZM160.9,354.5c6.4,13.9,19.2,16.3,26.5,16.5h.6c13.5,0,27.7-7.2,32.9-16.3-30.2,13.4-53.8,3.1-60,0v-.2Z"/>
          <g>
            <path class="cls-9" d="M304.7,76.5c-5.2-1.7-12,0-15.9,4.1-1.9,1.9-3.1,4.5-2.7,7.2.4,2.5,1.7,4.6,4.3,5.4.4,0,1.4-.8.8-1-3.9-1.5-4.5-7.4-1.7-10.3,3.3-3.5,9.7-4.5,13.9-2.9,10.1,3.7,9.1,18.2,4.8,25.9-2.9,5.2-7.9,7.2-13.7,6.6-.8,0-2.5,1.5-1.5,1.9,5.4,2.5,12-1.5,15.3-5.6,3.9-4.6,5.8-11.2,5.6-17.2-.2-5.8-3.1-12-9.1-13.9v-.2Z"/>
            <g>
              <path class="cls-9" d="M382.5,207.6c-4.1-2.1-9.3-2.3-13.2.4-.2,0-.8,1.2,0,1,4.5-1.7,9.1-1.4,13,1.5,3.5,2.5,5.8,6.4,6.2,10.8.4,4.6-1,9.5-4.1,13-3.1,3.3-7.4,5.4-11.6,6.2,1.5-6.2-.2-13-2.3-19,0-.6-1.2.4-1,.8,1.9,7.2,4.3,16.1-.6,22.6-4.5,6.2-12.6,6.6-19.2,3.7-.6-.2-1.7,1.2-1.4,1.5,6.8,5.2,16.3,2.3,21.3-3.9,1-1.4,1.7-2.7,2.3-4.1,7.9-1.2,15.1-6.6,17.8-14.1,2.7-7.7,0-16.6-7.4-20.5h0Z"/>
              <path class="cls-9" d="M411.4,201.6c-3.3-7.5-11.8-10.5-19.5-9.7-1.2,0-2.7.4-4.3.8,3.3-3.7,4.5-9.3,1.9-13.7-2.7-5-8.9-7.5-14.3-5.6-3.1,1-5.6,3.1-7.4,6,0,.2,0,.6.2.6.4,0,.8-.4.8-.6,3.5-5.6,11.4-6.2,16.3-1.7,4.6,4.3,4.8,11.8,0,16.1-.2,0-.4.4-.4.6-.8.6-1.4,1.5-1.4,2.7s1,0,1-.6c.2-2.1,3.5-2.3,5-2.5,2.1,0,4.3-.2,6.2,0,3.9.6,7.5,2.1,10.3,5,2.3,2.5,4.1,5.8,3.7,9.5-.2,3.5-2.3,6.6-5.4,7.9-.6.2-1.9,2.1-.6,1.7,6.8-1.7,9.9-10.3,7.4-16.3l.6-.2Z"/>
              <path class="cls-9" d="M330.8,154.7c-.6,0-1.2.8-1.4,1.4-1.2,3.1-3.1,6.4-6.4,7.7-2.9,1.2-6.6.8-9.1-1-2.7-1.7-4.5-4.6-4.6-7.9,0-3.1,1.2-6.4,3.9-8.1,3.3-1.9,7.7-1.9,11,0,.4.2,1.4-.8,1-1-3.1-2.3-7.4-2.7-10.8-1.2-3.7,1.5-6.2,5-7,8.9-.8,3.9.6,8.1,3.9,10.6,3.1,2.3,7.2,3.1,10.8,1.7,4.8-1.7,7.7-6.2,9.5-10.8,0-.6-.2-.8-.8-.6v.2Z"/>
              <path class="cls-9" d="M312.6,172c1.2-4.8-3.7-7.2-7.5-8.1-4.1-1.2-8.7-1.2-12,1.7-2.9,2.5-4.3,6.4-3.7,10.1.6,3.9,3.7,7,7.2,8.5,4.8,2.1,10.5,1,14.9-1.5.4-.2,1.2-.8,1-1.4,0-.6-.6-.6-1-.4-6.4,3.1-15.5,2.7-19-4.3-1.4-2.7-1.4-6.2.4-8.7,2.1-3.1,6.4-2.9,9.5-2.3,3.7.6,9.7,2.3,9.1,7.2,0,.8,1,0,1.2-.6v-.2Z"/>
            </g>
            <path class="cls-9" d="M174.8,122.8c-6.8,3.1-15.3,2.7-20.1-3.7-2.1-2.7-3.1-6.2-2.1-9.5.8-3.5,3.3-6.2,6.8-7.2.4,0,1-1.2.4-1-5.8,1.4-9.9,7.4-9.3,13.2.8,6.6,6.4,11.6,12.8,12.2,4.1.4,8.1-.6,11.6-2.7.6-.4,1.4-1.9,0-1.4Z"/>
            <path class="cls-9" d="M179.3,103.1c-.4,0-.8.6-1,.8-1.9,4.3-7.5,5.8-11.6,3.3-3.9-2.5-5.8-8.1-2.7-12,1.7-2.1,4.6-3.3,7.4-3.1.4,0,1-1,.6-1-5.8-.8-11.6,4.5-11.4,10.3,0,2.9,1.5,5.6,3.9,7.4s5.4,2.1,8.1,1.4c3.3-1,6-3.5,7.2-6.6,0-.4,0-.6-.4-.6v.2Z"/>
            <path class="cls-9" d="M183.3,97.8c-1.7-1.9-4.5-3.3-7.2-3.3s-1,1-.6,1c5.2.8,9.5,5.8,8.7,11.2-.8,5.2-6.8,7.9-11.4,6.4-.6,0-1.9,1.4-1.2,1.5,4.5,1.7,9.5-.6,12.2-4.3,2.9-3.9,2.7-9.1-.6-12.8v.2Z"/>
            <path class="cls-9" d="M208.7,106.9c-3.9-6.4-10.8-11.8-18.8-9.9-.4,0-1,1.2-.4,1,5.8-1.4,11.2,1.9,14.7,6.2,3.1,3.7,7.7,11,2.9,14.9-4.1,3.3-10.5,4.6-15.1,2.1-3.9-1.9-7-7.4-4.6-11.6,1.4-2.1,4.1-3.3,6.6-3.1,2.7.4,6,3.1,4.5,6.2-.6,1.2.8.6,1.2,0,1.9-2.5,1.2-5.8-1.5-7.4-2.5-1.4-5.6-1.2-8.1,0-5.4,2.9-7,9.3-3.3,14.3,4.1,5.4,11.6,5.4,17.2,2.7,2.7-1.4,5.6-3.3,6.8-6.4,1.4-3.3-.4-6.8-2.1-9.7l.2.6Z"/>
            <path class="cls-9" d="M237.4,113.3c-.6-4.3-3.1-8.1-7-10.3-3.5-1.9-8.1-1.7-11.6.2-3.5,2.1-6,6-5.4,10.3.6,4.5,5.4,7.2,9.7,5.2.2,0,.8-.6.6-1-.6-1.5-1.7-2.7-3.5-3.3-.4,0-1.2.8-.6,1,1.2.6,2.1,1.4,2.5,2.5-2.9.6-6-1.5-6.8-4.3-1.2-3.7.8-7.5,4.1-9.1,7-3.3,14.3,1.9,15.9,8.9,1,4.5-.4,9.1-3.1,12.8-.2.4-.4.8,0,1.2.4.2,1.2-.4,1.4-.8,2.9-3.7,4.6-8.5,3.9-13.2v-.2Z"/>
            <path class="cls-9" d="M131.3,128.4c-3.9-1.4-7.9-1.9-12-1-3.3.8-6.6,2.7-8.5,5.6-1.7,2.7-2.5,6.4-1.2,9.5,1.4,3.1,4.6,4.6,7.9,4.6s7.9-2.7,10.1-6c.6-1-.2-1.2-1-.6-1.9,2.1-4.5,3.9-7.4,4.1-2.7.2-5.6-.8-7.4-3.1-1.5-2.1-1.5-5.2-.4-7.5,1.4-2.5,3.9-4.1,6.6-4.8,3.9-1.2,8.1-.4,12,.4.4,0,1.4-1,.8-1.2h.4Z"/>
            <path class="cls-9" d="M137.1,138.7c-3.5-4.1-9.5-4.6-14.1-2.3-.4,0-1,1.4-.2,1.2,3.9-1.4,8.3-.8,11.4,2.1,2.9,2.7,4.3,7.2,2.5,10.8-1.9,4.1-6.6,5.6-10.6,6-3.9.4-7.9.4-11.6-.6-4.1-1-7.7-3.1-10.3-6.4-.6-.6-2.3,1-1.9,1.7,4.6,8.1,16.3,9.1,24.6,7.5,4.6-1,9.1-3.3,11.4-7.5,2.1-3.9,1.5-8.7-1.4-12l.2-.6Z"/>
            <path class="cls-9" d="M109.8,175.8c-5.8,3.1-12.8-1.2-15.9-6.2-1.7-2.9-2.7-6.4-1.5-9.5s4.5-5.4,7.7-5c.4,0,1.2-1,.8-1-6-1-10.8,4.6-10.8,10.3s4.6,12,10.5,13.9c3.1,1.2,6.6.8,9.3-1.4.6-.4,1-1.7,0-1.2Z"/>
            <path class="cls-9" d="M109.6,178.2c-5.8,5.6-15.3,6-21.9,1.9-7-4.3-11-12.6-10.3-20.7.6-5.2,4.5-10.1,10.1-9.5.4,0,1.4-1.2.8-1.2-4.5-.8-8.7,1.9-10.8,5.6-2.7,4.5-2.7,10.1-1.4,14.9,1.7,5.8,5.6,10.8,10.6,13.5-4.1-.8-7.9-2.5-10.8-5.6-4.8-4.8-6.6-13-3.3-19.2.4-1-.8-.4-1,0-3.9,6.4-2.9,14.9,1.9,20.5,1,1.2,2.1,2.1,3.5,2.9-2.9,3.3-6,7-10.5,7.7-1.2.2-2.1.2-3.1,0-1.7-4.3,0-9.1,4.3-11,.4,0,.8-.6,1-1,0-.4,0-.6-.6-.6-5,1.2-8.3,6.4-8.1,11.2-1.7-1-3.5-2.5-4.5-4.1-2.3-3.5-2.7-8.1-.8-11.8,1-1.7,2.3-3.3,4.1-4.3,2.3-1.4,4.6-1.4,7.2-1.5.2,0,1.2-.8.8-1-3.3-2.3-8.1.4-10.6,2.7-2.9,2.5-4.8,6.4-5,10.3-.4,6.4,4.1,12.2,9.9,13.5,2.3,5.4,8.9,8.1,14.3,5.4.4-.2,1.7-1.9.6-1.9-2.3.2-4.8.2-7-.6-1.5-.6-2.7-1.5-3.9-2.7.8,0,1.5-.2,2.3-.6,4.6-1.5,8.1-5.4,10.8-9.3,4.5,2.7,10.1,3.5,15.1,2.5,1.2,0,2.3.2,3.5.2,5.2,0,10.3-2.3,13.7-6.2,1-1.2,0-1.9-1-1v.6Z"/>
            <path class="cls-9" d="M135.3,196c-5.6,4.5-14.3,5.4-19.9.2-2.5-2.3-4.3-5.4-4.3-8.9s1.7-7.5,5.6-8.3c.4,0,1-1,.4-1-6.4,1-8.9,8.5-7.2,13.9,2.1,6.6,8.7,10.5,15.3,9.7,3.9-.4,7.5-2.1,10.5-4.8.8-.6.4-1.7-.6-1l.2.2Z"/>
            <path class="cls-9" d="M174.2,154.2c-1.2-3.9-4.6-6.6-8.5-7.5-4.8-1.2-9.3,1.5-12,5.6-.4.8.4.8.8.2,2.3-3.3,5.8-5,9.9-4.1,3.3.8,6.2,3.1,7.5,6.2,1.4,3.3,1,7.2-1,10.1-1.9,3.1-5.2,4.8-8.9,5-4.3.2-8.7-1.5-12-4.5-.6-.6-2.3,1.2-1.7,1.7,3.1,3.3,7.5,5.2,12.2,5,4.5,0,8.5-2.5,11.2-6,2.5-3.3,3.7-7.7,2.5-11.8h0Z"/>
            <path class="cls-9" d="M230.8,160.7c-7,2.1-13.9-2.9-17.8-8.3-2.1-2.9-3.9-6.6-3.3-10.5.4-3.5,2.7-6.8,6.4-7.4.4,0,1.2-1.2.6-1.2-3.5.6-6.4,3.1-7.7,6.4-1.7,3.9-1,8.1,1,11.8,3.7,7,12.2,13.9,20.5,10.6.4,0,1-.6,1.2-1.2,0-.4,0-.8-.6-.6l-.2.2Z"/>
            <path class="cls-9" d="M258.1,159.6c-1-5.4-6.8-8.9-12-7.9-.4,0-1.2,1.2-.6,1.2,4.5-.6,9.3,2.5,10.5,7,1.2,4.3-1,9.1-5.2,10.6h0c.4-.4.4-1,0-1-3.3-.4-7-.6-10.1-2.1-3.5-1.7-4.8-5.4-5.2-9.1-.2-3.5,0-7.4,1.7-10.5s4.8-4.8,8.3-4.8,7.9,1.2,11,3.5c.6.4,1.7-.8,1.2-1.2-6-4.8-15.1-6.2-20.5,0-2.7,3.1-3.9,7.4-4.1,11.4s.4,8.7,3.7,11.6c3.5,3.1,8.5,3.1,13,3.1h.4v.4c0,.4,0,.8.6.6,5-1.5,8.7-7.4,7.7-12.6l-.4-.2Z"/>
            <path class="cls-9" d="M237,183.6l-.2.2c0-.4-.2-.6-.8-.6-5,1.2-11.2.8-14.7-3.5-1.4-1.7-2.3-4.1-2.1-6.4,0-2.3,1.5-3.9,3.5-4.8,2.5-1.2,5.6-1.2,8.5-1,.4,0,1.2-.8.8-1-2.7-.6-5.4-.8-8.1,0s-5,2.9-6.2,5.4c-1,2.5-.8,5.4.4,7.9,1.4,2.7,3.7,4.5,6.4,5.4,3.5,1.2,7.4.8,10.8-.2h0c-4.1,4.3-10.6,5.8-16.3,3.1-6.4-3.1-10.1-11-7.4-17.6,1.7-4.5,6.4-6.8,11.2-5.6.6,0,1.7-1.2,1.2-1.5-4.1-1.5-8.7.2-11.4,3.5-2.9,3.3-4.3,7.7-3.5,12.2,1.4,8.5,9.7,14.3,18.2,12.6,4.6-1,8.7-3.9,11-8.1.6-1.2-1-.8-1.4,0h0Z"/>
            <path class="cls-9" d="M255.2,113.5c-1.4-2.9-3.7-5.4-6.2-7.4-2.1-1.7-5-3.5-7.5-1.5-.4.2-.6,1.4,0,.8,2.3-1.4,5,1.7,6.6,3.1,1.9,1.9,3.7,3.9,4.8,6.4,1.9,4.1,2.3,10.1-1.4,13.4-.2.2-1,.8-.6,1.2.2.4.8,0,1,0,4.8-3.7,5.8-10.6,3.1-15.9h.2Z"/>
            <path class="cls-9" d="M176.6,159.8c-2.3,7.9-7.7,15.9-16.6,16.8-4.5.6-8.3-1-12-3.7-3.1-2.3-7.9-6-7-10.5,0-.6-.8,0-.8.2-1.4,4.8,2.9,8.9,6.4,11.8,3.9,3.1,8.3,4.8,13.4,4.1,9.9-1.5,16.3-10.3,18.6-19.4.4-1.4-1.5,0-1.9.6h0Z"/>
            <path class="cls-9" d="M216.4,62.2c-5.8-6.6-15.7-8.1-24-7.2-4.8.6-10.1,2.5-13.2,6.4-.4.6,0,1,.6.6,6.4-5.4,15.5-6.2,23.4-4.1,7.9,2.1,14.5,7.7,15.1,16.5.4,5-1.2,10.3-3.5,14.7-.2.4-.2,1,.4,1s1.2-.8,1.5-1.2c4.5-8.1,6.6-19.2,0-26.7h-.4Z"/>
            <path class="cls-9" d="M330.1,100.3c-3.7-1.5-7.9-1.7-11.8-.4-.4,0-1.2,1.4-.4,1.2,7.7-1.7,16.6,2.3,19.5,10.1,2.9,7.5-.8,16.6-8.1,20.1-.6.2-1.5,2.3-.4,1.7,6.6-2.5,11.2-9.3,11.8-16.3.6-7.4-4.1-13.7-10.8-16.3l.2-.2Z"/>
          </g>
          <path class="cls-7" d="M99,320.2s-11.2,35.8,33.9,61.4c-39.7-8.1-42.4-50.9-33.9-61.4Z"/>
          <path class="cls-24" d="M120.8,277.1s25.9-12.6,36.6,9.3c2.1,6,4.5-9.3-7-17.4-11.4-8.1-26.9-1.5-29.4,8.1h-.2Z"/>
          <path class="cls-24" d="M221.9,293.5s8.1-12.2,28.3-8.1c13.2,3.5,20.9,12.4,24,21.1,2.1,5.6,4.5-20.9-21.7-28.6-20.5-3.5-30.6,6.4-30.8,15.7h.2Z"/>
          <g>
            <path class="cls-22" d="M124.3,277.8s-7.5,1.2-10.3-4.8c0,3.3,1.7,7.4,7.7,7.5"/>
            <path class="cls-22" d="M120.8,282.7s-6.4.4-8.1-4.8c-.4,2.5.8,6.2,5.8,7"/>
          </g>
          <g>
            <path class="cls-22" d="M262.5,293.9s7.5,1.2,10.3-4.8c0,3.3-1.7,7.4-7.7,7.5"/>
            <path class="cls-22" d="M266,298.5s6.4.4,8.1-4.8c.4,2.5-.8,6.2-5.8,7"/>
          </g>
          <g class="cls-30">
            <path class="cls-25" d="M89.7,144.3c-9.7-1.7-16.8,7-18.2,15.7-1.4,8.1,1.4,18.8,9.9,21.7.6.2,1.9-1.2,1.4-1.5-6.4-3.7-9.5-11-9.3-18.2,0-4.1,1.2-8.5,3.9-11.6,2.7-3.3,7.2-5.2,11.4-4.6.6,0,1.5-1.2,1-1.2v-.2Z"/>
            <path class="cls-25" d="M86.4,175.1c-4.6-1.9-7.7-6.6-8.7-11.4-1.2-5.4.6-13,7.2-13.5.4,0,1.2-1,.6-1-6.8,0-10.3,7.5-9.9,13.4.4,6,3.5,12.2,9.7,14.1.8.2,2.1-1.4,1.2-1.7v.2Z"/>
            <path class="cls-25" d="M101.3,112.9c-4.1-1.2-8.5.6-11.8,2.7-3.7,2.5-6.2,6.4-7.2,10.8-.8,4.3,0,8.5,2.7,12,2.7,3.3,6.8,5.2,11,5,1,0,2.7-2.3,1.2-2.3-7.2-.6-12.8-7.2-12.2-14.3.2-3.5,1.9-6.8,4.6-9.1,3.1-2.5,7-3.1,10.8-3.3.4,0,1.5-1.2,1-1.4l-.2-.2Z"/>
            <path class="cls-25" d="M135.3,85.4c-9.3-.8-18.2,5-21.3,13.7-2.9,7.7.6,18.8,9.9,20.1.8,0,2.7-1.7,1.5-2.1-6.8-3.1-11-10.1-8.9-17.4,2.3-8.1,10.3-11.8,18.2-12.6.6,0,1.7-1.4.8-1.5l-.2-.2Z"/>
            <path class="cls-25" d="M174.2,78.9c-3.7,0-7.2.4-10.3,2.3-3.1,1.7-5.6,4.6-7,7.9-2.5,6-.6,14.5,6.6,16.3.4,0,1-.4,1.2-.8,1.7,1.7,3.9,3.1,6.4,3.7.6,0,1.9-1.4,1.2-1.5-3.7-1.2-7-3.9-8.5-7.4-1.7-3.9-1.4-8.7,1.2-12,.4-.6-.2-.6-.6,0-2.9,3.7-4.1,8.5-2.5,13,.4,1.2,1,2.3,1.7,3.3-4.5-2.9-6.8-8.5-5-13.7,2.1-6.2,8.9-9.5,15.1-9.3.4,0,1.4-1.2.6-1.2v-.6Z"/>
            <path class="cls-25" d="M160.7,156.9c-2.3,3.1-6.8,3.5-10.1,2.3-3.9-1.4-6.4-5-7.4-8.7-2.1-8.5,3.7-16.8,11.8-19.2.4,0,1.2-1.4.4-1.2-7.2,1.7-13.2,8.1-14.3,15.5-1.2,7.4,2.9,15.9,11,16.5,3.9.2,7.7-1.7,9.9-5,.6-1-.8-.6-1.2,0l-.2-.2Z"/>
            <path class="cls-25" d="M269.9,76.3c-5.4-4.8-13.7-3.5-18.4,1.7-4.5,5.2-5.2,13.4-.4,18.6,1.7,1.7,3.7,3.1,6,3.7,2.5,2.7,6.2,4.3,9.9,3.7.6,0,1-.4,1.2-1,0-.4.2-.8-.2-.8-2.3,0-4.5-.4-6.4-1.5h0c.6,0,1.7-1.5.8-1.5s-2.7-.6-4.1-1c0,0-.4-.4-.4-.6-2.3-3.3-2.5-8.1-.4-11.6.6-1-.4-1-.8-.2-1.9,2.9-2.7,6.8-1.7,10.3-2.3-1.9-4.1-4.5-4.6-7.4-1.2-6,2.5-12,8.5-13.2,3.5-.6,7.2,0,10.3,1.9.4.2,1.4-.6,1-1l-.2-.2Z"/>
            <path class="cls-25" d="M232.1,102.1c-5-4.1-12.6-1.7-16.1,3.3s-3.3,12.6,2.1,16.5c2.9,2.1,6.4,2.7,9.9,1.7.6,0,1-.8,1.2-1.2,0-.4,0-1-.4-.8-5,1-10.5-1.9-12.2-7-.8-2.3-.8-5,.2-7.4,1-2.3,2.9-4.1,5.4-4.6,2.9-1,6.2-.6,8.9.8.4,0,1.4-.8,1-1.2v-.2Z"/>
            <path class="cls-25" d="M254.2,165.4c-1.5.6-3.1.8-4.6.6h-.4c-2.7-.4-5.2-1.9-6.8-4.1-2.5-3.7-1.7-8.9,1.4-12,.4-.4.2-1.2-.4-.6-3.5,2.3-5,7-4.5,10.8.6,3.1,2.5,5.8,5.4,7.2-1.9-.4-3.7-1.4-4.8-2.7-2.5-2.9-3.9-7-3.9-10.8s1.2-7.5,4.3-9.9c2.9-2.3,6.8-2.9,10.3-1.7.6,0,1.5-1,1-1.2-6.4-3.3-13.9,1.7-16.5,7.5-1,2.1-1.4,4.3-1.4,6.6,0,0-.4,0-.4.2-3.1,2.7-8.3,2.5-11.8.4-3.7-2.3-5-7.2-3.5-11.2.8-2.1,2.5-4.1,4.6-5,.4,0,.8-.4.8-.8s0-.6-.4-.4c-5,1.5-8.3,7.2-7.9,12.2.4,5.4,5,9.1,10.3,9.3,3.1,0,5.8-1,7.9-3.1,0,1,0,2.1.4,3.1.8,3.5,2.5,7.4,5.8,9.3,2.9,1.7,6.2,1.4,8.7-.4,1.9,0,3.9-.2,5.6-1.2.4-.2,1-.8,1-1.2s-.2-.6-.6-.6l.4-.4Z"/>
            <path class="cls-25" d="M313.6,181.8c-2.5-.4-5.6-1.5-6.8-4.3-1-2.1,1-5.2,3.5-4.3.4,0,1-.6.6-.8-2.5-1.2-4.8,1.4-5.6,3.5-.6,1.5-.2,3.3.6,4.5h0c-4.8,1-10.5-1.4-12.6-6-1-2.3-1.2-4.8-.2-7.2s2.7-3.7,5-4.3c2.7-.8,5.8,0,7.9,1.7.4.4,1.4-.6,1-1-4.3-4.3-11.4-2.7-14.7,1.9-3.5,5-2.3,12.4,2.9,15.5,2.9,1.7,6.4,2.1,9.7,1.2.4,0,1-.6,1.2-1v-.4c.6.6,1.2,1.2,1.9,1.7,1.4.8,2.9,1.2,4.5,1.2s1-.4,1.2-.8c0,0,.4-.8,0-1v-.4Z"/>
            <path class="cls-25" d="M371.1,221.5c-.8-4.3-3.7-8.3-7.9-9.7-4.8-1.7-9.1,1.2-13.7,2.1-1.7.4-3.5,0-5-.8,1.4-.4,2.7-1.2,3.9-1.9.4-.2.8-.8.8-1.2s-.6-.4-.8,0c-1.7,1-3.9,1.4-6,1.4-1-1.2-1.4-2.7-1.5-4.3,0-5.2,7-6.4,10.5-3.9.4.4,1.4-.6,1-1-2.9-2.7-7.4-2.5-10.5-.2-2.7,2.1-4.1,5.4-3.3,8.7-2.7-1-5-2.7-6.2-5.2-1.4-2.7-1.5-6-.4-8.7s3.7-4.5,6.6-5c3.5-.6,7.2.4,9.7,2.9s1.4-.6,1-1.2c-4.8-5.8-14.1-4.5-18.2,1.7-2.1,3.1-2.7,7-1.7,10.6,1,3.5,3.7,6.2,7,7.4,1.2.4,2.5.8,3.7.8,2.7,3.7,7.4,3.3,11.4,1.9,2.5-1,5.2-2.1,7.9-1.5,2.3.4,4.6,1.7,6.2,3.7,4.5,5.2,2.9,12.4-.4,17.6-.2.4-.2,1,.2,1.2.6,0,1.2-.6,1.5-1,2.9-4.1,4.6-8.9,3.9-13.9l.6-.6Z"/>
            <path class="cls-25" d="M388.3,214.5c-.6-6.4-4.8-12.8-11.6-13.4-3.5-.2-7,1-9.1,3.7-.8,1,0,1.5.8.8,2.3-2.5,6-2.9,9.1-1.9,3.3,1,5.8,3.7,7.2,6.8,2.3,5,2.5,14.3-4.1,16.1-.6,0-1.9,2.1-.8,1.9,6.4-.6,9.3-8.1,8.9-13.7l-.4-.2Z"/>
            <path class="cls-25" d="M386,178.7c-2.1-4.8-7.5-7-12.6-5.6-2.7.6-5.2,2.3-6.6,4.8-.4.8.6.4.8,0,2.3-3.5,7.4-4.3,11-2.7,4.5,1.7,6.4,6.6,5.8,11-.4,2.5-1.4,5-3.1,7,0,.2-.6.8-.4,1,.2.4.6,0,1,0,4.5-3.5,6.4-10.3,4.1-15.5h0Z"/>
            <path class="cls-25" d="M330.5,160.7c-.4-.2-1,.2-1.2.4-1.5,1.7-4.3,1.9-6.4,1.5-2.5-.6-4.5-2.1-5.8-4.3s-2.3-5-2.3-7.5.2-2.9,1-3.9c1-1.2,2.3-1.7,3.9-1.5.4,0,1.4-1,.8-1-2.3-.6-4.8.8-6,2.7-1.7,2.3-1.7,5.4-1.2,8.1,1,5,4.5,9.9,9.9,10.1,2.9,0,5.6-1.2,7.4-3.3.2-.2.4-.8,0-1.2v-.2Z"/>
            <path class="cls-25" d="M380,155.3c-5,0-10.6-2.9-12.2-7.9-1.5-4.6,1.2-10.1,6-11,.4,0,1.4-1.2.6-1.2-4.5.2-7.9,4.5-8.9,8.5-.4,1.7-.4,3.7,0,5.2-4.1-2.9-6.6-8.3-5.2-13.4.8-2.9,3.1-5,5.8-6.4,3.1-1.4,6.4-1.4,9.7-.4.4,0,1.4-.8.8-1.2-5-2.9-11.6-.6-15.3,3.5-4.1,4.3-4.8,10.6-1.9,15.9,1.7,2.9,4.3,5,7.4,5.8h.6c1,1.2,2.1,2.3,3.5,3.1,2.5,1.4,5.2,2.1,8.1,1.7.6,0,1.2-.6,1.5-1.2.2-.4.2-1-.4-1v-.2Z"/>
          </g>
          <g>
            <path class="cls-16" d="M218.6,339c4.5-2.3,9.3-4.1,14.1-5.4s10.1-2.1,15.1-2.5c5,0,10.3,0,15.3,1.4,2.5.8,5,1.5,7.2,2.7,2.3,1,4.5,2.7,6.4,4.1-2.3-1-4.5-2.3-7-3.1-2.3-1-4.8-1.4-7.2-1.9-4.8-.8-9.9-1-14.7-.8-5,.2-9.9,1-14.9,1.9-2.5.4-4.8,1-7.4,1.7-2.5.6-4.8,1.4-7.4,1.9h.4Z"/>
            <path class="cls-16" d="M109.2,313.6c7.2-1.4,14.5-1,21.7.4,3.5.8,7.2,1.9,10.5,3.5,3.3,1.5,6.4,3.7,9.1,6-3.3-1.7-6.4-3.1-9.7-4.5-3.3-1.2-6.8-2.1-10.3-2.9s-7-1.4-10.5-1.7-7.2-.8-10.6-1l-.2.2Z"/>
          </g>
        </g>
        <g class="cls-30">
          <path class="cls-25" d="M236,237.4s17.4-1.5,39.9,15.1c-4.3-6.8-19.7-15.3-32.1-17.2-9.3-1.4-12,1.9-7.7,1.9v.2Z"/>
        </g>
        <g class="cls-30">
          <path class="cls-25" d="M124.7,240.5s7.5-6.6,19.7-9.1c6.8-1.2,5-3.9-2.3-1.7-7.2,2.1-14.1,5-17.4,10.6v.2Z"/>
        </g>
      </g>
    </g>
  </g>
</svg>