<?xml version="1.0" encoding="UTF-8"?>
<svg id="Layer_1" data-name="Layer 1" xmlns="http://www.w3.org/2000/svg" version="1.1" viewBox="0 0 500 500">
  <defs>
    <style>
      .cls-1 {
        fill: #fff;
        stroke-width: 0px;
      }
    </style>
  </defs>
  <path class="cls-1" d="M254,359.8c-7.9,1.3-9,4-8.9,11.2,0,13,0,26.1-.1,39.1,0,3.7-3.5,7-7,7-5.8-.1-11.7-.4-17.5-.7-4.2-.2-6.5-2.9-6.9-7.9-.1-1.9,0-3.8,0-5.7,0-35.1.2-70.2,0-105.3-.1-15.4,4.2-16.3,16.3-20,10.7-3.3,21.4-6.7,32.3-9.2,11.8-2.7,23.7-5.3,35.8-.4,8.9,3.6,14.4,9.9,18.2,18.5,4.5,10,4.7,20.3,2.4,30.6-1.6,7.6-6.3,13.9-12.4,18.8-5,4-10.2,7.9-15.6,11.4-3.8,2.5-4.3,5.2-2.2,8.9,8.2,14.5,16.4,29.1,24.6,43.6,1.8,3.3,3.8,6.5,5.4,9.9,1.7,3.6-.5,6-3.5,7.3-2.1.9-4.5,1.2-6.9,1.3-5.1.2-10.2-.2-15.3.1-8,.5-12.7-3.4-15.7-10.4-2.7-6.3-6.1-12.3-8.9-18.6-4-8.9-7.7-17.8-11.6-26.7-.5-1.1-1.6-1.9-2.3-2.8ZM244.9,318.3c0,3,0,6,0,9,.1,3,1.7,4.4,4.7,3.4,9.8-3.4,19.5-6.8,29.3-10.2,4.5-1.6,7.2-4.7,8.8-9.1,2.5-7.3-1.4-13.3-9-14.7-7.9-1.4-14.8,1.7-22,3.8-15,4.3-11.6,6.2-11.8,17.8Z"/>
  <path class="cls-1" d="M360.9,366.8c0,14.1,0,27.8,0,41.4,0,8.1-1.3,9.7-9.5,9.6-6,0-12-.3-18.1-.7-2.9-.2-4.3-1.4-4.2-4.9.1-51.8.1-103.7,0-155.5,0-4,1.5-5.9,5.3-6.1,6.7-.3,13.3-.8,20-.9,4.5,0,6.3,2.3,6.2,6.9-.2,8.2,0,16.5,0,23.9,6.5-6.9,13-14.2,19.9-21,4.3-4.2,16.8-2.3,20.4,2.7,1.9,2.6.4,10.2-2.3,13.6-7.6,9.7-15.1,19.4-17.9,31.8-1,4.3-1.6,8.7-1.5,13.1.1,6.6.6,13.2,1.8,19.6.9,4.7,2.4,9.6,4.7,13.8,4.2,7.6,7.8,15.6,14.2,21.9,9,8.8,19,15.6,31.9,14.8,13-.8,24.8-5.8,35.5-13.6,7.6-5.6,12.6-7,18.2,1.8,7.2,11.3,6,14.4-4.9,22-7.3,5.1-16.2,7.8-24.5,11.5-10.1,4.5-21.1,6.1-31.8,5-11.1-1.2-21.7-4.9-31.2-11.5-11.4-7.9-19.9-18.2-26.7-30.1-1.7-3-3.6-6-5.5-9.2Z"/>
  <path class="cls-1" d="M97.9,214.2c-.9,5.8-1.4,11.8-2.6,17.5-1.8,8.4-3.4,17-6.3,25.1-3.6,9.9-7.4,14.2-19.2,15.8-11.7,1.6-20.7-3.8-29.2-10.7-3.7-3-7.4-6.3-10.5-10-7.4-9.1-8.6-20.3-10.6-31.5-4.1-23.2-2.2-46.5-2.7-69.8-.2-7.6,2-15.4,4.2-22.8,2.6-8.7,5.5-17.7,10-25.5,6.2-10.7,14.2-20.1,27.1-23.5,11.3-3,20.7,1.2,29.4,7.7,8.6,6.4,10.3,16.1,10.6,25.9.6,22.2.8,44.4,1,66.5,0,8.5-.3,17-.7,25.6-.1,3.2-1,6.4-1.5,9.6.3,0,.6,0,.8.1ZM70.6,166.6c.3,0,.6,0,.9,0,0-10.2.2-20.3,0-30.5-.2-6.7-1.5-13.3-7-18.1-3.6-3.1-7.2-2.8-10,.9-2.2,3-4.4,6.1-5.8,9.4-4.4,10.9-5.4,22.5-5.7,34-.4,15,.2,30,.9,45,.4,9.7,3.5,18.6,10.2,26.2,5.8,6.7,11.8,3,13.1-3.3,1.5-6.9,3.1-13.9,3.3-20.9.5-14.2.2-28.5.2-42.8Z"/>
  <path class="cls-1" d="M187.1,152.6c-10.3-.3-10.1-.3-13.4-10-2.2-6.6-4.4-13.3-7.8-19.2-4.7-8.3-14.5-7.7-19.9.2-7.2,10.6-10.4,22.3-11.3,34.8-.8,10.7-2.1,21.4-2.6,32.1-.4,8.9.5,17.6,2.4,26.5,1.5,6.7,2.7,12.5,7.8,17.6,10.6,10.5,17.8,5.5,24.1-2.8,4.3-5.7,6.1-12.6,6.1-20-.1-17.3,2.6-16.9,18.1-14.5,9.7,1.5,12.8,8.1,10.2,18.7-2.1,8.3-3.8,16.6-6,24.8-3.5,12.8-8.9,24.5-19.4,33.2-9.1,7.5-19.6,9-31,7-14.1-2.4-20.9-12.4-26.2-24.2-4.7-10.4-5.9-21.5-6.5-32.6-1.1-19.2-2.2-38.5-1.8-57.8.2-11.4,3.4-22.7,5.3-34,2.3-13.5,8.1-25.6,15.3-37,4.9-7.7,10.8-14.8,20-17.4,11.8-3.4,22.4-.3,31.4,7.9,6.9,6.3,10.2,14.9,13,23.5,1.8,5.6,3.8,11.2,4.8,17,1.2,6.6,1.7,13.4,2.1,20.1.2,2.7-5.1,6.3-8.3,6.3-2.1,0-4.1-.2-6.2-.3Z"/>
  <path class="cls-1" d="M250.8,76.9c3.7,0,7.3,0,11,0,7.1-.2,8.8,1.8,9.6,9,1.2,10.9,3.1,21.7,4.6,32.6,1.1,8,1.9,16,3,24,1.5,11.5,3.3,23,4.7,34.5,1.1,8.3,1.7,16.8,2.8,25.1,1.1,7.8,2.8,15.4,3.7,23.2.6,5.7.4,11.5,0,17.2-.2,2.8-2.2,4.5-5.3,4.9-4.2.6-8.4,2-12.6,2.7-2.7.5-4.2-.8-4.6-3.9-1.4-10.9-3-21.8-4.7-32.6-1.2-7.6-2.2-15.2-4-22.6-1.5-6.4-3.1-7.2-9.5-5.6-2.9.7-6.1,1.5-8.5,3.1-1.6,1.1-2.7,3.6-3.1,5.7-1.4,7.9-2.4,16-3.4,24-.9,6.6-1.5,13.3-2.4,19.9-1.1,8.1-2.5,16.2-3.8,24.2-.2,1.2-.6,2.9-1.4,3.3-7.2,3.9-14.8,7.1-23.3,6.5-1,0-2.5-1.8-2.6-2.8-.3-3.6-.4-7.3,0-11,.3-4.1,1.1-8.3,1.9-12.4,1.4-7.4,3.1-14.7,4.3-22.1,1.3-7.8,2.2-15.7,3.4-23.5.7-4.6,1.7-9.1,2.4-13.7.6-4.1.8-8.3,1.5-12.5.9-5.9,2.1-11.8,3-17.7,1.3-8.1,2.4-16.3,3.6-24.5,1.3-9,2.6-18.1,4.1-27.1,1.1-6.6,2.6-13,3.6-19.6.8-6,3-8.3,8.9-8.3,4.5,0,8.9,0,13.4,0,0,0,0,0,0,0ZM248.1,115.5c-3.5,7.2-6.1,23.9-5.4,36.5,0,1.5,1.9,4,3,4,3.2.1,7.3.7,8.7-3.4.8-2.4.4-5.3.2-7.9-.6-7.1-1.7-14.2-1.9-21.4-.1-3.6-1-6-4.5-7.9Z"/>
  <path class="cls-1" d="M325.8,160.5c-.5,2.8-1.3,5.6-1.4,8.4-.1,9.7-.1,19.4,0,29.1.2,9.7.9,19.4,1,29.1.1,7.4-2,10.1-9,12.5-2.8,1-5.6,2-8.5,2.3-4.3.4-6.7-2.1-6.8-6.3,0-40.2-.1-80.4-.1-120.6,0-5,1.4-6.5,6.5-6.5,4.9,0,9.9-.2,14.8.3,5.8.6,9,5.3,11.5,9.7,8.3,14.6,14.6,30.1,19.9,46.1,2.1,6.2,4.6,12.2,7,18.3.2.6,1,1,2.2,2.1,0-5.5,0-10.1,0-14.7,0-18.4,0-36.9,0-55.3,0-4.6,1.8-6.2,6.5-6.2,3.7,0,7.3,0,11-.2,4.2-.4,6.2,1.8,6.8,5.6.3,2,.3,4.1.3,6.2.2,26.5.4,52.9.6,79.4,0,6,.3,12.1.2,18.1-.1,3.5-.5,7.2-1.6,10.5-.5,1.5-2.9,3.3-4.6,3.4-6.5.5-13.1,1.1-19.4.3-7.2-.9-10.5-6.9-12.9-13.1-4.3-11.1-8.3-22.2-12.4-33.3-2.6-7.1-5.1-14.3-7.7-21.5-.5-1.4-1.5-2.6-2.2-3.9-.6,0-1.2.2-1.7.3Z"/>
  <path class="cls-1" d="M16,343.2c0-21,0-41.9,0-62.9,0-5.6,5.7-8.6,11-6.7,10.1,3.7,20.4,6.8,30.5,10.3,8.1,2.8,16.1,6.1,24.3,8.4,8.2,2.3,14.9,6.8,20.4,13,9.7,11,13.4,23.8,8.2,37.8-2.9,7.8-7.1,15.5-14.3,20.5-2.6,1.8-5.8,3.4-8.9,3.5-6.9.3-14,.1-20.9-.6-4.9-.5-9.7-2.1-14.6-3.4-5.6-1.5-7.2-.2-6.9,5.4.2,5.2-.9,10.8.6,15.5,2.6,7.9,1.1,15.6.8,23.4-.2,7.1-2.2,10.2-10.6,9.4-2.7-.2-5.4.1-8.1.1-9.2,0-11.7-2.5-11.7-11.8,0-20.6,0-41.3,0-61.9h0ZM45.5,321.1c.3,10,.2,10.2,9.9,13.1,7.1,2.1,14.2,3.8,21.5,5.2,7.3,1.4,12.1-3.7,9.8-9.9-1.7-4.5-4.8-7.7-9.7-9.1-7.1-2-14.2-3.9-21.1-6.5-8.7-3.3-10.7-2.2-10.5,7.3Z"/>
  <path class="cls-1" d="M187.2,416.6c-2.2,0-4.4,0-6.7,0-8.8,0-9.7-1.2-11.3-10-1.7-9.6-4.2-19.2-6.3-28.7-.7-3-1.5-6-2.2-9.1-1-4.4-4.2-5.8-8.5-4.1-6.3,2.4-8.3,8-10.1,13.5-2,6.2-3.3,12.6-4.9,18.9-1,4-2.2,8-3,12.1-1.1,6.1-5.4,9.4-11.4,8.8-5.3-.6-10.7-1.3-16-1.1-7.9.2-8-2.9-6.4-9.1,4.9-18.7,10.4-37.3,15.7-56,1.2-4.4,2.5-8.7,3.8-13,.2-.7.7-1.4.7-2.2.4-11.9,7-22.1,8.9-33.6.9-5.3,6.9-8.2,13.7-8.6,8.8-.6,17.6-1.7,26.3-2.7,3.8-.5,8.8,3.7,10,9,1.6,7.5,2.9,15,4.5,22.4,1.9,9,4.1,18,6.1,27,2.8,12.7,5.6,25.5,8.5,38.2,1.3,5.7,2.6,11.5,3.9,17.2,1.9,8.5-.7,11.6-9.3,11.3-2.1,0-4.1,0-6.2,0,0,0,0-.1,0-.2ZM145.2,341c.8,1,1.8,3.3,2.8,3.3,3.8,0,7.7-.2,11.3-1.4,3.7-1.3,1.2-4.6.8-6.9-1-5.3-2.2-10.6-3.7-15.8-.3-1-1.8-1.8-2.9-2.4-.3-.2-1.5.6-1.7,1.2-2.1,7-4.2,14.1-6.5,22.1Z"/>
  <path class="cls-1" d="M433,76.9c4.3,0,8.6,0,12.9,0,3.5,0,5.1,1.4,5.5,5.2,1.2,9.4,3,18.6,4.4,28,1.1,7.3,2,14.7,3.2,22,1.2,7.6,2.8,15.1,3.9,22.6,1.4,9.6,2.4,19.3,3.8,29,1.1,7.5,2.7,14.9,3.7,22.3,1.5,10.6,2.9,21.3,3.8,31.9.6,6.9-2.5,9-9.1,7.4-2.7-.6-5.5-1-8.2-1.4-3.3-.5-5.1-2.6-5.6-5.6-1.1-6.9-1.8-13.9-2.8-20.8-1.3-9.4-2.7-18.9-4-28.3-.3-1.8.2-3.8-.4-5.5-2-5.9-8.8-9.4-15.1-8.1-2.8.6-5.3,5.8-5.6,10.3-.4,6.2-1.1,12.3-1.9,18.4-1.1,7.8-2.2,15.5-3.7,23.2-1.8,9.4-.9,10.2-11,9.2-8.4-.9-10.4-3.1-10-11.6.3-6.2,1.4-12.3,2.2-18.5.8-6.8,1-13.8,2.8-20.3,1.7-6.2-1.3-12.7,2.3-18.8,1.7-2.8.8-7.1,1.3-10.7,1.2-8.7,2.5-17.3,3.7-25.9,1.1-8.3,1.9-16.6,3-24.8,1.1-8.5,2.7-16.9,3.6-25.5.3-3.3,2.1-3.4,4.4-3.4,4.3,0,8.6,0,12.9,0,0,0,0-.2,0-.3ZM440.9,141.8h.5c-1.2-7.6-2.6-15.1-3.4-22.7-.3-2.9-1.2-5.3-3.8-5.2-1.4,0-3.6,2.8-3.8,4.5-1.1,8.1-2,16.2-2.4,24.3-.3,5.4,3.3,8.1,9.9,7.5,4.9-.4,2.6-4.7,3.1-7.5,0-.3,0-.6,0-.9Z"/>
  <path class="cls-1" d="M344,77.5c9.8,0,19.7.1,29.5,0,3.2,0,4.8,1.2,5.9,4,1.9,4.9-.6,14.9-4.5,16.9-1.3.7-3,1-4.5,1-16.2,0-32.4,0-48.6,0-2.8,0-5.8.7-8.3-.2-2.2-.8-5-3.1-5.4-5.3-.9-3.9-.8-8.2-.1-12.2.4-2.3,2.4-4.3,5.9-4.2,10,.3,20,.1,30,.1Z"/>
  <path class="cls-1" d="M469.6,345.7c-7.3,0-13.7-5-13.9-11-.2-9.5,5.8-17.1,13.8-16.5,6.3.5,14.4,4.5,13.8,13.7-.6,9.6-2.8,13.5-13.7,13.8Z"/>
  <path class="cls-1" d="M450.2,277.5c7.4-.6,13.7,3.6,13.6,15.4,0,5.6-6.6,10.8-13.7,11.1-6.8.3-14.2-5.2-13.5-14.1.6-6.8,6.2-12.4,13.6-12.4Z"/>
</svg>